<svg xmlns="http://www.w3.org/2000/svg" xmlns:xlink="http://www.w3.org/1999/xlink" viewBox="0 0 470 309"><defs><style>.cls-1,.cls-14,.cls-19,.cls-2,.cls-25{fill:none;}.cls-2{clip-rule:evenodd;}.cls-3{clip-path:url(#clip-path);}.cls-4,.cls-5{fill:#49a5dc;}.cls-4{fill-rule:evenodd;}.cls-6{clip-path:url(#clip-path-2);}.cls-20,.cls-7{fill:#f7941d;}.cls-10,.cls-8{fill:#ec008c;}.cls-9{fill:#8dc63f;}.cls-10,.cls-17,.cls-20{font-size:15.62px;font-family:Montserrat-Light, Montserrat;}.cls-11{letter-spacing:-0.06em;}.cls-12{letter-spacing:-0.03em;}.cls-13{letter-spacing:-0.02em;}.cls-14{stroke:#ec008c;}.cls-14,.cls-19,.cls-25{stroke-miterlimit:10;stroke-width:1.42px;}.cls-15{font-size:21.3px;}.cls-15,.cls-16{fill:#fff;font-family:Montserrat-SemiBold, Montserrat;font-weight:700;}.cls-16{font-size:21.3px;}.cls-17{fill:#83b93b;}.cls-18{letter-spacing:-0.05em;}.cls-19{stroke:#8dc63f;}.cls-21{letter-spacing:0em;}.cls-22{letter-spacing:-0.02em;}.cls-23{letter-spacing:0em;}.cls-24{letter-spacing:-0.03em;}.cls-25{stroke:#f7941d;}</style><clipPath id="clip-path"><circle class="cls-1" cx="203.82" cy="149.31" r="58.51"/></clipPath><clipPath id="clip-path-2"><path class="cls-2" d="M203.82,58.51a90.81,90.81,0,1,0,90.81,90.81A90.81,90.81,0,0,0,203.82,58.51Zm0,151.8a61,61,0,1,1,61-61A61,61,0,0,1,203.82,210.31Z"/></clipPath></defs><title>Artboard 1 copy</title><g id="Layer_7" data-name="Layer 7"><g class="cls-3"><path class="cls-4" d="M192.51,116.08h0a11.32,11.32,0,1,1,11.32,11.32A11.32,11.32,0,0,1,192.51,116.08Z"/><path class="cls-4" d="M177.62,138.92h0a4.38,4.38,0,0,1,4.38-4.38h.69a4.38,4.38,0,0,1,4.38,4.38v41.15a4.38,4.38,0,0,1-4.38,4.38H182a4.38,4.38,0,0,1-4.38-4.38Z"/><path class="cls-4" d="M220.57,138.92h0a4.38,4.38,0,0,1,4.38-4.38h.69a4.38,4.38,0,0,1,4.38,4.38v41.15a4.38,4.38,0,0,1-4.38,4.38H225a4.38,4.38,0,0,1-4.38-4.38Z"/><path class="cls-4" d="M189.4,181.81h0a5.3,5.3,0,0,1,5.3-5.3h.84a5.3,5.3,0,0,1,5.3,5.3v55a5.3,5.3,0,0,1-5.3,5.3h-.84a5.3,5.3,0,0,1-5.3-5.3Z"/><path class="cls-4" d="M206.8,181.81h0a5.3,5.3,0,0,1,5.3-5.3h.84a5.3,5.3,0,0,1,5.3,5.3v55a5.3,5.3,0,0,1-5.3,5.3h-.84a5.3,5.3,0,0,1-5.3-5.3Z"/><path class="cls-4" d="M177.61,139.57h0a7.32,7.32,0,0,1,7.32-7.32h37.79a7.32,7.32,0,1,1,0,14.63H184.93A7.32,7.32,0,0,1,177.61,139.57Z"/><rect class="cls-5" x="189.4" y="144.29" width="28.85" height="40.14"/></g></g><g id="Layer_5" data-name="Layer 5"><g class="cls-6"><path class="cls-7" d="M152.67,178.11a58.68,58.68,0,0,1,46.73-87.37l16.28-16.28L197.91,56.69a92.73,92.73,0,0,0-75.51,137.07L131,170.21Z"/><path class="cls-8" d="M266.66,191.7l-7.87-21.64a58.71,58.71,0,0,1-106.12,8l-21.7-7.9-8.57,23.55a92.76,92.76,0,0,0,167.88-10.65Z"/><path class="cls-9" d="M199.39,90.74c1.45-.11,2.92-.18,4.39-.18a58.77,58.77,0,0,1,55,79.51l7.87,21.64,23.61-8.59A92.77,92.77,0,0,0,197.91,56.69l17.77,17.77Z"/></g></g><g id="Layer_4" data-name="Layer 4"><text class="cls-10" transform="translate(290.15 275.27)">Social Inclusion<tspan class="cls-11" x="0" y="21.59">T</tspan><tspan x="7.8" y="21.59">he</tspan><tspan class="cls-12" x="27.32" y="21.59">r</tspan><tspan x="32.74" y="21.59">a</tspan><tspan class="cls-13" x="41.76" y="21.59">p</tspan><tspan x="52.05" y="21.59">y</tspan></text><polyline class="cls-14" points="265.41 225.68 292.18 252.44 408.44 252.44"/></g><g id="Layer_3" data-name="Layer 3"><text class="cls-15" transform="translate(137.03 140.12) rotate(-73.87)">M</text><text class="cls-15" transform="translate(143.62 120.36) rotate(-61.39)">I</text><text class="cls-15" transform="translate(147.23 113.02) rotate(-50.19)">N</text><text class="cls-15" transform="matrix(0.82, -0.57, 0.57, 0.82, 158.93, 99.29)">D</text><text class="cls-16" transform="translate(240.08 92.8) rotate(39.14)">B</text><text class="cls-16" transform="matrix(0.59, 0.81, -0.81, 0.59, 252.82, 103.22)">O</text><text class="cls-16" transform="translate(263.43 118.29) rotate(69.44)">D</text><text class="cls-16" transform="translate(269.35 134.89) rotate(83.65)">Y</text><text class="cls-16" transform="matrix(0.92, 0.39, -0.39, 0.92, 165.62, 222.76)">F</text><text class="cls-16" transform="translate(181.09 228.8) rotate(11.66)">L</text><text class="cls-16" transform="translate(196.82 231.86) rotate(-1.07)">O</text><text class="cls-16" transform="matrix(0.95, -0.31, 0.31, 0.95, 218.7, 231.18)">W</text><text class="cls-17" transform="translate(291.57 14.59)">Health and <tspan class="cls-18" x="90.62" y="0">W</tspan><tspan x="105.75" y="0">ell-being</tspan><tspan x="0" y="21.59">Prog</tspan><tspan class="cls-12" x="35.85" y="21.59">r</tspan><tspan x="41.27" y="21.59">amme</tspan></text><polyline class="cls-19" points="266.83 71.9 293.6 45.13 463.37 45.13"/></g><g id="Layer_8" data-name="Layer 8"><text class="cls-20" transform="translate(5.5 14.59)">P<tspan class="cls-21" x="10.45" y="0">s</tspan><tspan class="cls-22" x="17.48" y="0">y</tspan><tspan class="cls-23" x="25.06" y="0">chologi</tspan><tspan class="cls-24" x="81.92" y="0">c</tspan><tspan x="90.23" y="0">al</tspan><tspan class="cls-11" x="30.84" y="21.59">T</tspan><tspan x="38.63" y="21.59">he</tspan><tspan class="cls-12" x="58.16" y="21.59">r</tspan><tspan x="63.58" y="21.59">apies</tspan></text><polyline class="cls-25" points="142.46 71.9 115.7 45.13 3.7 45.13"/></g></svg>