<svg xmlns="http://www.w3.org/2000/svg" xmlns:xlink="http://www.w3.org/1999/xlink" viewBox="0 0 470 304"><defs><style>.cls-1,.cls-11,.cls-12,.cls-13,.cls-2{fill:none;}.cls-2{clip-rule:evenodd;}.cls-3{clip-path:url(#clip-path);}.cls-4,.cls-5{fill:#49a5dc;}.cls-4{fill-rule:evenodd;}.cls-6{clip-path:url(#clip-path-2);}.cls-7{fill:#f7941d;}.cls-8{fill:#ec008c;}.cls-9{fill:#8dc63f;}.cls-10{fill:#fff;}.cls-11{stroke:#ec008c;}.cls-11,.cls-12,.cls-13{stroke-miterlimit:10;stroke-width:1.42px;}.cls-12{stroke:#8dc63f;}.cls-13{stroke:#f7941d;}</style><clipPath id="clip-path"><circle class="cls-1" cx="203.82" cy="149.31" r="58.51"/></clipPath><clipPath id="clip-path-2"><path class="cls-2" d="M203.82,58.51a90.81,90.81,0,1,0,90.81,90.81A90.81,90.81,0,0,0,203.82,58.51Zm0,151.8a61,61,0,1,1,61-61A61,61,0,0,1,203.82,210.31Z"/></clipPath></defs><title>mind-body-flow</title><g id="Layer_7" data-name="Layer 7"><g class="cls-3"><path class="cls-4" d="M192.51,116.08h0a11.32,11.32,0,1,1,11.32,11.32A11.32,11.32,0,0,1,192.51,116.08Z"/><path class="cls-4" d="M177.62,138.92h0a4.38,4.38,0,0,1,4.38-4.38h.69a4.38,4.38,0,0,1,4.38,4.38v41.15a4.38,4.38,0,0,1-4.38,4.38H182a4.38,4.38,0,0,1-4.38-4.38Z"/><path class="cls-4" d="M220.57,138.92h0a4.38,4.38,0,0,1,4.38-4.38h.69a4.38,4.38,0,0,1,4.38,4.38v41.15a4.38,4.38,0,0,1-4.38,4.38H225a4.38,4.38,0,0,1-4.38-4.38Z"/><path class="cls-4" d="M189.4,181.81h0a5.3,5.3,0,0,1,5.3-5.3h.84a5.3,5.3,0,0,1,5.3,5.3v55a5.3,5.3,0,0,1-5.3,5.3h-.84a5.3,5.3,0,0,1-5.3-5.3Z"/><path class="cls-4" d="M206.8,181.81h0a5.3,5.3,0,0,1,5.3-5.3h.84a5.3,5.3,0,0,1,5.3,5.3v55a5.3,5.3,0,0,1-5.3,5.3h-.84a5.3,5.3,0,0,1-5.3-5.3Z"/><path class="cls-4" d="M177.61,139.57h0a7.32,7.32,0,0,1,7.32-7.32h37.79a7.32,7.32,0,1,1,0,14.63H184.93A7.32,7.32,0,0,1,177.61,139.57Z"/><rect class="cls-5" x="189.4" y="144.29" width="28.85" height="40.14"/></g></g><g id="Layer_5" data-name="Layer 5"><g class="cls-6"><path class="cls-7" d="M152.67,178.11a58.68,58.68,0,0,1,46.73-87.37l16.28-16.28L197.91,56.69a92.73,92.73,0,0,0-75.51,137.07L131,170.21Z"/><path class="cls-8" d="M266.66,191.7l-7.87-21.64a58.71,58.71,0,0,1-106.12,8l-21.7-7.9-8.57,23.55a92.76,92.76,0,0,0,167.88-10.65Z"/><path class="cls-9" d="M199.39,90.74c1.45-.11,2.92-.18,4.39-.18a58.77,58.77,0,0,1,55,79.51l7.87,21.64,23.61-8.59A92.77,92.77,0,0,0,197.91,56.69l17.77,17.77Z"/></g><path class="cls-10" d="M124.21,130.8l10-1.64-7.56-6.69,1-3.6L142,123l-.84,2.91-9.66-2.79,7.1,6.18-.61,2.11-9.31,1.43,9.66,2.8-.85,2.93-14.33-4.15Z"/><path class="cls-10" d="M132.93,108.85,146,116l-1.61,3-13.09-7.15Z"/><path class="cls-10" d="M138.8,99.88l12,.58-7.36-6.14,2-2.45,11.45,9.55-2,2.36-12-.58,7.35,6.13-2.06,2.47-11.45-9.55Z"/><path class="cls-10" d="M167.62,84.15c2.51,3.6,1.59,8-2.27,10.67l-5.08,3.55-8.53-12.23,5.19-3.62C160.72,79.88,165.1,80.54,167.62,84.15Zm-2.8,2a4.4,4.4,0,0,0-6.33-1.25l-2.38,1.66,5.29,7.58,2.5-1.74A4.3,4.3,0,0,0,164.82,86.13Z"/><path class="cls-10" d="M257.85,92.84a3.3,3.3,0,0,1-4.07.92,3.64,3.64,0,0,1,0,4.89c-1.61,2-4.29,1.83-7-.34l-5.5-4.48,9.41-11.57,5.32,4.33C258.61,88.66,259.3,91.06,257.85,92.84Zm-6.46,3.28c.69-.84.34-2-.89-3l-2.58-2.1-2.23,2.74,2.58,2.1C249.48,96.91,250.66,97,251.38,96.13Zm3.4-5c.65-.79.43-1.74-.58-2.53l-2.58-2.1L249.57,89l2.58,2.1C253.14,92,254.12,92,254.78,91.15Z"/><path class="cls-10" d="M268.56,112.29a7.67,7.67,0,0,1-10.85-2c-2.67-3.7-2-8.41,1.48-10.95s8.15-1.63,10.82,2.07S272.06,109.76,268.56,112.29ZM261.2,102.1a4.64,4.64,0,0,0-1.09,6.46,4.64,4.64,0,1,0,1.09-6.46Z"/><path class="cls-10" d="M275.94,130.46c-4.11,1.54-8.13-.43-9.78-4.84L264,119.82l14-5.24,2.22,5.93C281.8,124.83,280.08,128.92,275.94,130.46Zm-1.23-3.2a4.4,4.4,0,0,0,2.78-5.82l-1-2.71L267.82,122l1.07,2.85A4.3,4.3,0,0,0,274.72,127.26Z"/><path class="cls-10" d="M275.08,143.11l-4.79.53-.37-3.35,4.7-.52,9.51-6.61.37,3.37-6.23,4.53,7.06,3,.37,3.37Z"/><path class="cls-10" d="M182.79,213.8l-1.1,2.56-6.76-2.84-1.42,3.38,6.21,2.61-1.09,2.59-6.21-2.61-2.19,5.2-3.1-1.3,5.78-13.75Z"/><path class="cls-10" d="M189,215.21l-2.42,11.72,6.26,1.29-.59,2.88-9.55-2,3-14.6Z"/><path class="cls-10" d="M213.28,224.09a7.67,7.67,0,0,1-7.87,7.75c-4.56.08-8.07-3.13-8.15-7.46s3.31-7.63,7.87-7.71S213.2,219.77,213.28,224.09Zm-12.57.23a4.64,4.64,0,0,0,4.69,4.58,4.64,4.64,0,1,0-4.69-4.58Z"/><path class="cls-10" d="M217.56,215.87l6.44,9.75L223.5,214l3.14-1,6.46,9.74-.5-11.66,3.29-1.06-.12,15.71-3.31,1.07-6.13-9.2.35,11.06-3.31,1.07L214.11,217Z"/></g><g id="Layer_4" data-name="Layer 4"><path class="cls-8" d="M294.15,266.34c-.83,0-1.39.3-1.39.89,0,2,5.83.89,5.81,4.83,0,2.14-1.86,3.3-4.28,3.3a7.68,7.68,0,0,1-4.83-1.73l1-2a6.48,6.48,0,0,0,3.88,1.64c1,0,1.63-.37,1.63-1,0-2.06-5.83-.86-5.83-4.73,0-2,1.7-3.23,4.23-3.23a7.82,7.82,0,0,1,4.16,1.19l-1,2A7.63,7.63,0,0,0,294.15,266.34Z"/><path class="cls-8" d="M308.55,271.07a4.51,4.51,0,1,1-4.5-4.28A4.17,4.17,0,0,1,308.55,271.07Zm-6.61,0a2.11,2.11,0,1,0,2.11-2.31A2.11,2.11,0,0,0,301.94,271.1Z"/><path class="cls-8" d="M313.83,268.84a2.28,2.28,0,0,0,0,4.53,2.18,2.18,0,0,0,2-1l1.66,1.13a4.13,4.13,0,0,1-3.73,1.86,4.29,4.29,0,1,1,0-8.58,4.18,4.18,0,0,1,3.64,1.77l-1.62,1.17A2.32,2.32,0,0,0,313.83,268.84Z"/><path class="cls-8" d="M321.35,266.87v8.41h-2.41v-8.41Zm0-2.39a1.17,1.17,0,1,1-1.17-1.2A1.15,1.15,0,0,1,321.32,264.48Z"/><path class="cls-8" d="M328.53,275.27v-1a3.23,3.23,0,0,1-2.64,1.09,2.6,2.6,0,0,1-2.89-2.62c0-1.58,1.14-2.52,3.2-2.53h2.31v-.16c0-.89-.59-1.41-1.75-1.41a5.32,5.32,0,0,0-2.5.73l-.75-1.66a7.88,7.88,0,0,1,3.8-1c2.25,0,3.55,1.13,3.56,3l0,5.48Zm0-2.87v-.75h-1.89c-.92,0-1.37.28-1.37,1s.5,1.06,1.31,1.06A1.86,1.86,0,0,0,328.52,272.4Z"/><path class="cls-8" d="M335.45,263.68v11.59H333V263.68Z"/><path class="cls-8" d="M345.06,264.34v10.94h-2.47V264.34Z"/><path class="cls-8" d="M355.83,270v5.28h-2.41V270.7a1.56,1.56,0,0,0-1.66-1.72,2,2,0,0,0-1.92,2.16v4.14h-2.41v-8.41h2.41v1.47a3.14,3.14,0,0,1,2.91-1.56A2.94,2.94,0,0,1,355.83,270Z"/><path class="cls-8" d="M361.59,268.84a2.28,2.28,0,0,0,0,4.53,2.18,2.18,0,0,0,2-1l1.66,1.13a4.13,4.13,0,0,1-3.73,1.86,4.29,4.29,0,1,1,0-8.58,4.18,4.18,0,0,1,3.64,1.77l-1.62,1.17A2.32,2.32,0,0,0,361.59,268.84Z"/><path class="cls-8" d="M369.18,263.68v11.59h-2.41V263.68Z"/><path class="cls-8" d="M379.57,266.87v8.41h-2.39v-1.48a3,3,0,0,1-2.81,1.58,2.91,2.91,0,0,1-3-3.22v-5.28h2.41v4.59a1.52,1.52,0,0,0,1.58,1.7,1.92,1.92,0,0,0,1.86-2.14v-4.16Z"/><path class="cls-8" d="M384.63,268.52c-.56,0-1,.19-1,.63,0,1.27,4.44.63,4.42,3.59,0,1.72-1.52,2.63-3.42,2.63A5.87,5.87,0,0,1,381,274.2l.78-1.62a5.07,5.07,0,0,0,2.92,1c.61,0,1.06-.2,1.06-.66,0-1.34-4.36-.62-4.36-3.58,0-1.73,1.48-2.62,3.31-2.62a6.27,6.27,0,0,1,3.28.94l-.83,1.64A5.69,5.69,0,0,0,384.63,268.52Z"/><path class="cls-8" d="M392.1,266.87v8.41h-2.41v-8.41Zm0-2.39a1.17,1.17,0,1,1-1.17-1.2A1.15,1.15,0,0,1,392.07,264.48Z"/><path class="cls-8" d="M402.71,271.07a4.51,4.51,0,1,1-4.5-4.28A4.17,4.17,0,0,1,402.71,271.07Zm-6.61,0a2.11,2.11,0,1,0,2.11-2.31A2.11,2.11,0,0,0,396.1,271.1Z"/><path class="cls-8" d="M412.69,270v5.28h-2.41V270.7a1.56,1.56,0,0,0-1.66-1.72,2,2,0,0,0-1.92,2.16v4.14H404.3v-8.41h2.41v1.47a3.14,3.14,0,0,1,2.91-1.56A2.94,2.94,0,0,1,412.69,270Z"/><path class="cls-8" d="M301.32,291.39a5.88,5.88,0,1,1-5.87-5.55A5.62,5.62,0,0,1,301.32,291.39Zm-9.22,0a3.4,3.4,0,0,0,3.38,3.42,3.41,3.41,0,1,0-3.37-3.42Z"/><path class="cls-8" d="M306.59,290.42a2.28,2.28,0,0,0,0,4.53,2.18,2.18,0,0,0,2-1l1.66,1.13a4.13,4.13,0,0,1-3.73,1.86,4.29,4.29,0,1,1,0-8.58,4.18,4.18,0,0,1,3.64,1.77l-1.62,1.17A2.32,2.32,0,0,0,306.59,290.42Z"/><path class="cls-8" d="M315.12,290.42a2.28,2.28,0,0,0,0,4.53,2.18,2.18,0,0,0,2-1l1.66,1.13A4.13,4.13,0,0,1,315,297a4.29,4.29,0,1,1,0-8.58,4.18,4.18,0,0,1,3.64,1.77L317,291.31A2.32,2.32,0,0,0,315.12,290.42Z"/><path class="cls-8" d="M328.21,288.46v8.41h-2.39v-1.48A3,3,0,0,1,323,297a2.91,2.91,0,0,1-3-3.22v-5.28h2.41V293a1.52,1.52,0,0,0,1.58,1.7,1.92,1.92,0,0,0,1.86-2.14v-4.16Z"/><path class="cls-8" d="M339.63,292.71c0,2.55-1.55,4.25-3.91,4.25a3.18,3.18,0,0,1-2.7-1.31v4.25h-2.41V288.46H333v1.23a3.11,3.11,0,0,1,2.66-1.31C338,288.38,339.63,290.11,339.63,292.71Zm-2.44-.08a2.1,2.1,0,1,0-2.08,2.33A2.11,2.11,0,0,0,337.19,292.63Z"/><path class="cls-8" d="M346.09,296.86v-1a3.23,3.23,0,0,1-2.64,1.09,2.6,2.6,0,0,1-2.89-2.62c0-1.58,1.14-2.52,3.2-2.53h2.31v-.16c0-.89-.59-1.41-1.75-1.41a5.32,5.32,0,0,0-2.5.73l-.75-1.66a7.88,7.88,0,0,1,3.8-1c2.25,0,3.55,1.13,3.56,3l0,5.48Zm0-2.87v-.75h-1.89c-.92,0-1.37.28-1.37,1s.5,1.06,1.31,1.06A1.86,1.86,0,0,0,346.08,294Z"/><path class="cls-8" d="M355.73,296.39a4.48,4.48,0,0,1-2.19.58,2.42,2.42,0,0,1-2.64-2.59v-3.89h-1.17v-1.66h1.17v-2.31h2.39v2.31h2.28v1.67H353.3V294c0,.7.3,1,.81,1a2.8,2.8,0,0,0,1.13-.31Z"/><path class="cls-8" d="M359.59,288.46v8.41h-2.41v-8.41Zm0-2.39a1.17,1.17,0,1,1-1.17-1.2A1.15,1.15,0,0,1,359.56,286.06Z"/><path class="cls-8" d="M370.2,292.66a4.51,4.51,0,1,1-4.5-4.28A4.17,4.17,0,0,1,370.2,292.66Zm-6.61,0a2.11,2.11,0,1,0,2.11-2.31A2.11,2.11,0,0,0,363.59,292.69Z"/><path class="cls-8" d="M380.18,291.58v5.28h-2.41v-4.58a1.56,1.56,0,0,0-1.66-1.72,2,2,0,0,0-1.92,2.16v4.14h-2.41v-8.41h2.41v1.47a3.14,3.14,0,0,1,2.91-1.56A2.94,2.94,0,0,1,380.18,291.58Z"/><path class="cls-8" d="M387.13,296.86v-1a3.23,3.23,0,0,1-2.64,1.09,2.6,2.6,0,0,1-2.89-2.62c0-1.58,1.14-2.52,3.2-2.53h2.31v-.16c0-.89-.59-1.41-1.75-1.41a5.32,5.32,0,0,0-2.5.73l-.75-1.66a7.88,7.88,0,0,1,3.8-1c2.25,0,3.55,1.13,3.56,3l0,5.48Zm0-2.87v-.75h-1.89c-.92,0-1.37.28-1.37,1s.5,1.06,1.31,1.06A1.86,1.86,0,0,0,387.12,294Z"/><path class="cls-8" d="M394.05,285.27v11.59h-2.41V285.27Z"/><path class="cls-8" d="M409.26,285.92V288h-3.34v8.84h-2.47V288h-3.33v-2.09Z"/><path class="cls-8" d="M418.3,291.58v5.28h-2.41v-4.58a1.56,1.56,0,0,0-1.66-1.72,2,2,0,0,0-1.94,2.16v4.14h-2.41V285.27h2.41v4.67a3.15,3.15,0,0,1,2.91-1.58A3,3,0,0,1,418.3,291.58Z"/><path class="cls-8" d="M428.1,293.39h-6a2.15,2.15,0,0,0,2.17,1.69,3,3,0,0,0,2.13-.89l1.27,1.28A4.69,4.69,0,0,1,424,297a4.29,4.29,0,1,1-.06-8.58C426.92,288.38,428.3,290.33,428.1,293.39ZM425.85,292a1.76,1.76,0,0,0-1.86-1.83,2,2,0,0,0-2,1.83Z"/><path class="cls-8" d="M434.88,288.36v2.27c-1.72-.16-2.78.77-2.78,2.19v4h-2.41v-8.41h2.41V290A3.06,3.06,0,0,1,434.88,288.36Z"/><path class="cls-8" d="M440.8,296.86v-1a3.23,3.23,0,0,1-2.64,1.09,2.6,2.6,0,0,1-2.89-2.62c0-1.58,1.14-2.52,3.2-2.53h2.31v-.16c0-.89-.59-1.41-1.75-1.41a5.32,5.32,0,0,0-2.5.73l-.75-1.66a7.88,7.88,0,0,1,3.8-1c2.25,0,3.55,1.13,3.56,3l0,5.48Zm0-2.87v-.75h-1.89c-.92,0-1.37.28-1.37,1s.5,1.06,1.31,1.06A1.86,1.86,0,0,0,440.78,294Z"/><path class="cls-8" d="M454.33,292.71c0,2.55-1.55,4.25-3.91,4.25a3.18,3.18,0,0,1-2.7-1.31v4.25h-2.41V288.46h2.41v1.23a3.11,3.11,0,0,1,2.66-1.31C452.73,288.38,454.33,290.11,454.33,292.71Zm-2.44-.08a2.1,2.1,0,1,0-2.08,2.33A2.11,2.11,0,0,0,451.89,292.63Z"/><path class="cls-8" d="M456.64,300a3.38,3.38,0,0,1-2.28-.81l1-1.73a1.63,1.63,0,0,0,1.09.45,1.17,1.17,0,0,0,1.11-.75l.23-.47-3.48-8.23h2.48l2.2,5.78,2-5.78h2.41l-3.69,9.34A3.12,3.12,0,0,1,456.64,300Z"/><polyline class="cls-11" points="265.41 225.68 292.18 252.44 463.37 252.44"/></g><g id="Layer_3" data-name="Layer 3"><path class="cls-9" d="M294.24,3.65V8.22h5V3.65h2.47V14.59H299.2V10.28h-5v4.31h-2.47V3.65Z"/><path class="cls-9" d="M311.76,11.12h-6a2.15,2.15,0,0,0,2.17,1.69,3,3,0,0,0,2.13-.89l1.27,1.28a4.69,4.69,0,0,1-3.59,1.48,4.07,4.07,0,0,1-4.39-4.27,4.1,4.1,0,0,1,4.33-4.31C310.58,6.11,312,8.06,311.76,11.12ZM309.51,9.7a1.76,1.76,0,0,0-1.86-1.83,2,2,0,0,0-2,1.83Z"/><path class="cls-9" d="M318.22,14.59v-1a3.23,3.23,0,0,1-2.64,1.09,2.6,2.6,0,0,1-2.89-2.62c0-1.58,1.14-2.52,3.2-2.53h2.31V9.39c0-.89-.59-1.41-1.75-1.41a5.32,5.32,0,0,0-2.5.73l-.75-1.66a7.88,7.88,0,0,1,3.8-1c2.25,0,3.55,1.13,3.56,3l0,5.48Zm0-2.87V11h-1.89c-.92,0-1.37.28-1.37,1s.5,1.06,1.31,1.06A1.86,1.86,0,0,0,318.21,11.72Z"/><path class="cls-9" d="M325.14,3V14.59h-2.41V3Z"/><path class="cls-9" d="M332.75,14.12a4.48,4.48,0,0,1-2.19.58,2.42,2.42,0,0,1-2.64-2.59V8.22h-1.17V6.56h1.17V4.25h2.39V6.56h2.28V8.23h-2.28V11.7c0,.7.3,1,.81,1a2.8,2.8,0,0,0,1.13-.31Z"/><path class="cls-9" d="M342.69,9.31v5.28h-2.41V10a1.56,1.56,0,0,0-1.66-1.72,2,2,0,0,0-1.94,2.16v4.14h-2.41V3h2.41V7.67a3.15,3.15,0,0,1,2.91-1.58A3,3,0,0,1,342.69,9.31Z"/><path class="cls-9" d="M354.31,14.59v-1a3.23,3.23,0,0,1-2.64,1.09,2.6,2.6,0,0,1-2.89-2.62c0-1.58,1.14-2.52,3.2-2.53h2.31V9.39c0-.89-.59-1.41-1.75-1.41a5.32,5.32,0,0,0-2.5.73l-.75-1.66a7.88,7.88,0,0,1,3.8-1c2.25,0,3.55,1.13,3.56,3l0,5.48Zm0-2.87V11H352.4c-.92,0-1.37.28-1.37,1s.5,1.06,1.31,1.06A1.86,1.86,0,0,0,354.29,11.72Z"/><path class="cls-9" d="M367.14,9.31v5.28h-2.41V10a1.56,1.56,0,0,0-1.66-1.72,2,2,0,0,0-1.92,2.16v4.14h-2.41V6.18h2.41V7.65a3.14,3.14,0,0,1,2.91-1.56A2.94,2.94,0,0,1,367.14,9.31Z"/><path class="cls-9" d="M377.51,3V14.59h-2.39V13.36a3.07,3.07,0,0,1-2.66,1.33c-2.39,0-4-1.73-4-4.33s1.56-4.27,3.91-4.27a3.16,3.16,0,0,1,2.72,1.33V3Zm-2.39,7.42A2.12,2.12,0,0,0,373,8.09a2.15,2.15,0,0,0-2.12,2.33,2.12,2.12,0,1,0,4.22,0Z"/><path class="cls-9" d="M386.1,3.65l2.3,8.25,2.28-8.25h2.42l2.31,8.25,2.28-8.25h2.53L396.6,14.59h-2.55l-2.2-7.8-2.25,7.8h-2.55L383.44,3.65Z"/><path class="cls-9" d="M408.05,11.12h-6a2.15,2.15,0,0,0,2.17,1.69,3,3,0,0,0,2.13-.89l1.27,1.28A4.69,4.69,0,0,1,404,14.68a4.07,4.07,0,0,1-4.39-4.27,4.1,4.1,0,0,1,4.33-4.31C406.88,6.11,408.25,8.06,408.05,11.12ZM405.8,9.7a1.76,1.76,0,0,0-1.86-1.83,2,2,0,0,0-2,1.83Z"/><path class="cls-9" d="M412.13,3V14.59h-2.41V3Z"/><path class="cls-9" d="M417,3V14.59h-2.41V3Z"/><path class="cls-9" d="M423.19,9v1.59h-4V9Z"/><path class="cls-9" d="M434.33,10.43c0,2.55-1.55,4.25-3.91,4.25a3.18,3.18,0,0,1-2.7-1.31v1.22h-2.41V3h2.41V7.42a3.11,3.11,0,0,1,2.66-1.31C432.73,6.11,434.33,7.84,434.33,10.43Zm-2.44-.08a2.1,2.1,0,1,0-4.17,0,2.1,2.1,0,1,0,4.17,0Z"/><path class="cls-9" d="M443.65,11.12h-6a2.15,2.15,0,0,0,2.17,1.69,3,3,0,0,0,2.13-.89l1.27,1.28a4.69,4.69,0,0,1-3.59,1.48,4.07,4.07,0,0,1-4.39-4.27,4.1,4.1,0,0,1,4.33-4.31C442.48,6.11,443.86,8.06,443.65,11.12ZM441.4,9.7a1.76,1.76,0,0,0-1.86-1.83,2,2,0,0,0-2,1.83Z"/><path class="cls-9" d="M447.65,6.18v8.41h-2.41V6.18Zm0-2.39a1.17,1.17,0,1,1-2.34,0,1.17,1.17,0,1,1,2.34,0Z"/><path class="cls-9" d="M458.35,9.31v5.28h-2.41V10a1.56,1.56,0,0,0-1.66-1.72,2,2,0,0,0-1.92,2.16v4.14H450V6.18h2.41V7.65a3.14,3.14,0,0,1,2.91-1.56A2.94,2.94,0,0,1,458.35,9.31Z"/><path class="cls-9" d="M468.3,6.18v7.62c0,2.39-1.8,3.91-4.48,3.91a6.54,6.54,0,0,1-3.66-1.11l.89-1.69a4.45,4.45,0,0,0,2.61.84c1.38,0,2.25-.73,2.25-1.87v-1a3,3,0,0,1-2.53,1.22c-2.17,0-3.67-1.62-3.67-4.06s1.47-4,3.61-4a3,3,0,0,1,2.59,1.22V6.18Zm-2.39,4a2,2,0,0,0-2-2.19,2,2,0,0,0-2,2.19,2,2,0,1,0,4,0Z"/><path class="cls-9" d="M300.79,29c0,2.55-1.59,4-4.37,4h-2.17v3.13h-2.47V25.24h4.64C299.2,25.24,300.79,26.62,300.79,29Zm-2.34.08c0-1.22-.78-1.83-2.16-1.83h-2V31h2C297.66,31,298.45,30.37,298.45,29.12Z"/><path class="cls-9" d="M307.51,27.68v2.27c-1.72-.16-2.78.77-2.78,2.19v4h-2.41V27.77h2.41v1.52A3.06,3.06,0,0,1,307.51,27.68Z"/><path class="cls-9" d="M317.11,32a4.51,4.51,0,1,1-4.5-4.28A4.17,4.17,0,0,1,317.11,32Zm-6.61,0a2.11,2.11,0,1,0,4.2,0,2.11,2.11,0,1,0-4.2,0Z"/><path class="cls-9" d="M326.58,27.77V35.4c0,2.39-1.8,3.91-4.48,3.91a6.54,6.54,0,0,1-3.66-1.11l.89-1.69a4.45,4.45,0,0,0,2.61.84c1.38,0,2.25-.73,2.25-1.87v-1a3,3,0,0,1-2.53,1.22c-2.17,0-3.67-1.62-3.67-4.06s1.47-4,3.61-4a3,3,0,0,1,2.59,1.22V27.77Zm-2.39,4a2,2,0,0,0-2-2.19,2,2,0,0,0-2,2.19,2,2,0,1,0,4,0Z"/><path class="cls-9" d="M334,27.68v2.27c-1.72-.16-2.78.77-2.78,2.19v4h-2.41V27.77h2.41v1.52A3.06,3.06,0,0,1,334,27.68Z"/><path class="cls-9" d="M339.89,36.18v-1a3.23,3.23,0,0,1-2.64,1.09,2.6,2.6,0,0,1-2.89-2.62c0-1.58,1.14-2.52,3.2-2.53h2.31V31c0-.89-.59-1.41-1.75-1.41a5.32,5.32,0,0,0-2.5.73l-.75-1.66a7.88,7.88,0,0,1,3.8-1c2.25,0,3.55,1.13,3.56,3l0,5.48Zm0-2.87v-.75H338c-.92,0-1.37.28-1.37,1s.5,1.06,1.31,1.06A1.86,1.86,0,0,0,339.87,33.3Z"/><path class="cls-9" d="M358.48,30.9v5.28h-2.39V31.6a1.55,1.55,0,0,0-1.62-1.72A1.92,1.92,0,0,0,352.61,32v4.16h-2.39V31.6a1.54,1.54,0,0,0-1.61-1.72A1.92,1.92,0,0,0,346.73,32v4.16h-2.41V27.77h2.41v1.45a3.11,3.11,0,0,1,2.84-1.55,2.79,2.79,0,0,1,2.84,1.94,3.07,3.07,0,0,1,3-1.94A2.92,2.92,0,0,1,358.48,30.9Z"/><path class="cls-9" d="M374.71,30.9v5.28h-2.39V31.6a1.55,1.55,0,0,0-1.62-1.72A1.92,1.92,0,0,0,368.84,32v4.16h-2.39V31.6a1.54,1.54,0,0,0-1.61-1.72A1.92,1.92,0,0,0,363,32v4.16h-2.41V27.77H363v1.45a3.11,3.11,0,0,1,2.84-1.55,2.79,2.79,0,0,1,2.84,1.94,3.07,3.07,0,0,1,3-1.94A2.92,2.92,0,0,1,374.71,30.9Z"/><path class="cls-9" d="M384.52,32.71h-6a2.15,2.15,0,0,0,2.17,1.69,3,3,0,0,0,2.13-.89l1.27,1.28a4.69,4.69,0,0,1-3.59,1.48A4.07,4.07,0,0,1,376.07,32a4.1,4.1,0,0,1,4.33-4.31C383.35,27.69,384.73,29.65,384.52,32.71Zm-2.25-1.42a1.76,1.76,0,0,0-1.86-1.83,2,2,0,0,0-2,1.83Z"/><polyline class="cls-12" points="266.83 71.9 293.6 45.13 463.37 45.13"/></g><g id="Layer_8" data-name="Layer 8"><path class="cls-7" d="M10.08,7.45c0,2.55-1.59,4-4.37,4H3.53v3.13H1.06V3.65H5.7C8.48,3.65,10.08,5,10.08,7.45Zm-2.34.08C7.73,6.31,7,5.7,5.58,5.7h-2V9.4h2C7,9.4,7.73,8.78,7.73,7.53Z"/><path class="cls-7" d="M14.34,7.84c-.56,0-1,.19-1,.63,0,1.27,4.44.63,4.42,3.59,0,1.72-1.52,2.63-3.42,2.63a5.87,5.87,0,0,1-3.64-1.17l.78-1.62a5.07,5.07,0,0,0,2.92,1c.61,0,1.06-.2,1.06-.66,0-1.34-4.36-.62-4.36-3.58,0-1.73,1.48-2.62,3.31-2.62A6.27,6.27,0,0,1,17.73,7L16.9,8.65A5.69,5.69,0,0,0,14.34,7.84Z"/><path class="cls-7" d="M20.29,17.73A3.38,3.38,0,0,1,18,16.92l1-1.73a1.63,1.63,0,0,0,1.09.45,1.17,1.17,0,0,0,1.11-.75l.23-.47L18,6.18h2.48L22.67,12l2-5.78h2.41l-3.69,9.34A3.12,3.12,0,0,1,20.29,17.73Z"/><path class="cls-7" d="M31.51,8.15a2,2,0,0,0-2,2.25,2.06,2.06,0,0,0,2,2.28,2.18,2.18,0,0,0,2-1l1.66,1.13a4.13,4.13,0,0,1-3.73,1.86,4.06,4.06,0,0,1-4.28-4.27,4.08,4.08,0,0,1,4.31-4.31,4.18,4.18,0,0,1,3.64,1.77L33.43,9A2.32,2.32,0,0,0,31.51,8.15Z"/><path class="cls-7" d="M45.1,9.31v5.28H42.7V10A1.56,1.56,0,0,0,41,8.29a2,2,0,0,0-1.94,2.16v4.14H36.7V3H39.1V7.67A3.15,3.15,0,0,1,42,6.09,3,3,0,0,1,45.1,9.31Z"/><path class="cls-7" d="M55.46,10.39a4.17,4.17,0,0,1-4.5,4.3,4.18,4.18,0,0,1-4.52-4.3A4.16,4.16,0,0,1,51,6.11,4.15,4.15,0,0,1,55.46,10.39Zm-6.61,0a2.11,2.11,0,1,0,4.2,0,2.11,2.11,0,1,0-4.2,0Z"/><path class="cls-7" d="M59.54,3V14.59H57.13V3Z"/><path class="cls-7" d="M70.24,10.39a4.17,4.17,0,0,1-4.5,4.3,4.18,4.18,0,0,1-4.52-4.3,4.16,4.16,0,0,1,4.52-4.28A4.15,4.15,0,0,1,70.24,10.39Zm-6.61,0a2.11,2.11,0,1,0,4.2,0,2.11,2.11,0,1,0-4.2,0Z"/><path class="cls-7" d="M79.71,6.18v7.62c0,2.39-1.8,3.91-4.48,3.91a6.54,6.54,0,0,1-3.66-1.11l.89-1.69a4.45,4.45,0,0,0,2.61.84c1.38,0,2.25-.73,2.25-1.87v-1a3,3,0,0,1-2.53,1.22c-2.17,0-3.67-1.62-3.67-4.06s1.47-4,3.61-4a3,3,0,0,1,2.59,1.22V6.18Zm-2.39,4a2,2,0,0,0-2-2.19,2,2,0,0,0-2,2.19,2,2,0,1,0,4,0Z"/><path class="cls-7" d="M84.31,6.18v8.41H81.91V6.18Zm0-2.39a1.17,1.17,0,1,1-2.34,0,1.17,1.17,0,1,1,2.34,0Z"/><path class="cls-7" d="M90.31,8.15a2,2,0,0,0-2,2.25,2.06,2.06,0,0,0,2,2.28,2.18,2.18,0,0,0,2-1l1.66,1.13a4.13,4.13,0,0,1-3.73,1.86,4.06,4.06,0,0,1-4.28-4.27,4.08,4.08,0,0,1,4.31-4.31,4.18,4.18,0,0,1,3.64,1.77L92.23,9A2.32,2.32,0,0,0,90.31,8.15Z"/><path class="cls-7" d="M100.08,14.59v-1a3.23,3.23,0,0,1-2.64,1.09,2.6,2.6,0,0,1-2.89-2.62c0-1.58,1.14-2.52,3.2-2.53h2.31V9.39c0-.89-.59-1.41-1.75-1.41a5.32,5.32,0,0,0-2.5.73l-.75-1.66a7.88,7.88,0,0,1,3.8-1c2.25,0,3.55,1.13,3.56,3l0,5.48Zm0-2.87V11H98.17c-.92,0-1.37.28-1.37,1S97.3,13,98.11,13A1.86,1.86,0,0,0,100.06,11.72Z"/><path class="cls-7" d="M107,3V14.59h-2.41V3Z"/><path class="cls-7" d="M9.12,25.24v2.09H5.78v8.84H3.31V27.33H0V25.24Z"/><path class="cls-7" d="M18.17,30.9v5.28H15.76V31.6a1.56,1.56,0,0,0-1.66-1.72A2,2,0,0,0,12.17,32v4.14H9.76V24.58h2.41v4.67a3.15,3.15,0,0,1,2.91-1.58A3,3,0,0,1,18.17,30.9Z"/><path class="cls-7" d="M28,32.71h-6a2.15,2.15,0,0,0,2.17,1.69,3,3,0,0,0,2.13-.89l1.27,1.28a4.69,4.69,0,0,1-3.59,1.48A4.07,4.07,0,0,1,19.51,32a4.1,4.1,0,0,1,4.33-4.31C26.79,27.69,28.17,29.65,28,32.71Zm-2.25-1.42a1.76,1.76,0,0,0-1.86-1.83,2,2,0,0,0-2,1.83Z"/><path class="cls-7" d="M34.74,27.68v2.27C33,29.79,32,30.71,32,32.13v4H29.56V27.77H32v1.52A3.06,3.06,0,0,1,34.74,27.68Z"/><path class="cls-7" d="M40.67,36.18v-1A3.23,3.23,0,0,1,38,36.29a2.6,2.6,0,0,1-2.89-2.62c0-1.58,1.14-2.52,3.2-2.53h2.31V31c0-.89-.59-1.41-1.75-1.41a5.32,5.32,0,0,0-2.5.73l-.75-1.66a7.88,7.88,0,0,1,3.8-1c2.25,0,3.55,1.13,3.56,3l0,5.48Zm0-2.87v-.75H38.76c-.92,0-1.37.28-1.37,1s.5,1.06,1.31,1.06A1.86,1.86,0,0,0,40.65,33.3Z"/><path class="cls-7" d="M54.2,32c0,2.55-1.55,4.25-3.91,4.25A3.18,3.18,0,0,1,47.59,35v4.25H45.18V27.77h2.41V29a3.11,3.11,0,0,1,2.66-1.31C52.6,27.69,54.2,29.43,54.2,32Zm-2.44-.08a2.1,2.1,0,1,0-4.17,0,2.1,2.1,0,1,0,4.17,0Z"/><path class="cls-7" d="M58.19,27.77v8.41H55.79V27.77Zm0-2.39A1.17,1.17,0,1,1,57,24.18,1.15,1.15,0,0,1,58.16,25.38Z"/><path class="cls-7" d="M68.24,32.71h-6a2.15,2.15,0,0,0,2.17,1.69,3,3,0,0,0,2.13-.89l1.27,1.28a4.69,4.69,0,0,1-3.59,1.48A4.07,4.07,0,0,1,59.79,32a4.1,4.1,0,0,1,4.33-4.31C67.07,27.69,68.44,29.65,68.24,32.71ZM66,31.29a1.76,1.76,0,0,0-1.86-1.83,2,2,0,0,0-2,1.83Z"/><path class="cls-7" d="M72.57,29.43c-.56,0-1,.19-1,.63,0,1.27,4.44.63,4.42,3.59,0,1.72-1.52,2.63-3.42,2.63A5.87,5.87,0,0,1,69,35.1l.78-1.62a5.07,5.07,0,0,0,2.92,1c.61,0,1.06-.2,1.06-.66,0-1.34-4.36-.62-4.36-3.58,0-1.73,1.48-2.62,3.31-2.62A6.27,6.27,0,0,1,76,28.6l-.83,1.64A5.69,5.69,0,0,0,72.57,29.43Z"/><polyline class="cls-13" points="142.46 71.9 115.7 45.13 1.7 45.13"/></g></svg>