<svg xmlns="http://www.w3.org/2000/svg" viewBox="0 0 320 700"><defs><style>.cls-1{fill:#fff;}.cls-13,.cls-14,.cls-2,.cls-5{fill:none;}.cls-11,.cls-3,.cls-4{fill:#54a7dd;}.cls-10,.cls-15,.cls-3,.cls-9{fill-rule:evenodd;}.cls-13,.cls-14,.cls-5{stroke:#54a7dd;}.cls-11,.cls-14,.cls-5{stroke-miterlimit:10;}.cls-5{stroke-width:2.02px;}.cls-6,.cls-9{fill:#f39200;}.cls-15,.cls-7{fill:#95c11f;}.cls-10,.cls-8{fill:#e6007e;}.cls-11{stroke:#fff;stroke-width:0.94px;}.cls-12{opacity:0.39;}.cls-13{stroke-linejoin:round;stroke-width:1.8px;}.cls-14{stroke-width:2.03px;}</style></defs><title>sharp-single-entry</title><g id="Layer_1" data-name="Layer 1"><circle class="cls-1" cx="160" cy="520" r="160"/><circle class="cls-2" cx="158.89" cy="552.46" r="35.41"/></g><g id="Layer_12" data-name="Layer 12"><path class="cls-3" d="M154.58,398.1h0a4.46,4.46,0,1,1,4.46,4.46A4.46,4.46,0,0,1,154.58,398.1Z"/><path class="cls-3" d="M148.71,407.1h0a1.73,1.73,0,0,1,1.73-1.73h.27a1.73,1.73,0,0,1,1.73,1.73v16.21a1.73,1.73,0,0,1-1.73,1.73h-.27a1.73,1.73,0,0,1-1.73-1.73Z"/><path class="cls-3" d="M165.63,407.1h0a1.73,1.73,0,0,1,1.73-1.73h.27a1.73,1.73,0,0,1,1.73,1.73v16.21a1.73,1.73,0,0,1-1.73,1.73h-.27a1.73,1.73,0,0,1-1.73-1.73Z"/><path class="cls-3" d="M153.35,424h0a2.09,2.09,0,0,1,2.09-2.09h.33a2.09,2.09,0,0,1,2.09,2.09v21.68a2.09,2.09,0,0,1-2.09,2.09h-.33a2.09,2.09,0,0,1-2.09-2.09Z"/><path class="cls-3" d="M160.21,424h0a2.09,2.09,0,0,1,2.09-2.09h.33a2.09,2.09,0,0,1,2.09,2.09v21.68a2.09,2.09,0,0,1-2.09,2.09h-.33a2.09,2.09,0,0,1-2.09-2.09Z"/><path class="cls-3" d="M148.71,407.36h0a2.88,2.88,0,0,1,2.88-2.88h14.89a2.88,2.88,0,0,1,0,5.76H151.59A2.88,2.88,0,0,1,148.71,407.36Z"/><rect class="cls-4" x="153.35" y="409.22" width="11.36" height="15.81"/></g><g id="Layer_11" data-name="Layer 11"><line class="cls-5" x1="158.89" y1="453.18" x2="158.89" y2="482.07"/><polygon class="cls-4" points="150.62 475.37 152.1 473.99 158.89 481.29 165.68 473.99 167.16 475.37 158.89 484.26 150.62 475.37"/></g><g id="Layer_10" data-name="Layer 10"><path class="cls-6" d="M101.42,634l2.24,4.71L105.9,634h1.94v7.7h-1.56v-5.19l-2,4.41H103.1l-2-4.41v5.19H99.48V634Z"/><path class="cls-6" d="M111.28,634v7.7h-1.74V634Z"/><path class="cls-6" d="M114.57,634l3.74,5v-5H120v7.7h-1.58l-3.73-4.94v4.94H113V634Z"/><path class="cls-6" d="M129,637.88a3.81,3.81,0,0,1-4.11,3.85h-3.2V634h3.27A3.77,3.77,0,0,1,129,637.88Zm-1.77,0a2.27,2.27,0,0,0-2.31-2.4h-1.5v4.78H125A2.22,2.22,0,0,0,127.2,637.89Z"/><path class="cls-6" d="M137.77,638.7h-1.88v1.86h-1.08V638.7h-1.88v-1.12h1.88v-1.87h1.08v1.87h1.88Z"/><path class="cls-7" d="M148.57,636a1.7,1.7,0,0,1-1.33,1.69,1.88,1.88,0,0,1,1.61,1.95c0,1.32-1.12,2.13-2.9,2.13h-3.66V634h3.54C147.51,634,148.57,634.77,148.57,636Zm-1.78.32c0-.53-.4-.84-1.06-.83H144v1.68h1.72C146.39,637.13,146.79,636.81,146.79,636.27Zm.26,3.1c0-.56-.51-.9-1.32-.89H144v1.83h1.72C146.54,640.31,147.05,640,147.05,639.38Z"/><path class="cls-7" d="M157.83,637.88a4.14,4.14,0,1,1-4.14-3.91A4,4,0,0,1,157.83,637.88Zm-6.49,0a2.39,2.39,0,0,0,2.38,2.41,2.4,2.4,0,1,0-2.38-2.41Z"/><path class="cls-7" d="M166.29,637.88a3.81,3.81,0,0,1-4.11,3.85H159V634h3.27A3.77,3.77,0,0,1,166.29,637.88Zm-1.77,0a2.27,2.27,0,0,0-2.31-2.4h-1.5v4.78h1.57A2.22,2.22,0,0,0,164.52,637.89Z"/><path class="cls-7" d="M171.12,639.24v2.49h-1.74v-2.44L166.53,634h1.75l2,3.45,1.92-3.45h1.75Z"/><path class="cls-7" d="M182.39,638.7h-1.88v1.86h-1.08V638.7h-1.88v-1.12h1.88v-1.87h1.08v1.87h1.88Z"/><path class="cls-8" d="M192.44,634v1.44h-3.79v1.89h3.48v1.45h-3.48v2.92H186.9V634Z"/><path class="cls-8" d="M195.19,634v6.18h3.3v1.52h-5V634Z"/><path class="cls-8" d="M207.24,637.88a4.14,4.14,0,1,1-4.14-3.91A4,4,0,0,1,207.24,637.88Zm-6.49,0a2.39,2.39,0,0,0,2.38,2.41,2.4,2.4,0,1,0-2.38-2.41Z"/><path class="cls-8" d="M209.3,634l1.62,5.81,1.61-5.81h1.71l1.63,5.81,1.61-5.81h1.78l-2.55,7.7H214.9l-1.55-5.49-1.58,5.49H210l-2.54-7.7Z"/><polygon class="cls-3" points="158.89 493.66 101.97 538.09 101.97 624.17 148.56 624.17 148.56 598.2 169.23 598.2 169.23 624.17 215.82 624.17 215.82 538.09 158.89 493.66"/></g><g id="Layer_9" data-name="Layer 9"><path class="cls-9" d="M135.11,552.46a23.76,23.76,0,0,1,23-23.74l5.45-5.45-6.18-6.18a35.4,35.4,0,0,0-29.84,51.73l3-8.21,7.23,2.63A23.65,23.65,0,0,1,135.11,552.46Z"/><path class="cls-7" d="M194.3,552.46A35.41,35.41,0,0,0,158.89,517c-.52,0-1,0-1.56,0l6.18,6.18-5.45,5.45c.28,0,.55,0,.82,0a23.79,23.79,0,0,1,21.88,33.11l2.62,7.2,8.22-3A35.29,35.29,0,0,0,194.3,552.46Z"/><path class="cls-10" d="M127.49,568.82A35.41,35.41,0,0,0,191.61,566l-8.22,3-2.62-7.2a23.77,23.77,0,0,1-43.06,1.45l-7.23-2.63Z"/><circle class="cls-11" cx="158.89" cy="552.46" r="23.78"/><path class="cls-1" d="M159.3,548.9l-3.73,7H157l.74-1.4h3.2l.49,1.4h1.4l-2.5-7Zm-1,4.47,1.33-2.52.87,2.52Z"/><path class="cls-1" d="M146.4,550.24A1,1,0,0,1,147,550a1.67,1.67,0,0,1,.71.14,1.58,1.58,0,0,1,.52.39l1-1a2.44,2.44,0,0,0-.87-.61,3.26,3.26,0,0,0-1.26-.21,2.47,2.47,0,0,0-.86.15,2.39,2.39,0,0,0-.72.42,2.19,2.19,0,0,0-.52.64,2.1,2.1,0,0,0-.24.82,1.88,1.88,0,0,0,.08.81,1.75,1.75,0,0,0,.35.59,2.15,2.15,0,0,0,.55.43,5.6,5.6,0,0,0,.67.32q.4.16.65.28a1.81,1.81,0,0,1,.39.25.63.63,0,0,1,.18.25.7.7,0,0,1,0,.3.64.64,0,0,1-.1.29.82.82,0,0,1-.21.23,1.08,1.08,0,0,1-.64.21,2.2,2.2,0,0,1-.81-.14,2.3,2.3,0,0,1-.73-.49l-1,1a4.77,4.77,0,0,0,.53.43,2.69,2.69,0,0,0,.55.29,2.93,2.93,0,0,0,.63.17,5,5,0,0,0,.77.05,2.4,2.4,0,0,0,.89-.16,2.48,2.48,0,0,0,.72-.43,2.25,2.25,0,0,0,.5-.63,1.91,1.91,0,0,0,.23-.75,2.31,2.31,0,0,0,0-.74,1.57,1.57,0,0,0-.28-.59,2.12,2.12,0,0,0-.53-.48,4.37,4.37,0,0,0-.81-.4q-.37-.15-.62-.28a2,2,0,0,1-.39-.25.69.69,0,0,1-.2-.26.64.64,0,0,1,0-.3.66.66,0,0,1,.1-.28A.9.9,0,0,1,146.4,550.24Z"/><path class="cls-1" d="M174.14,550.33a2.09,2.09,0,0,0-.42-.74,2,2,0,0,0-.67-.49,2.06,2.06,0,0,0-.86-.18h-2.37l-.61,7h1.28l.2-2.28h1.09a2.29,2.29,0,0,0,.89-.18,2.48,2.48,0,0,0,.76-.5,2.69,2.69,0,0,0,.55-.75,2.58,2.58,0,0,0,.26-.93A2.31,2.31,0,0,0,174.14,550.33Zm-1.32,1.42a1.58,1.58,0,0,1-.3.42,1.44,1.44,0,0,1-.41.29,1.13,1.13,0,0,1-.49.11h-.85l.23-2.64h.85a1,1,0,0,1,.47.11,1.12,1.12,0,0,1,.36.28,1.17,1.17,0,0,1,.22.41,1.31,1.31,0,0,1,0,.51A1.46,1.46,0,0,1,172.82,551.75Z"/><polygon class="cls-1" points="154.01 551.68 151.41 551.68 151.66 548.91 150.38 548.91 149.76 555.9 151.04 555.9 151.31 552.8 153.91 552.8 153.64 555.9 154.91 555.9 155.53 548.91 154.25 548.91 154.01 551.68"/><path class="cls-1" d="M168,552a2.29,2.29,0,0,0,.3-.53,2.09,2.09,0,0,0,.14-.59,2,2,0,0,0-.08-.8,1.75,1.75,0,0,0-.35-.64,1.67,1.67,0,0,0-.59-.42,1.89,1.89,0,0,0-.77-.15h-2.6l-.61,7h1.26l.24-2.78h.48a1.32,1.32,0,0,1,.51.09,1,1,0,0,1,.35.25,1.32,1.32,0,0,1,.23.38,2.43,2.43,0,0,1,.14.48l.33,1.59h1.41a2.26,2.26,0,0,1-.14-.36q-.06-.21-.13-.49l-.1-.42-.08-.35-.08-.31q0-.15-.08-.3a1.59,1.59,0,0,0-.26-.56,1.12,1.12,0,0,0-.48-.35,1.79,1.79,0,0,0,.52-.28A2.32,2.32,0,0,0,168,552Zm-1-.59a1.16,1.16,0,0,1-.26.34,1.13,1.13,0,0,1-.37.21,1.29,1.29,0,0,1-.44.07h-.92l.19-2.18h.92a1.06,1.06,0,0,1,.43.08.94.94,0,0,1,.33.23,1,1,0,0,1,.2.35,1.07,1.07,0,0,1,0,.45A1.15,1.15,0,0,1,167.05,551.45Z"/></g><g id="Layer_8" data-name="Layer 8"><g class="cls-12"><line class="cls-13" x1="160" y1="330.87" x2="160" y2="347.17"/><polygon class="cls-4" points="152.63 341.19 153.95 339.96 160 346.48 166.05 339.96 167.37 341.19 160 349.13 152.63 341.19"/></g></g><g id="Layer_13" data-name="Layer 13"><circle class="cls-1" cx="160.21" cy="159.98" r="160.21"/></g><g id="Layer_7" data-name="Layer 7"><circle class="cls-4" cx="191.89" cy="37.71" r="11.65"/><circle class="cls-4" cx="197.11" cy="43.21" r="9.43"/><circle class="cls-4" cx="204.58" cy="36.72" r="14.67"/><path class="cls-1" d="M200.32,31.68c2.3,0,3.78,1.1,3.78,3.1,0,2.77-2.79,3-2.79,5.28h-2.09c0-2.83,2.32-2.93,2.32-4.83,0-.86-.56-1.26-1.48-1.26s-1.55.56-1.6,1.69l-2.14,0A3.7,3.7,0,0,1,200.32,31.68ZM201.62,43a1.39,1.39,0,1,1-2.77,0,1.39,1.39,0,1,1,2.77,0Z"/><circle class="cls-4" cx="177.02" cy="45.78" r="2.77"/><circle class="cls-4" cx="171.33" cy="47.71" r="1.93"/><circle class="cls-4" cx="167.12" cy="50.26" r="1.37"/></g><g id="Layer_6" data-name="Layer 6"><path class="cls-3" d="M150.79,56.18h0a4.46,4.46,0,1,1,4.46,4.46A4.46,4.46,0,0,1,150.79,56.18Z"/><path class="cls-3" d="M144.92,65.19h0a1.73,1.73,0,0,1,1.73-1.73h.27a1.73,1.73,0,0,1,1.73,1.73V81.42a1.73,1.73,0,0,1-1.73,1.73h-.27a1.73,1.73,0,0,1-1.73-1.73Z"/><path class="cls-3" d="M161.86,65.19h0a1.73,1.73,0,0,1,1.73-1.73h.27a1.73,1.73,0,0,1,1.73,1.73V81.42a1.73,1.73,0,0,1-1.73,1.73h-.27a1.73,1.73,0,0,1-1.73-1.73Z"/><path class="cls-3" d="M149.56,82.1h0A2.09,2.09,0,0,1,151.65,80H152a2.09,2.09,0,0,1,2.09,2.09v21.71A2.09,2.09,0,0,1,152,105.9h-.33a2.09,2.09,0,0,1-2.09-2.09Z"/><path class="cls-3" d="M156.43,82.1h0A2.09,2.09,0,0,1,158.52,80h.33a2.09,2.09,0,0,1,2.09,2.09v21.71a2.09,2.09,0,0,1-2.09,2.09h-.33a2.09,2.09,0,0,1-2.09-2.09Z"/><path class="cls-3" d="M144.91,65.45h0a2.89,2.89,0,0,1,2.89-2.89h14.9a2.89,2.89,0,1,1,0,5.77H147.8A2.89,2.89,0,0,1,144.91,65.45Z"/><rect class="cls-4" x="149.56" y="67.31" width="11.38" height="15.83"/></g><g id="Layer_5" data-name="Layer 5"><path class="cls-14" d="M146.15,113.8c-4.27,29-20.51,40.45-49.44,45.71"/><polygon class="cls-4" points="101.69 150.04 103.34 151.23 97.47 159.31 105.96 164.57 104.89 166.29 94.55 159.88 101.69 150.04"/><path class="cls-14" d="M163.15,113.8c4.27,29,20.51,40.45,49.44,45.71"/><polygon class="cls-4" points="204.42 166.3 203.35 164.58 211.83 159.31 205.97 151.23 207.61 150.04 214.75 159.89 204.42 166.3"/><line class="cls-14" x1="155.11" y1="113.8" x2="155.11" y2="174.73"/><polygon class="cls-4" points="146.83 168.02 148.31 166.64 155.11 173.95 161.91 166.64 163.39 168.02 155.11 176.93 146.83 168.02"/></g><g id="Layer_4" data-name="Layer 4"><path class="cls-8" d="M236.63,192.13v1.44h-3.79v1.89h3.48v1.45h-3.48v2.92h-1.74v-7.7Z"/><path class="cls-8" d="M239.37,192.13v6.18h3.3v1.52h-5v-7.7Z"/><path class="cls-8" d="M251.43,196a4.14,4.14,0,1,1-4.14-3.91A4,4,0,0,1,251.43,196Zm-6.49,0a2.39,2.39,0,0,0,2.38,2.41,2.4,2.4,0,1,0-2.38-2.41Z"/><path class="cls-8" d="M253.49,192.13l1.62,5.81,1.61-5.81h1.71l1.63,5.81,1.61-5.81h1.78l-2.55,7.7h-1.79l-1.55-5.49L256,199.83h-1.79l-2.54-7.7Z"/><path class="cls-8" d="M208.17,208c-1,0-1.64.4-1.64,1.06,0,2,4.33,1,4.32,3.75,0,1.28-1.13,2.1-2.78,2.1a4.39,4.39,0,0,1-2.95-1.18l.4-.76a3.87,3.87,0,0,0,2.56,1.08c1.11,0,1.8-.45,1.8-1.2,0-2.06-4.32-1-4.32-3.73,0-1.21,1.07-2,2.66-2a4.55,4.55,0,0,1,2.44.72l-.37.78A4.06,4.06,0,0,0,208.17,208Z"/><path class="cls-8" d="M217.83,211.93a2.94,2.94,0,1,1-2.94-2.92A2.82,2.82,0,0,1,217.83,211.93Zm-5,0a2.08,2.08,0,1,0,2.08-2.17A2,2,0,0,0,212.82,211.94Z"/><path class="cls-8" d="M221.66,209.78a2.16,2.16,0,0,0,0,4.32,2.26,2.26,0,0,0,1.79-.75l.5.51a2.91,2.91,0,0,1-2.32,1,2.93,2.93,0,0,1,0-5.85,3.05,3.05,0,0,1,2.23.86l-.47.59A2.41,2.41,0,0,0,221.66,209.78Z"/><path class="cls-8" d="M226.49,207.38a.56.56,0,1,1-1.12,0,.56.56,0,1,1,1.12,0Zm-.13,1.66v5.79h-.85V209Z"/><path class="cls-8" d="M232,214.83v-.9a2.5,2.5,0,0,1-2.12.94,1.79,1.79,0,0,1-2-1.75c0-1,.8-1.65,2.17-1.66H232v-.36c0-.85-.53-1.36-1.55-1.36a3.15,3.15,0,0,0-1.84.67l-.36-.61a3.89,3.89,0,0,1,2.37-.78c1.43,0,2.22.76,2.23,2v3.83Zm0-2v-.7h-1.8c-1,0-1.47.3-1.47.95s.52,1.07,1.33,1.07A1.86,1.86,0,0,0,232,212.84Z"/><path class="cls-8" d="M235.71,206.67v8.16h-.86v-8.16Z"/><path class="cls-8" d="M242.15,207.13v7.7h-.88v-7.7Z"/><path class="cls-8" d="M249.66,211.27v3.56h-.86v-3.34a1.51,1.51,0,0,0-1.64-1.65,1.9,1.9,0,0,0-1.95,1.89v3.1h-.86V209h.86v1.28a2.29,2.29,0,0,1,2.24-1.31A2,2,0,0,1,249.66,211.27Z"/><path class="cls-8" d="M253.9,209.78a2.16,2.16,0,0,0,0,4.32,2.26,2.26,0,0,0,1.79-.75l.5.51a2.91,2.91,0,0,1-2.32,1,2.93,2.93,0,0,1,0-5.85,3.05,3.05,0,0,1,2.23.86l-.47.59A2.41,2.41,0,0,0,253.9,209.78Z"/><path class="cls-8" d="M258.66,206.67v8.16h-.86v-8.16Z"/><path class="cls-8" d="M265.83,209v5.79H265v-1.31a2.21,2.21,0,0,1-2.2,1.34,2,2,0,0,1-2.17-2.26V209h.86v3.34a1.5,1.5,0,0,0,1.61,1.65,1.93,1.93,0,0,0,1.9-2.16V209Z"/><path class="cls-8" d="M269.41,209.73c-.65,0-1.14.23-1.14.78,0,1.31,3.24.64,3.24,2.72,0,1.13-1,1.64-2.12,1.64a3.27,3.27,0,0,1-2.22-.81l.33-.63a2.94,2.94,0,0,0,1.92.74c.68,0,1.23-.26,1.24-.85,0-1.41-3.21-.69-3.2-2.74,0-1.1,1-1.57,2-1.57a3.44,3.44,0,0,1,1.85.53l-.33.66A3.05,3.05,0,0,0,269.41,209.73Z"/><path class="cls-8" d="M273.88,207.38a.56.56,0,1,1-1.12,0,.56.56,0,1,1,1.12,0Zm-.13,1.66v5.79h-.85V209Z"/><path class="cls-8" d="M281.13,211.93A2.94,2.94,0,1,1,278.2,209,2.82,2.82,0,0,1,281.13,211.93Zm-5,0a2.08,2.08,0,1,0,2.08-2.17A2,2,0,0,0,276.12,211.94Z"/><path class="cls-8" d="M287.94,211.27v3.56h-.86v-3.34a1.51,1.51,0,0,0-1.64-1.65,1.9,1.9,0,0,0-1.95,1.89v3.1h-.86V209h.86v1.28a2.29,2.29,0,0,1,2.24-1.31A2,2,0,0,1,287.94,211.27Z"/><path class="cls-8" d="M201.34,226a3.64,3.64,0,1,1-3.62-3.87A3.74,3.74,0,0,1,201.34,226Zm-6.46,0a2.83,2.83,0,1,0,5.64,0,2.83,2.83,0,1,0-5.64,0Z"/><path class="cls-8" d="M204.76,224.78a2.16,2.16,0,1,0,1.61,3.58l.45.51a2.51,2.51,0,0,1-2.09,1,2.95,2.95,0,0,1,0-5.85,2.6,2.6,0,0,1,2,.86l-.43.59A2.06,2.06,0,0,0,204.76,224.78Z"/><path class="cls-8" d="M210.07,224.78a2.16,2.16,0,1,0,1.61,3.58l.45.51a2.51,2.51,0,0,1-2.09,1,2.95,2.95,0,0,1,0-5.85,2.6,2.6,0,0,1,2,.86l-.43.59A2.06,2.06,0,0,0,210.07,224.78Z"/><path class="cls-8" d="M218.06,224v5.79h-.77v-1.31a2,2,0,0,1-2,1.34c-1.22,0-2-.86-2-2.26V224h.77v3.34c0,1,.54,1.65,1.45,1.65,1.08,0,1.71-.9,1.71-2.16V224Z"/><path class="cls-8" d="M225.27,226.95c0,1.72-1,2.92-2.49,2.92a2.16,2.16,0,0,1-2-1.28V232H220V224h.77v1.24a2.15,2.15,0,0,1,2-1.28C224.24,224,225.27,225.22,225.27,226.95Zm-.78,0a1.89,1.89,0,1,0-1.86,2.18A2,2,0,0,0,224.49,226.93Z"/><path class="cls-8" d="M229.87,229.83v-.9a2.16,2.16,0,0,1-1.91.94,1.69,1.69,0,0,1-1.77-1.75c0-1,.72-1.65,2-1.66h1.71v-.36a1.25,1.25,0,0,0-1.4-1.36,2.67,2.67,0,0,0-1.65.67l-.33-.61a3.28,3.28,0,0,1,2.13-.78,1.84,1.84,0,0,1,2,2v3.83Zm0-2v-.7h-1.62c-.87,0-1.33.3-1.33.95a1.07,1.07,0,0,0,1.2,1.07A1.69,1.69,0,0,0,229.86,227.84Z"/><path class="cls-8" d="M235,229.43a2,2,0,0,1-1.18.43c-.76,0-1.33-.5-1.33-1.64v-3.33h-.75v-.67h.75V222.7h.76v1.52h1.65v.67h-1.65v3.19c0,.7.25,1,.69,1a1.67,1.67,0,0,0,.83-.3Z"/><path class="cls-8" d="M237.08,222.38a.51.51,0,1,1-1,0,.51.51,0,1,1,1,0ZM237,224v5.79h-.76V224Z"/><path class="cls-8" d="M243.61,226.93A2.66,2.66,0,1,1,241,224,2.69,2.69,0,0,1,243.61,226.93Zm-4.52,0a1.89,1.89,0,1,0,1.87-2.17A1.95,1.95,0,0,0,239.09,226.94Z"/><path class="cls-8" d="M249.74,226.27v3.56H249v-3.34c0-1-.55-1.65-1.48-1.65a1.8,1.8,0,0,0-1.75,1.89v3.1H245V224h.77v1.28a2,2,0,0,1,2-1.31C249,224,249.74,224.86,249.74,226.27Z"/><path class="cls-8" d="M254.7,229.83v-.9a2.16,2.16,0,0,1-1.91.94,1.69,1.69,0,0,1-1.77-1.75c0-1,.72-1.65,2-1.66h1.71v-.36a1.25,1.25,0,0,0-1.4-1.36,2.67,2.67,0,0,0-1.65.67l-.33-.61a3.28,3.28,0,0,1,2.13-.78,1.84,1.84,0,0,1,2,2v3.83Zm0-2v-.7h-1.62c-.87,0-1.33.3-1.33.95a1.07,1.07,0,0,0,1.2,1.07A1.69,1.69,0,0,0,254.69,227.84Z"/><path class="cls-8" d="M258,221.67v8.16h-.77v-8.16Z"/><path class="cls-8" d="M267.38,222.13v.81h-2.27v6.89h-.79v-6.89h-2.26v-.81Z"/><path class="cls-8" d="M272.66,226.27v3.56h-.77v-3.34c0-1-.55-1.65-1.48-1.65-1.11,0-1.76.89-1.76,2.16v2.84h-.77v-8.16h.77v3.67a2,2,0,0,1,2-1.33C271.93,224,272.66,224.86,272.66,226.27Z"/><path class="cls-8" d="M278.88,227.26h-4.26a1.93,1.93,0,0,0,1.89,1.89,2.09,2.09,0,0,0,1.61-.74l.43.5a2.81,2.81,0,1,1-2.11-4.9C278.13,224,279,225.3,278.88,227.26Zm-.69-.68a1.73,1.73,0,0,0-1.74-1.85,1.84,1.84,0,0,0-1.82,1.85Z"/><path class="cls-8" d="M282.85,224v.84a1.82,1.82,0,0,0-1.87,1.9v3.08h-.77V224H281v1.29A2,2,0,0,1,282.85,224Z"/><path class="cls-8" d="M286.88,229.83v-.9a2.16,2.16,0,0,1-1.91.94,1.69,1.69,0,0,1-1.77-1.75c0-1,.72-1.65,2-1.66h1.71v-.36a1.25,1.25,0,0,0-1.4-1.36,2.67,2.67,0,0,0-1.65.67l-.33-.61a3.28,3.28,0,0,1,2.13-.78,1.84,1.84,0,0,1,2,2v3.83Zm0-2v-.7h-1.62c-.87,0-1.33.3-1.33.95a1.07,1.07,0,0,0,1.2,1.07A1.69,1.69,0,0,0,286.87,227.84Z"/><path class="cls-8" d="M294.69,226.95c0,1.72-1,2.92-2.49,2.92a2.16,2.16,0,0,1-2-1.28V232h-.77V224h.77v1.24a2.15,2.15,0,0,1,2-1.28C293.66,224,294.69,225.22,294.69,226.95Zm-.78,0A1.89,1.89,0,1,0,292,229.1,2,2,0,0,0,293.91,226.93Z"/><path class="cls-8" d="M296,232a1.55,1.55,0,0,1-1.1-.42l.33-.68a1.16,1.16,0,0,0,.73.27c.41,0,.74-.29,1-.84l.22-.55L294.95,224h.81l1.73,4.82,1.65-4.82h.79l-2.4,6.61C297.21,231.54,296.67,232,296,232Z"/><polygon class="cls-10" points="246.79 136.09 226.03 152.29 226.03 183.68 241.2 183.68 241.2 170.58 252.38 170.58 252.38 183.68 267.55 183.68 267.55 152.29 246.79 136.09"/></g><g id="Layer_3" data-name="Layer 3"><path class="cls-7" d="M146,242a1.7,1.7,0,0,1-1.33,1.69,1.88,1.88,0,0,1,1.61,1.95c0,1.32-1.12,2.13-2.9,2.13h-3.66v-7.7h3.54C145,240.06,146,240.79,146,242Zm-1.78.32c0-.53-.4-.84-1.06-.83h-1.72v1.68h1.72C143.84,243.16,144.24,242.84,144.24,242.3Zm.26,3.1c0-.56-.51-.9-1.32-.89h-1.72v1.83h1.72C144,246.34,144.5,246,144.5,245.4Z"/><path class="cls-7" d="M155.28,243.91a4.14,4.14,0,1,1-4.14-3.91A4,4,0,0,1,155.28,243.91Zm-6.49,0a2.39,2.39,0,0,0,2.38,2.41,2.4,2.4,0,1,0-2.38-2.41Z"/><path class="cls-7" d="M163.74,243.91a3.81,3.81,0,0,1-4.12,3.85h-3.2v-7.7h3.27A3.78,3.78,0,0,1,163.74,243.91Zm-1.77,0a2.27,2.27,0,0,0-2.31-2.4h-1.5v4.78h1.57A2.22,2.22,0,0,0,162,243.92Z"/><path class="cls-7" d="M168.57,245.27v2.49h-1.74v-2.44L164,240.06h1.75l2,3.45,1.92-3.45h1.75Z"/><path class="cls-7" d="M96.11,255.06v3.49h4.64v-3.49h.88v7.7h-.88v-3.41H96.11v3.41h-.88v-7.7Z"/><path class="cls-7" d="M108.83,260.18H104.1a2,2,0,0,0,2.1,1.89,2.43,2.43,0,0,0,1.79-.74l.47.5a3.08,3.08,0,0,1-2.33,1,2.93,2.93,0,0,1,0-5.85C108,256.94,108.92,258.23,108.83,260.18Zm-.77-.68a1.83,1.83,0,0,0-1.94-1.85,2,2,0,0,0-2,1.85Z"/><path class="cls-7" d="M113.9,262.76v-.9a2.5,2.5,0,0,1-2.12.94,1.79,1.79,0,0,1-2-1.75c0-1,.8-1.65,2.17-1.66h1.9V259c0-.85-.53-1.36-1.55-1.36a3.15,3.15,0,0,0-1.84.67l-.36-.61a3.89,3.89,0,0,1,2.37-.78c1.43,0,2.22.76,2.23,2v3.83Zm0-2v-.7h-1.8c-1,0-1.47.3-1.47.95s.52,1.07,1.33,1.07A1.86,1.86,0,0,0,113.89,260.77Z"/><path class="cls-7" d="M117.57,254.59v8.16h-.86v-8.16Z"/><path class="cls-7" d="M122.71,262.36a2.32,2.32,0,0,1-1.31.43c-.85,0-1.47-.5-1.47-1.64v-3.33h-.84v-.67h.84v-1.52h.85v1.52h1.84v.67h-1.84V261c0,.7.28,1,.77,1a2,2,0,0,0,.92-.3Z"/><path class="cls-7" d="M129.37,259.19v3.56h-.86v-3.34a1.51,1.51,0,0,0-1.64-1.65,1.94,1.94,0,0,0-2,2.16v2.84h-.86v-8.16h.86v3.67a2.27,2.27,0,0,1,2.25-1.33A2,2,0,0,1,129.37,259.19Z"/><path class="cls-7" d="M138.18,262.76v-.9a2.5,2.5,0,0,1-2.12.94,1.79,1.79,0,0,1-2-1.75c0-1,.8-1.65,2.17-1.66h1.9V259c0-.85-.53-1.36-1.55-1.36a3.15,3.15,0,0,0-1.84.67l-.36-.61a3.89,3.89,0,0,1,2.37-.78c1.43,0,2.22.76,2.23,2v3.83Zm0-2v-.7h-1.8c-1,0-1.47.3-1.47.95s.52,1.07,1.33,1.07A1.86,1.86,0,0,0,138.17,260.77Z"/><path class="cls-7" d="M146.23,259.19v3.56h-.86v-3.34a1.51,1.51,0,0,0-1.64-1.65,1.9,1.9,0,0,0-1.95,1.89v3.1h-.86V257h.86v1.28a2.29,2.29,0,0,1,2.24-1.31A2,2,0,0,1,146.23,259.19Z"/><path class="cls-7" d="M153.47,254.59v8.16h-.86v-1.24a2.42,2.42,0,0,1-2.26,1.29,2.94,2.94,0,0,1,0-5.87,2.43,2.43,0,0,1,2.27,1.3v-3.63Zm-.86,5.28a2.1,2.1,0,1,0-2.09,2.19A2.07,2.07,0,0,0,152.61,259.88Z"/><path class="cls-7" d="M158.88,255.06l2.11,6.71,2.09-6.71H164l2.11,6.71,2.09-6.71h.91l-2.58,7.7h-.9l-2.08-6.52-2.1,6.52h-.9l-2.57-7.7Z"/><path class="cls-7" d="M174.56,260.18h-4.73a2,2,0,0,0,2.1,1.89,2.43,2.43,0,0,0,1.79-.74l.47.5a3.08,3.08,0,0,1-2.33,1,2.93,2.93,0,0,1,0-5.85C173.72,256.94,174.65,258.23,174.56,260.18Zm-.77-.68a1.83,1.83,0,0,0-1.94-1.85,2,2,0,0,0-2,1.85Z"/><path class="cls-7" d="M176.94,254.59v8.16h-.86v-8.16Z"/><path class="cls-7" d="M180,254.59v8.16h-.86v-8.16Z"/><path class="cls-7" d="M184.39,259.12v.63h-2.58v-.63Z"/><path class="cls-7" d="M192.08,259.88a2.71,2.71,0,0,1-2.76,2.92,2.43,2.43,0,0,1-2.26-1.28v1.24h-.86v-8.16h.86v3.62a2.42,2.42,0,0,1,2.23-1.28A2.74,2.74,0,0,1,192.08,259.88Zm-.87,0a2.08,2.08,0,1,0-2.07,2.18A2.05,2.05,0,0,0,191.21,259.85Z"/><path class="cls-7" d="M198.58,260.18h-4.73a2,2,0,0,0,2.1,1.89,2.43,2.43,0,0,0,1.79-.74l.47.5a3.08,3.08,0,0,1-2.33,1,2.93,2.93,0,0,1,0-5.85C197.75,256.94,198.67,258.23,198.58,260.18Zm-.77-.68a1.83,1.83,0,0,0-1.94-1.85,2,2,0,0,0-2,1.85Z"/><path class="cls-7" d="M201,255.31a.56.56,0,1,1-1.12,0,.56.56,0,1,1,1.12,0ZM200.9,257v5.79h-.85V257Z"/><path class="cls-7" d="M208.29,259.19v3.56h-.86v-3.34a1.51,1.51,0,0,0-1.64-1.65,1.9,1.9,0,0,0-1.95,1.89v3.1H203V257h.86v1.28a2.29,2.29,0,0,1,2.24-1.31A2,2,0,0,1,208.29,259.19Z"/><path class="cls-7" d="M215.26,257v5.18a2.66,2.66,0,0,1-2.92,2.76,3.84,3.84,0,0,1-2.38-.85l.4-.63a3,3,0,0,0,1.95.74,1.92,1.92,0,0,0,2.09-2v-.88a2.28,2.28,0,0,1-2.13,1.21,2.79,2.79,0,0,1,0-5.57,2.3,2.3,0,0,1,2.16,1.21V257Zm-.86,2.76a2,2,0,1,0-2,2.07A2,2,0,0,0,214.4,259.73Z"/><path class="cls-7" d="M114.94,272.64c0,1.69-1.1,2.67-3,2.67h-2v2.44H109v-7.7h2.89C113.84,270.06,114.94,271,114.94,272.64Zm-.85,0c0-1.18-.8-1.79-2.19-1.79h-2v3.63h2C113.29,274.5,114.1,273.87,114.1,272.66Z"/><path class="cls-7" d="M121.65,274.19v3.56h-.86v-3.34a1.51,1.51,0,0,0-1.64-1.65,1.94,1.94,0,0,0-2,2.16v2.84h-.86v-8.16h.86v3.67a2.27,2.27,0,0,1,2.25-1.33A2,2,0,0,1,121.65,274.19Z"/><path class="cls-7" d="M123.45,279.92a1.83,1.83,0,0,1-1.22-.42l.36-.68a1.37,1.37,0,0,0,.81.27,1.16,1.16,0,0,0,1.06-.84l.24-.55L122.3,272h.9l1.93,4.82L127,272h.88l-2.66,6.61A1.87,1.87,0,0,1,123.45,279.92Z"/><path class="cls-7" d="M130.31,272.65c-.65,0-1.14.23-1.14.78,0,1.31,3.23.64,3.23,2.72,0,1.13-1,1.64-2.12,1.64a3.27,3.27,0,0,1-2.22-.81l.33-.63a2.94,2.94,0,0,0,1.93.74c.68,0,1.23-.26,1.24-.85,0-1.41-3.21-.69-3.2-2.74,0-1.1,1-1.57,2-1.57a3.44,3.44,0,0,1,1.85.53l-.33.66A3.05,3.05,0,0,0,130.31,272.65Z"/><path class="cls-7" d="M134.79,270.31a.56.56,0,1,1-1.12,0,.56.56,0,1,1,1.12,0Zm-.13,1.66v5.79h-.85V272Z"/><path class="cls-7" d="M139.07,272.71a2.16,2.16,0,0,0,0,4.32,2.26,2.26,0,0,0,1.79-.75l.5.51a2.91,2.91,0,0,1-2.32,1,2.93,2.93,0,0,1,0-5.85,3.05,3.05,0,0,1,2.23.86l-.47.59A2.4,2.4,0,0,0,139.07,272.71Z"/><path class="cls-7" d="M146.2,277.76v-.9a2.5,2.5,0,0,1-2.12.94,1.79,1.79,0,0,1-2-1.75c0-1,.8-1.65,2.17-1.66h1.9V274c0-.85-.53-1.36-1.55-1.36a3.15,3.15,0,0,0-1.84.67l-.36-.61a3.89,3.89,0,0,1,2.37-.78c1.43,0,2.22.76,2.23,2v3.83Zm0-2v-.7h-1.8c-1,0-1.47.3-1.47.95s.52,1.07,1.33,1.07A1.86,1.86,0,0,0,146.18,275.77Z"/><path class="cls-7" d="M149.86,269.59v8.16H149v-8.16Z"/><path class="cls-7" d="M160.29,275.79H156.1l-.86,2h-.94l3.45-7.7h.91l3.44,7.7h-1Zm-.35-.81-1.75-4-1.73,4Z"/><path class="cls-7" d="M165.21,272.71a2.16,2.16,0,0,0,0,4.32,2.26,2.26,0,0,0,1.79-.75l.5.51a2.91,2.91,0,0,1-2.32,1,2.93,2.93,0,0,1,0-5.85,3.05,3.05,0,0,1,2.23.86l-.47.59A2.41,2.41,0,0,0,165.21,272.71Z"/><path class="cls-7" d="M172.06,277.36a2.32,2.32,0,0,1-1.31.43c-.85,0-1.47-.5-1.47-1.64v-3.33h-.84v-.67h.84v-1.52h.85v1.52H172v.67h-1.84V276c0,.7.27,1,.77,1a2,2,0,0,0,.92-.3Z"/><path class="cls-7" d="M174.33,270.31a.56.56,0,1,1-1.12,0,.56.56,0,1,1,1.12,0ZM174.2,272v5.79h-.85V272Z"/><path class="cls-7" d="M176.2,272l1.85,4.92,1.84-4.92h.87l-2.28,5.79h-.89l-2.3-5.79Z"/><path class="cls-7" d="M182.75,270.31a.56.56,0,1,1-1.12,0,.56.56,0,1,1,1.12,0Zm-.13,1.66v5.79h-.85V272Z"/><path class="cls-7" d="M187.7,277.36a2.32,2.32,0,0,1-1.31.43c-.85,0-1.47-.5-1.47-1.64v-3.33h-.84v-.67h.84v-1.52h.85v1.52h1.84v.67h-1.84V276c0,.7.27,1,.77,1a2,2,0,0,0,.92-.3Z"/><path class="cls-7" d="M190,270.31a.56.56,0,1,1-1.12,0,.56.56,0,1,1,1.12,0Zm-.13,1.66v5.79H189V272Z"/><path class="cls-7" d="M196.93,275.18H192.2a2,2,0,0,0,2.1,1.89,2.43,2.43,0,0,0,1.79-.74l.47.5a3.08,3.08,0,0,1-2.33,1,2.93,2.93,0,0,1,0-5.85C196.09,271.94,197,273.23,196.93,275.18Zm-.77-.68a1.83,1.83,0,0,0-1.94-1.85,2,2,0,0,0-2,1.85Z"/><path class="cls-7" d="M199.88,272.65c-.65,0-1.14.23-1.14.78,0,1.31,3.24.64,3.24,2.72,0,1.13-1,1.64-2.12,1.64a3.27,3.27,0,0,1-2.22-.81l.33-.63a2.94,2.94,0,0,0,1.92.74c.68,0,1.23-.26,1.24-.85,0-1.41-3.21-.69-3.2-2.74,0-1.1,1-1.57,2-1.57a3.44,3.44,0,0,1,1.85.53l-.33.66A3.05,3.05,0,0,0,199.88,272.65Z"/><polygon class="cls-15" points="155.11 184.01 134.35 200.22 134.35 231.61 149.52 231.61 149.52 218.5 160.7 218.5 160.7 231.61 175.87 231.61 175.87 200.22 155.11 184.01"/></g><g id="Layer_2" data-name="Layer 2"><path class="cls-6" d="M50.91,192.13l2.24,4.71,2.23-4.71h1.94v7.7H55.76v-5.19l-2,4.41H52.58l-2-4.41v5.19H49v-7.7Z"/><path class="cls-6" d="M60.76,192.13v7.7H59v-7.7Z"/><path class="cls-6" d="M64,192.13l3.74,5v-5h1.65v7.7H67.86l-3.73-4.94v4.94H62.47v-7.7Z"/><path class="cls-6" d="M78.45,196a3.81,3.81,0,0,1-4.11,3.85h-3.2v-7.7H74.4A3.77,3.77,0,0,1,78.45,196Zm-1.77,0a2.27,2.27,0,0,0-2.31-2.4h-1.5v4.78h1.57A2.22,2.22,0,0,0,76.68,196Z"/><path class="cls-6" d="M34,209.71c0,1.69-1.1,2.67-3,2.67H29v2.44h-.88v-7.7H31C32.92,207.13,34,208.08,34,209.71Zm-.85,0c0-1.18-.8-1.79-2.19-1.79H29v3.63h2C32.37,211.57,33.17,210.95,33.17,209.74Z"/><path class="cls-6" d="M36.85,209.73c-.65,0-1.14.23-1.14.78,0,1.31,3.23.64,3.23,2.72,0,1.13-1,1.64-2.12,1.64a3.27,3.27,0,0,1-2.22-.81l.33-.63a2.94,2.94,0,0,0,1.93.74c.68,0,1.23-.26,1.24-.85,0-1.41-3.21-.69-3.2-2.74,0-1.1,1-1.57,2-1.57a3.44,3.44,0,0,1,1.85.53l-.33.66A3.05,3.05,0,0,0,36.85,209.73Z"/><path class="cls-6" d="M40.42,217a1.83,1.83,0,0,1-1.22-.42l.36-.68a1.37,1.37,0,0,0,.81.27,1.16,1.16,0,0,0,1.06-.84l.24-.55L39.28,209h.9l1.93,4.82L43.94,209h.88l-2.66,6.61A1.87,1.87,0,0,1,40.42,217Z"/><path class="cls-6" d="M48,209.78a2.16,2.16,0,0,0,0,4.32,2.26,2.26,0,0,0,1.79-.75l.5.51a2.91,2.91,0,0,1-2.32,1,2.93,2.93,0,0,1,0-5.85,3.05,3.05,0,0,1,2.23.86l-.47.59A2.4,2.4,0,0,0,48,209.78Z"/><path class="cls-6" d="M57.19,211.27v3.56h-.86v-3.34a1.51,1.51,0,0,0-1.64-1.65,1.94,1.94,0,0,0-2,2.16v2.84h-.86v-8.16h.86v3.67A2.27,2.27,0,0,1,55,209,2,2,0,0,1,57.19,211.27Z"/><path class="cls-6" d="M64.39,211.93A2.94,2.94,0,1,1,61.45,209,2.82,2.82,0,0,1,64.39,211.93Zm-5,0a2.08,2.08,0,1,0,2.08-2.17A2,2,0,0,0,59.38,211.94Z"/><path class="cls-6" d="M66.81,206.67v8.16H66v-8.16Z"/><path class="cls-6" d="M74.25,211.93A2.94,2.94,0,1,1,71.31,209,2.82,2.82,0,0,1,74.25,211.93Zm-5,0a2.08,2.08,0,1,0,2.08-2.17A2,2,0,0,0,69.23,211.94Z"/><path class="cls-6" d="M80.8,209v5.18A2.66,2.66,0,0,1,77.89,217a3.84,3.84,0,0,1-2.38-.85l.4-.63a3,3,0,0,0,1.95.74,1.92,1.92,0,0,0,2.09-2v-.88a2.28,2.28,0,0,1-2.13,1.21,2.79,2.79,0,0,1,0-5.57,2.3,2.3,0,0,1,2.16,1.21V209Zm-.86,2.76a2,2,0,1,0-2,2.07A2,2,0,0,0,79.95,211.8Z"/><path class="cls-6" d="M83.73,207.38a.56.56,0,1,1-1.12,0,.56.56,0,1,1,1.12,0ZM83.6,209v5.79h-.85V209Z"/><path class="cls-6" d="M88,209.78a2.16,2.16,0,0,0,0,4.32,2.26,2.26,0,0,0,1.79-.75l.5.51a2.91,2.91,0,0,1-2.32,1A2.93,2.93,0,0,1,88,209a3.05,3.05,0,0,1,2.23.86l-.47.59A2.4,2.4,0,0,0,88,209.78Z"/><path class="cls-6" d="M95.14,214.83v-.9a2.5,2.5,0,0,1-2.12.94,1.79,1.79,0,0,1-2-1.75c0-1,.8-1.65,2.17-1.66h1.9v-.36c0-.85-.53-1.36-1.55-1.36a3.15,3.15,0,0,0-1.84.67l-.36-.61a3.89,3.89,0,0,1,2.37-.78c1.43,0,2.22.76,2.23,2v3.83Zm0-2v-.7h-1.8c-1,0-1.47.3-1.47.95s.52,1.07,1.33,1.07A1.86,1.86,0,0,0,95.13,212.84Z"/><path class="cls-6" d="M98.8,206.67v8.16h-.86v-8.16Z"/><path class="cls-6" d="M43.84,222.13v.81H41.32v6.89h-.88v-6.89H37.94v-.81Z"/><path class="cls-6" d="M49.72,226.27v3.56h-.86v-3.34a1.51,1.51,0,0,0-1.64-1.65,1.94,1.94,0,0,0-2,2.16v2.84H44.4v-8.16h.86v3.67A2.27,2.27,0,0,1,47.52,224,2,2,0,0,1,49.72,226.27Z"/><path class="cls-6" d="M56.63,227.26H51.9a2,2,0,0,0,2.1,1.89,2.43,2.43,0,0,0,1.79-.74l.47.5a3.08,3.08,0,0,1-2.33,1,2.93,2.93,0,0,1,0-5.85C55.79,224,56.71,225.3,56.63,227.26Zm-.77-.68a1.83,1.83,0,0,0-1.94-1.85,2,2,0,0,0-2,1.85Z"/><path class="cls-6" d="M61,224v.84a1.93,1.93,0,0,0-2.08,1.9v3.08H58.1V224H59v1.29A2.17,2.17,0,0,1,61,224Z"/><path class="cls-6" d="M65.51,229.83v-.9a2.5,2.5,0,0,1-2.12.94,1.79,1.79,0,0,1-2-1.75c0-1,.8-1.65,2.17-1.66h1.9v-.36c0-.85-.53-1.36-1.55-1.36a3.15,3.15,0,0,0-1.84.67l-.36-.61A3.89,3.89,0,0,1,64.1,224c1.43,0,2.22.76,2.23,2v3.83Zm0-2v-.7H63.7c-1,0-1.47.3-1.47.95s.52,1.07,1.33,1.07A1.86,1.86,0,0,0,65.5,227.84Z"/><path class="cls-6" d="M74.19,226.95a2.71,2.71,0,0,1-2.76,2.92,2.43,2.43,0,0,1-2.25-1.28V232h-.86V224h.86v1.24A2.42,2.42,0,0,1,71.41,224,2.74,2.74,0,0,1,74.19,226.95Zm-.87,0a2.08,2.08,0,1,0-2.07,2.18A2.05,2.05,0,0,0,73.32,226.93Z"/><path class="cls-6" d="M76.68,222.38a.56.56,0,1,1-1.12,0,.56.56,0,1,1,1.12,0ZM76.55,224v5.79H75.7V224Z"/><path class="cls-6" d="M83.63,227.26H78.9a2,2,0,0,0,2.1,1.89,2.43,2.43,0,0,0,1.79-.74l.47.5a3.08,3.08,0,0,1-2.33,1,2.93,2.93,0,0,1,0-5.85C82.79,224,83.72,225.3,83.63,227.26Zm-.77-.68a1.83,1.83,0,0,0-1.94-1.85,2,2,0,0,0-2,1.85Z"/><path class="cls-6" d="M86.59,224.73c-.65,0-1.14.23-1.14.78,0,1.31,3.23.64,3.23,2.72,0,1.13-1,1.64-2.12,1.64a3.27,3.27,0,0,1-2.22-.81l.33-.63a2.94,2.94,0,0,0,1.93.74c.68,0,1.23-.26,1.24-.85,0-1.41-3.21-.69-3.2-2.74,0-1.1,1-1.57,2-1.57a3.44,3.44,0,0,1,1.85.53l-.33.66A3.05,3.05,0,0,0,86.59,224.73Z"/><polygon class="cls-9" points="63.43 136.09 42.67 152.29 42.67 183.68 57.84 183.68 57.84 170.58 69.02 170.58 69.02 183.68 84.19 183.68 84.19 152.29 63.43 136.09"/></g></svg>