<svg xmlns="http://www.w3.org/2000/svg" viewBox="0 0 480 461.34"><defs><style>.cls-1,.cls-9{fill:#fff;}.cls-2{fill:#8bc53f;}.cls-3{fill:#f6921e;}.cls-4{fill:#eb008b;}.cls-5{fill:#00adee;}.cls-6,.cls-7{fill:#34a8ef;}.cls-7,.cls-9{fill-rule:evenodd;}.cls-8{fill:none;stroke:#34a8ef;stroke-linejoin:round;stroke-width:1.86px;}.cls-10{fill:#666;}</style></defs><title>sharp-partners-smaller</title><g id="Layer_1" data-name="Layer 1"><path class="cls-1" d="M240,199a29.9,29.9,0,1,0-29.87-29.9A29.88,29.88,0,0,0,240,199"/><path class="cls-2" d="M246.42,133.07,240,126.84h.07A42,42,0,0,1,279,184.47l-7.83,3.73-3.46-7.27-.24-.1h0A29.92,29.92,0,0,0,240.3,139.2h0Z"/><path class="cls-3" d="M240.3,139.19h-.38a29.92,29.92,0,0,0-27.69,41l-.1,0h0L205,176.15l-4.14,7.76h0a42.05,42.05,0,0,1,39.12-57.07H240l6.43,6.23Z"/><path class="cls-4" d="M239.94,210.87a42,42,0,0,1-39.11-27l4.14-7.76,7.16,4.05h0l.1,0A29.88,29.88,0,0,0,239.92,199H240a29.88,29.88,0,0,0,27.41-18.16h0l.24.1,3.46,7.27,7.84-3.73a42,42,0,0,1-38.9,26.4Z"/><path class="cls-5" d="M240,197.43a28.34,28.34,0,1,0-28.31-28.34A28.33,28.33,0,0,0,240,197.43"/><path class="cls-1" d="M227.29,171.54a2.47,2.47,0,0,1-.29,1,2.87,2.87,0,0,1-.65.81,3.2,3.2,0,0,1-.93.56,3.08,3.08,0,0,1-1.14.21,6.53,6.53,0,0,1-1-.07,3.83,3.83,0,0,1-.81-.21,3.5,3.5,0,0,1-.71-.38,6.23,6.23,0,0,1-.69-.56l1.28-1.25a3,3,0,0,0,.94.64,2.82,2.82,0,0,0,1,.19,1.37,1.37,0,0,0,.45-.07,1.35,1.35,0,0,0,.38-.2,1.08,1.08,0,0,0,.27-.29.84.84,0,0,0,.12-.37.91.91,0,0,0,0-.38.81.81,0,0,0-.24-.33,2.36,2.36,0,0,0-.5-.32q-.33-.16-.84-.37a7,7,0,0,1-.86-.41,2.78,2.78,0,0,1-.7-.56,2.27,2.27,0,0,1-.45-.77,2.43,2.43,0,0,1-.11-1,2.72,2.72,0,0,1,.31-1.06,2.82,2.82,0,0,1,.67-.83,3.06,3.06,0,0,1,.93-.54,3.17,3.17,0,0,1,1.1-.19,4.2,4.2,0,0,1,1.62.27,3.16,3.16,0,0,1,1.12.79L226.32,167a2,2,0,0,0-.67-.5,2.15,2.15,0,0,0-.91-.17,1.33,1.33,0,0,0-.83.29,1.16,1.16,0,0,0-.26.3.84.84,0,0,0-.12.37.83.83,0,0,0,.05.39.9.9,0,0,0,.26.34,2.55,2.55,0,0,0,.51.33q.32.16.8.36a5.61,5.61,0,0,1,1,.52,2.72,2.72,0,0,1,.69.62,2,2,0,0,1,.36.76A3,3,0,0,1,227.29,171.54Z"/><path class="cls-1" d="M234.88,173.91h-1.64l.35-4h-3.34l-.35,4h-1.64l.79-9h1.64l-.31,3.58h3.34l.31-3.58h1.64Z"/><path class="cls-1" d="M245,173.91h-1.8l-.63-1.81h-4.12l-1,1.81h-1.8l4.8-9h1.28Zm-3-3.26L241,167.39l-1.72,3.25Z"/><path class="cls-1" d="M252.26,173.91h-1.81l-.42-2.05a3.13,3.13,0,0,0-.18-.62,1.7,1.7,0,0,0-.3-.49,1.24,1.24,0,0,0-.45-.32,1.68,1.68,0,0,0-.65-.11h-.61l-.31,3.59h-1.62l.79-9H250a2.43,2.43,0,0,1,1,.2,2.14,2.14,0,0,1,.76.55,2.24,2.24,0,0,1,.46.82,2.62,2.62,0,0,1,.1,1,2.68,2.68,0,0,1-.18.77,3,3,0,0,1-.94,1.25,2.32,2.32,0,0,1-.67.37,1.43,1.43,0,0,1,.61.46,2,2,0,0,1,.34.72c0,.13.07.26.1.38l.1.4.11.45.13.54q.08.37.16.64A3,3,0,0,0,252.26,173.91Zm-1.59-6.31a1.38,1.38,0,0,0-.06-.58,1.29,1.29,0,0,0-.26-.45,1.21,1.21,0,0,0-.42-.3,1.38,1.38,0,0,0-.55-.11h-1.19l-.25,2.81h1.19a1.68,1.68,0,0,0,.57-.1,1.46,1.46,0,0,0,.47-.28,1.49,1.49,0,0,0,.34-.43A1.47,1.47,0,0,0,250.67,167.6Z"/><path class="cls-1" d="M259.75,167.91a3.32,3.32,0,0,1-.33,1.2,3.48,3.48,0,0,1-.71,1,3.19,3.19,0,0,1-1,.64,2.94,2.94,0,0,1-1.15.23h-1.4l-.26,2.95h-1.64l.79-9h3a2.66,2.66,0,0,1,1.11.23,2.55,2.55,0,0,1,.87.64,2.72,2.72,0,0,1,.54,1A3,3,0,0,1,259.75,167.91Zm-1.64,0a1.67,1.67,0,0,0-.06-.65,1.48,1.48,0,0,0-.29-.53,1.44,1.44,0,0,0-.47-.36,1.34,1.34,0,0,0-.6-.14h-1.09l-.3,3.41h1.09a1.45,1.45,0,0,0,.63-.14,1.85,1.85,0,0,0,.53-.38,2,2,0,0,0,.38-.55A1.89,1.89,0,0,0,258.11,167.89Z"/></g><g id="Layer_7" data-name="Layer 7"><ellipse class="cls-6" cx="306.74" cy="33.29" rx="52.9" ry="33.29"/><path class="cls-7" d="M229,33.82h0a5,5,0,1,1,5,5A5,5,0,0,1,229,33.82Z"/><path class="cls-7" d="M222.35,44h0A2,2,0,0,1,224.3,42h.31A1.95,1.95,0,0,1,226.56,44V62.26a2,2,0,0,1-1.95,1.95h-.31a2,2,0,0,1-1.95-1.95Z"/><path class="cls-7" d="M241.44,44h0A2,2,0,0,1,243.39,42h.31A1.95,1.95,0,0,1,245.65,44V62.26a2,2,0,0,1-1.95,1.95h-.31a2,2,0,0,1-1.95-1.95Z"/><path class="cls-7" d="M227.59,63h0a2.36,2.36,0,0,1,2.36-2.36h.37A2.36,2.36,0,0,1,232.68,63V87.51a2.36,2.36,0,0,1-2.36,2.36h-.37a2.36,2.36,0,0,1-2.36-2.36Z"/><path class="cls-7" d="M235.32,63h0a2.36,2.36,0,0,1,2.36-2.36h.37A2.36,2.36,0,0,1,240.41,63V87.51a2.36,2.36,0,0,1-2.36,2.36h-.37a2.36,2.36,0,0,1-2.36-2.36Z"/><path class="cls-7" d="M222.35,44.26h0A3.25,3.25,0,0,1,225.6,41h16.8a3.25,3.25,0,0,1,0,6.51H225.6A3.25,3.25,0,0,1,222.35,44.26Z"/><rect class="cls-6" x="227.59" y="46.36" width="12.82" height="17.84"/><line class="cls-8" x1="240" y1="95.84" x2="240" y2="117.38"/><polygon class="cls-6" points="232.39 111.21 233.75 109.94 240 116.66 246.24 109.94 247.61 111.21 240 119.39 232.39 111.21"/><path class="cls-1" d="M278,11.68l-.43,1a.75.75,0,0,1,.32.63.76.76,0,0,1-.79.8.75.75,0,0,1-.77-.8,1.05,1.05,0,0,1,.21-.63l.68-1Zm1.66,1.67a.76.76,0,0,1-.79.8.75.75,0,0,1-.77-.8,1.05,1.05,0,0,1,.21-.63l.68-1h.77l-.43,1A.75.75,0,0,1,279.7,13.35Z"/><path class="cls-1" d="M283.49,13c-.54,0-.91.19-.91.58,0,1.32,3.81.58,3.8,3.16,0,1.4-1.22,2.16-2.8,2.16a5,5,0,0,1-3.16-1.13l.64-1.32a4.24,4.24,0,0,0,2.54,1.07c.67,0,1.06-.25,1.06-.69,0-1.35-3.81-.56-3.81-3.1,0-1.3,1.11-2.12,2.77-2.12a5.12,5.12,0,0,1,2.72.78l-.62,1.34A5,5,0,0,0,283.49,13Z"/><path class="cls-1" d="M289.13,11.72v3h3.24v-3H294v7.16h-1.62V16.06h-3.24v2.82h-1.62V11.72Z"/><path class="cls-1" d="M300.29,17.49H297l-.56,1.39h-1.67l3.11-7.16h1.67l3.06,7.16h-1.73Zm-.52-1.3-1.12-2.78-1.13,2.78Z"/><path class="cls-1" d="M307.73,18.88l-1.13-2h-1.65v2h-1.62V11.72h3.11c1.87,0,2.93.9,2.93,2.48A2.36,2.36,0,0,1,308,16.52l1.52,2.36Zm-2.78-3.39h1.49c.89,0,1.4-.41,1.4-1.23s-.51-1.2-1.4-1.2h-1.49Z"/><path class="cls-1" d="M316.64,14.21c0,1.67-1,2.63-2.86,2.63h-1.42v2h-1.62V11.72h3C315.6,11.72,316.64,12.62,316.64,14.21Zm-1.53.05c0-.8-.51-1.2-1.41-1.2h-1.34v2.42h1.34C314.6,15.48,315.11,15.08,315.11,14.26Z"/><path class="cls-1" d="M326.27,15.42v3.46h-1.57v-3a1,1,0,0,0-1.08-1.12,1.28,1.28,0,0,0-1.27,1.41v2.71h-1.57V11.29h1.57v3.06a2.06,2.06,0,0,1,1.9-1A1.93,1.93,0,0,1,326.27,15.42Z"/><path class="cls-1" d="M330.81,18.88v-.64a2.12,2.12,0,0,1-1.73.72,1.7,1.7,0,0,1-1.89-1.72c0-1,.75-1.65,2.1-1.66h1.51v-.1c0-.58-.39-.92-1.14-.92A3.48,3.48,0,0,0,328,15L327.53,14a5.16,5.16,0,0,1,2.48-.63c1.47,0,2.32.74,2.33,2v3.59Zm0-1.88v-.49h-1.24c-.6,0-.9.18-.9.62s.33.69.86.69A1.22,1.22,0,0,0,330.8,17Z"/><path class="cls-1" d="M335.51,14.46c-.37,0-.63.12-.63.41,0,.83,2.9.41,2.89,2.35,0,1.12-1,1.72-2.24,1.72a3.84,3.84,0,0,1-2.38-.77l.51-1.06a3.32,3.32,0,0,0,1.91.69c.4,0,.69-.13.69-.43,0-.88-2.85-.41-2.85-2.34,0-1.13,1-1.72,2.17-1.72a4.1,4.1,0,0,1,2.15.61L337.19,15A3.72,3.72,0,0,0,335.51,14.46Z"/><path class="cls-1" d="M278.9,27.51V31h-1.57V28a1,1,0,0,0-1.08-1.12A1.28,1.28,0,0,0,275,28.26V31H273.4V23.38H275v3.06a2.06,2.06,0,0,1,1.9-1A1.93,1.93,0,0,1,278.9,27.51Z"/><path class="cls-1" d="M285.31,28.7h-3.95a1.4,1.4,0,0,0,1.42,1.1,2,2,0,0,0,1.39-.58l.83.84a3.07,3.07,0,0,1-2.35,1,2.66,2.66,0,0,1-2.87-2.79,2.68,2.68,0,0,1,2.83-2.82C284.55,25.42,285.45,26.7,285.31,28.7Zm-1.47-.93a1.15,1.15,0,0,0-1.22-1.2,1.29,1.29,0,0,0-1.29,1.2Z"/><path class="cls-1" d="M288,23.38V31h-1.57V23.38Z"/><path class="cls-1" d="M295.51,28.25A2.52,2.52,0,0,1,293,31a2.08,2.08,0,0,1-1.77-.86V33h-1.57V25.47h1.57v.81a2,2,0,0,1,1.74-.86A2.57,2.57,0,0,1,295.51,28.25Zm-1.6-.05a1.37,1.37,0,1,0-1.36,1.52A1.38,1.38,0,0,0,293.92,28.2Z"/><path class="cls-1" d="M301.62,28.7h-3.95a1.4,1.4,0,0,0,1.42,1.1,2,2,0,0,0,1.39-.58l.83.84A3.07,3.07,0,0,1,299,31a2.66,2.66,0,0,1-2.87-2.79,2.68,2.68,0,0,1,2.83-2.82C300.86,25.42,301.75,26.7,301.62,28.7Zm-1.47-.93a1.15,1.15,0,0,0-1.22-1.2,1.29,1.29,0,0,0-1.29,1.2Z"/><path class="cls-1" d="M308.1,23.38V31h-1.56v-.81a2,2,0,0,1-1.74.87,2.57,2.57,0,0,1-2.6-2.83,2.53,2.53,0,0,1,2.56-2.79,2.07,2.07,0,0,1,1.78.87V23.38Zm-1.56,4.86a1.39,1.39,0,0,0-1.37-1.52,1.53,1.53,0,0,0,0,3A1.39,1.39,0,0,0,306.53,28.24Z"/><path class="cls-1" d="M317.9,25.47v5C317.9,32,316.72,33,315,33a4.28,4.28,0,0,1-2.39-.73l.58-1.1a2.91,2.91,0,0,0,1.71.55c.9,0,1.47-.48,1.47-1.23v-.62a1.94,1.94,0,0,1-1.66.8,2.41,2.41,0,0,1-2.4-2.66,2.37,2.37,0,0,1,2.36-2.61,2,2,0,0,1,1.7.8v-.75Zm-1.56,2.6A1.3,1.3,0,0,0,315,26.63a1.32,1.32,0,0,0-1.3,1.43,1.3,1.3,0,1,0,2.59,0Z"/><path class="cls-1" d="M324.57,25.47V31H323V30a2,2,0,0,1-1.84,1,1.9,1.9,0,0,1-2-2.11V25.47h1.57v3a1,1,0,0,0,1,1.11,1.26,1.26,0,0,0,1.22-1.4V25.47Z"/><path class="cls-1" d="M327.67,25.47V31H326.1v-5.5Zm0-1.56a.77.77,0,1,1-.77-.79A.75.75,0,0,1,327.65,23.9Z"/><path class="cls-1" d="M334.62,23.38V31h-1.56v-.81a2,2,0,0,1-1.74.87,2.57,2.57,0,0,1-2.6-2.83,2.53,2.53,0,0,1,2.56-2.79,2.07,2.07,0,0,1,1.78.87V23.38Zm-1.56,4.86a1.39,1.39,0,0,0-1.37-1.52,1.53,1.53,0,0,0,0,3A1.39,1.39,0,0,0,333.05,28.24Z"/><path class="cls-1" d="M341.25,28.7h-3.95a1.4,1.4,0,0,0,1.42,1.1,2,2,0,0,0,1.39-.58l.83.84a3.07,3.07,0,0,1-2.35,1,2.66,2.66,0,0,1-2.87-2.79,2.68,2.68,0,0,1,2.83-2.82C340.49,25.42,341.39,26.7,341.25,28.7Zm-1.47-.93a1.15,1.15,0,0,0-1.22-1.2,1.29,1.29,0,0,0-1.29,1.2Z"/><path class="cls-1" d="M286.18,39.6v3.46h-1.56v-3a1,1,0,0,0-1.06-1.12,1.26,1.26,0,0,0-1.22,1.4v2.72h-1.56v-3a1,1,0,0,0-1.05-1.12,1.26,1.26,0,0,0-1.23,1.4v2.72h-1.57v-5.5h1.57v1a2,2,0,0,1,1.86-1,1.83,1.83,0,0,1,1.86,1.27,2,2,0,0,1,2-1.27A1.91,1.91,0,0,1,286.18,39.6Z"/><path class="cls-1" d="M292.61,40.79h-3.95a1.4,1.4,0,0,0,1.42,1.1,2,2,0,0,0,1.39-.58l.83.84a3.07,3.07,0,0,1-2.35,1,2.81,2.81,0,1,1,0-5.61C291.84,37.51,292.74,38.79,292.61,40.79Zm-1.47-.93a1.15,1.15,0,0,0-1.22-1.2,1.29,1.29,0,0,0-1.29,1.2Z"/><path class="cls-1" d="M300.13,42.75a2.93,2.93,0,0,1-1.43.38,1.59,1.59,0,0,1-1.73-1.7V38.89h-.77V37.81H297V36.29h1.56v1.51H300V38.9h-1.49v2.27c0,.46.19.64.53.63a1.83,1.83,0,0,0,.74-.2Z"/><path class="cls-1" d="M306.51,40.31a3,3,0,1,1-2.94-2.8A2.73,2.73,0,0,1,306.51,40.31Zm-4.33,0a1.38,1.38,0,1,0,1.38-1.51A1.38,1.38,0,0,0,302.19,40.33Z"/><path class="cls-1" d="M316.06,40.31a3,3,0,1,1-2.94-2.8A2.73,2.73,0,0,1,316.06,40.31Zm-4.33,0a1.38,1.38,0,1,0,1.38-1.51A1.38,1.38,0,0,0,311.73,40.33Z"/><path class="cls-1" d="M320.51,42.75a2.93,2.93,0,0,1-1.43.38,1.59,1.59,0,0,1-1.73-1.7V38.89h-.77V37.81h.77V36.29h1.56v1.51h1.49V38.9h-1.49v2.27c0,.46.19.64.53.63a1.83,1.83,0,0,0,.74-.2Z"/><path class="cls-1" d="M327,39.6v3.46h-1.57v-3a1,1,0,0,0-1.08-1.12,1.28,1.28,0,0,0-1.27,1.41v2.71h-1.57V35.47h1.57v3.06a2.06,2.06,0,0,1,1.9-1A1.93,1.93,0,0,1,327,39.6Z"/><path class="cls-1" d="M333.43,40.79h-3.95a1.4,1.4,0,0,0,1.42,1.1,2,2,0,0,0,1.39-.58l.83.84a3.07,3.07,0,0,1-2.35,1,2.81,2.81,0,1,1,0-5.61C332.66,37.51,333.56,38.79,333.43,40.79ZM332,39.86a1.15,1.15,0,0,0-1.22-1.2,1.29,1.29,0,0,0-1.29,1.2Z"/><path class="cls-1" d="M337.87,37.5V39c-1.12-.1-1.82.5-1.82,1.43v2.65h-1.57v-5.5H336v1A2,2,0,0,1,337.87,37.5Z"/><path class="cls-1" d="M283,49.59v1.48c-1.12-.1-1.82.5-1.82,1.43v2.65h-1.57v-5.5h1.57v1A2,2,0,0,1,283,49.59Z"/><path class="cls-1" d="M288.91,52.88H285a1.4,1.4,0,0,0,1.42,1.1,2,2,0,0,0,1.39-.58l.83.84a3.07,3.07,0,0,1-2.35,1,2.81,2.81,0,1,1,0-5.61C288.14,49.6,289,50.88,288.91,52.88ZM287.43,52a1.15,1.15,0,0,0-1.22-1.2,1.29,1.29,0,0,0-1.29,1.2Z"/><path class="cls-1" d="M291.74,50.73c-.37,0-.63.12-.63.41,0,.83,2.9.41,2.89,2.35,0,1.12-1,1.72-2.24,1.72a3.84,3.84,0,0,1-2.38-.77l.51-1.06a3.32,3.32,0,0,0,1.91.69c.4,0,.69-.13.69-.43,0-.88-2.85-.41-2.85-2.34,0-1.13,1-1.72,2.17-1.72a4.1,4.1,0,0,1,2.15.61l-.54,1.07A3.72,3.72,0,0,0,291.74,50.73Z"/><path class="cls-1" d="M300.49,52.4a3,3,0,1,1-2.94-2.8A2.73,2.73,0,0,1,300.49,52.4Zm-4.33,0a1.38,1.38,0,1,0,1.38-1.51A1.38,1.38,0,0,0,296.16,52.42Z"/><path class="cls-1" d="M306.76,49.65v5.5h-1.56v-1a2,2,0,0,1-1.84,1,1.9,1.9,0,0,1-2-2.11V49.65h1.57v3a1,1,0,0,0,1,1.11,1.26,1.26,0,0,0,1.22-1.4V49.65Z"/><path class="cls-1" d="M311.68,49.59v1.48c-1.12-.1-1.82.5-1.82,1.43v2.65h-1.57v-5.5h1.57v1A2,2,0,0,1,311.68,49.59Z"/><path class="cls-1" d="M315,50.94a1.49,1.49,0,0,0,0,3,1.43,1.43,0,0,0,1.28-.64l1.08.74a2.7,2.7,0,0,1-2.44,1.22,2.81,2.81,0,1,1,0-5.61,2.74,2.74,0,0,1,2.38,1.16l-1.06.77A1.52,1.52,0,0,0,315,50.94Z"/><path class="cls-1" d="M323.36,52.88h-3.95a1.4,1.4,0,0,0,1.42,1.1,2,2,0,0,0,1.39-.58l.83.84a3.07,3.07,0,0,1-2.35,1,2.81,2.81,0,1,1,0-5.61C322.59,49.6,323.49,50.88,323.36,52.88ZM321.89,52a1.15,1.15,0,0,0-1.22-1.2,1.29,1.29,0,0,0-1.29,1.2Z"/><path class="cls-1" d="M326.2,50.73c-.37,0-.63.12-.63.41,0,.83,2.9.41,2.89,2.35,0,1.12-1,1.72-2.24,1.72a3.84,3.84,0,0,1-2.38-.77l.51-1.06a3.32,3.32,0,0,0,1.91.69c.4,0,.69-.13.69-.43,0-.88-2.85-.41-2.85-2.34,0-1.13,1-1.72,2.17-1.72a4.1,4.1,0,0,1,2.15.61l-.54,1.07A3.72,3.72,0,0,0,326.2,50.73Z"/><path class="cls-1" d="M330.74,54.42a.79.79,0,1,1-1.57,0,.79.79,0,1,1,1.57,0Z"/><path class="cls-1" d="M333.13,48.78a1.05,1.05,0,0,1-.21.63l-.69,1h-.77l.43-1a.75.75,0,0,1-.32-.63.77.77,0,0,1,.79-.8A.75.75,0,0,1,333.13,48.78Zm1.77,0a1.05,1.05,0,0,1-.21.63l-.69,1h-.77l.43-1a.75.75,0,0,1-.32-.63.77.77,0,0,1,.79-.8A.75.75,0,0,1,334.9,48.78Z"/><polygon class="cls-7" points="259.56 26.74 259.56 39.71 242.3 33.82 259.56 26.74"/></g><g id="Layer_2" data-name="Layer 2"><path class="cls-9" d="M0,120H0a73.48,73.48,0,1,1,73.48,73.48A73.48,73.48,0,0,1,0,120Z"/><path class="cls-6" d="M24.09,88c0,2-1.22,3.08-3.36,3.08H19.06v2.4H17.17v-8.4h3.56C22.87,85.06,24.09,86.12,24.09,88Zm-1.8.06c0-.94-.6-1.4-1.66-1.4H19.06v2.84h1.57C21.69,89.48,22.29,89,22.29,88Z"/><path class="cls-6" d="M27.2,85.06v3.5H31v-3.5h1.9v8.4H31V90.15H27.2v3.31H25.31v-8.4Z"/><path class="cls-6" d="M38.79,90.75v2.71H36.9V90.8l-3.11-5.73H35.7l2.15,3.77,2.1-3.77h1.91Z"/><path class="cls-6" d="M45.66,86.6c-.64,0-1.07.23-1.07.68,0,1.55,4.47.68,4.46,3.71,0,1.64-1.43,2.53-3.29,2.53a5.89,5.89,0,0,1-3.71-1.33l.75-1.55a5,5,0,0,0,3,1.26c.78,0,1.25-.29,1.25-.8,0-1.58-4.47-.66-4.47-3.63,0-1.52,1.31-2.48,3.25-2.48a6,6,0,0,1,3.19.91l-.73,1.57A5.85,5.85,0,0,0,45.66,86.6Z"/><path class="cls-6" d="M52.28,85.06v8.4H50.38v-8.4Z"/><path class="cls-6" d="M58,86.65a2.58,2.58,0,0,0,0,5.17,3.24,3.24,0,0,0,2.18-1L61.34,92a4.91,4.91,0,0,1-3.39,1.5A4.27,4.27,0,1,1,58,85a4.78,4.78,0,0,1,3.31,1.39l-1.1,1.34A3,3,0,0,0,58,86.65Z"/><path class="cls-6" d="M68,91.83H64.12l-.66,1.63h-2l3.65-8.4h2l3.59,8.4h-2ZM67.4,90.3,66.08,87,64.75,90.3Z"/><path class="cls-6" d="M73.47,85.06V91.8h3.6v1.66H71.58v-8.4Z"/><path class="cls-6" d="M83.69,85.06v3.5h3.8v-3.5h1.9v8.4H87.5V90.15h-3.8v3.31H81.8v-8.4Z"/><path class="cls-6" d="M97.64,85.06v1.57h-4.5v1.82h4V90h-4v1.86h4.63v1.57H91.24v-8.4Z"/><path class="cls-6" d="M104.8,91.83h-3.89l-.66,1.63h-2l3.65-8.4h2l3.59,8.4h-2Zm-.61-1.52L102.87,87l-1.33,3.26Z"/><path class="cls-6" d="M110.26,85.06V91.8h3.6v1.66h-5.49v-8.4Z"/><path class="cls-6" d="M121.18,85.06v1.61h-2.57v6.79h-1.9V86.67h-2.55V85.06Z"/><path class="cls-6" d="M124.1,85.06v3.5h3.8v-3.5h1.9v8.4h-1.9V90.15h-3.8v3.31H122.2v-8.4Z"/><path class="cls-6" d="M15.88,101.92c-.64,0-1.07.23-1.07.68,0,1.55,4.47.68,4.46,3.71,0,1.64-1.43,2.53-3.29,2.53a5.89,5.89,0,0,1-3.71-1.33L13,106a5,5,0,0,0,3,1.26c.78,0,1.25-.29,1.25-.8,0-1.58-4.47-.66-4.47-3.63,0-1.52,1.31-2.48,3.25-2.48a6,6,0,0,1,3.19.91l-.73,1.57A5.85,5.85,0,0,0,15.88,101.92Z"/><path class="cls-6" d="M24.26,107.21a1.78,1.78,0,0,0,1.87-1.94v-4.88H28v4.88a3.42,3.42,0,0,1-3.77,3.6c-2.33,0-3.81-1.38-3.81-3.6v-4.88h1.89v4.88A1.81,1.81,0,0,0,24.26,107.21Z"/><path class="cls-6" d="M36.65,103.3c0,2-1.22,3.08-3.36,3.08H31.62v2.4H29.73v-8.4h3.56C35.42,100.39,36.65,101.45,36.65,103.3Zm-1.8.06c0-.94-.6-1.4-1.66-1.4H31.62v2.84h1.57C34.25,104.8,34.85,104.32,34.85,103.36Z"/><path class="cls-6" d="M44.78,103.3c0,2-1.22,3.08-3.36,3.08H39.76v2.4H37.86v-8.4h3.56C43.56,100.39,44.78,101.45,44.78,103.3Zm-1.8.06c0-.94-.6-1.4-1.66-1.4H39.76v2.84h1.57C42.38,104.8,43,104.32,43,103.36Z"/><path class="cls-6" d="M54.42,104.59a4.52,4.52,0,1,1-4.51-4.26A4.32,4.32,0,0,1,54.42,104.59Zm-7.08,0a2.61,2.61,0,0,0,2.59,2.63,2.61,2.61,0,1,0-2.59-2.63Z"/><path class="cls-6" d="M60.83,108.79l-1.33-2.4H57.56v2.4H55.67v-8.4h3.65c2.2,0,3.44,1.06,3.44,2.91A2.77,2.77,0,0,1,61.19,106L63,108.79Zm-3.26-4h1.75c1,0,1.64-.48,1.64-1.44s-.6-1.4-1.64-1.4H57.56Z"/><path class="cls-6" d="M70.55,100.39V102H68v6.79h-1.9V102H63.53v-1.61Z"/><path class="cls-6" d="M78.08,101.92c-.64,0-1.07.23-1.07.68,0,1.55,4.47.68,4.46,3.71,0,1.64-1.43,2.53-3.29,2.53a5.89,5.89,0,0,1-3.71-1.33l.75-1.55a5,5,0,0,0,3,1.26c.78,0,1.25-.29,1.25-.8,0-1.58-4.47-.66-4.47-3.63,0-1.52,1.31-2.48,3.25-2.48a6,6,0,0,1,3.19.91l-.73,1.57A5.85,5.85,0,0,0,78.08,101.92Z"/><path class="cls-6" d="M89.21,100.39V102h-4.5v1.82h4v1.57h-4v1.86h4.63v1.57H82.81v-8.4Z"/><path class="cls-6" d="M96,108.79l-1.33-2.4H92.72v2.4H90.83v-8.4h3.65c2.2,0,3.44,1.06,3.44,2.91A2.77,2.77,0,0,1,96.35,106l1.79,2.77Zm-3.26-4h1.75c1,0,1.64-.48,1.64-1.44s-.6-1.4-1.64-1.4H92.72Z"/><path class="cls-6" d="M100.63,100.39l2.29,6.33,2.3-6.33h2l-3.33,8.4h-2l-3.3-8.4Z"/><path class="cls-6" d="M110,100.39v8.4h-1.89v-8.4Z"/><path class="cls-6" d="M115.76,102a2.58,2.58,0,0,0,0,5.17,3.24,3.24,0,0,0,2.18-1l1.12,1.21a4.91,4.91,0,0,1-3.39,1.5,4.27,4.27,0,1,1,.07-8.54,4.78,4.78,0,0,1,3.31,1.39l-1.1,1.34A3,3,0,0,0,115.76,102Z"/><path class="cls-6" d="M126.58,100.39V102h-4.5v1.82h4v1.57h-4v1.86h4.63v1.57h-6.52v-8.4Z"/><path class="cls-6" d="M131.12,101.92c-.64,0-1.07.23-1.07.68,0,1.55,4.47.68,4.46,3.71,0,1.64-1.43,2.53-3.29,2.53a5.89,5.89,0,0,1-3.71-1.33l.75-1.55a5,5,0,0,0,3,1.26c.78,0,1.25-.29,1.25-.8,0-1.58-4.47-.66-4.47-3.63,0-1.52,1.31-2.48,3.25-2.48a6,6,0,0,1,3.19.91l-.73,1.57A5.85,5.85,0,0,0,131.12,101.92Z"/><path class="cls-10" d="M14.05,122.06l4.29,5.82v-5.82h.81v7.16h-.84L14,123.41v5.81H13.2v-7.16Z"/><path class="cls-10" d="M22.14,122.06v3.24h4.31v-3.24h.82v7.16h-.82v-3.17H22.14v3.17h-.82v-7.16Z"/><path class="cls-10" d="M31.51,122.83c-.92,0-1.52.37-1.52,1,0,1.86,4,.89,4,3.49,0,1.19-1.05,2-2.59,2a4.09,4.09,0,0,1-2.74-1.09l.37-.71a3.59,3.59,0,0,0,2.38,1c1,0,1.68-.42,1.68-1.11,0-1.91-4-.9-4-3.47,0-1.12,1-1.84,2.47-1.84a4.23,4.23,0,0,1,2.27.66l-.35.73A3.77,3.77,0,0,0,31.51,122.83Z"/><path class="cls-10" d="M36.11,128.79a.73.73,0,0,1-.15.43l-.48.73H35l.34-.74a.45.45,0,0,1-.22-.42.49.49,0,1,1,1,0Z"/><path class="cls-10" d="M46.24,124.47c0,1.57-1,2.48-2.79,2.48H41.58v2.27h-.82v-7.16h2.69C45.22,122.06,46.24,122.94,46.24,124.47Zm-.79,0c0-1.09-.75-1.67-2-1.67H41.58v3.37h1.84C44.71,126.19,45.45,125.61,45.45,124.49Z"/><path class="cls-10" d="M50.21,123.81v.78a1.79,1.79,0,0,0-1.93,1.77v2.86h-.8v-5.38h.8V125A2,2,0,0,1,50.21,123.81Z"/><path class="cls-10" d="M52.19,122.3a.52.52,0,1,1-1,0,.52.52,0,1,1,1,0Zm-.12,1.54v5.38h-.79v-5.38Z"/><path class="cls-10" d="M53.93,123.84l1.72,4.57,1.71-4.57h.81L56,129.22h-.83l-2.14-5.38Z"/><path class="cls-10" d="M62.44,129.22v-.84a2.32,2.32,0,0,1-2,.87,1.66,1.66,0,0,1-1.83-1.63c0-.94.75-1.53,2-1.54h1.77v-.34c0-.79-.49-1.27-1.44-1.27a2.93,2.93,0,0,0-1.71.62l-.34-.56a3.61,3.61,0,0,1,2.2-.73c1.33,0,2.06.71,2.08,1.85v3.56Zm0-1.85v-.65H60.75c-.9,0-1.37.28-1.37.88s.48,1,1.24,1A1.73,1.73,0,0,0,62.43,127.37Z"/><path class="cls-10" d="M67.78,128.85a2.16,2.16,0,0,1-1.22.4c-.79,0-1.37-.46-1.37-1.52v-3.1h-.78V124h.78V122.6H66V124h1.71v.62H66v3c0,.65.25.92.71.92a1.84,1.84,0,0,0,.86-.28Z"/><path class="cls-10" d="M73.62,126.83h-4.4a1.9,1.9,0,0,0,2,1.76,2.26,2.26,0,0,0,1.67-.69l.44.46a2.86,2.86,0,0,1-2.17.89,2.72,2.72,0,0,1,0-5.44C72.84,123.81,73.7,125,73.62,126.83Zm-.71-.63a1.7,1.7,0,0,0-1.8-1.72,1.82,1.82,0,0,0-1.88,1.72Z"/><path class="cls-10" d="M83.22,129.34,82,128.16a3,3,0,0,1-2.22,1.09,2,2,0,0,1-2.13-2c0-1,.79-1.57,1.63-2a2.9,2.9,0,0,1-.74-1.71A1.58,1.58,0,0,1,80.31,122,1.48,1.48,0,0,1,82,123.46c0,1-.88,1.47-1.78,2,.44.51,1,1.1,1.76,1.82a7.32,7.32,0,0,0,.73-1.39l.54.41a7.67,7.67,0,0,1-.81,1.44l1.24,1.22Zm-1.65-1.63c-.8-.8-1.44-1.45-1.92-2-.71.39-1.3.83-1.3,1.54a1.4,1.4,0,0,0,1.48,1.38A2.39,2.39,0,0,0,81.57,127.72ZM79.84,125c.79-.41,1.47-.8,1.47-1.52a.9.9,0,0,0-1-.9,1,1,0,0,0-1.09,1A2.52,2.52,0,0,0,79.84,125Z"/><path class="cls-10" d="M87.72,122.06l2.46,6.24,2.47-6.24h.86l-2.92,7.16h-.85l-2.9-7.16Z"/><path class="cls-10" d="M99.46,126.52a2.73,2.73,0,1,1-2.73-2.71A2.62,2.62,0,0,1,99.46,126.52Zm-4.66,0a1.93,1.93,0,1,0,1.93-2A1.89,1.89,0,0,0,94.8,126.53Z"/><path class="cls-10" d="M101.71,121.63v7.59h-.8v-7.59Z"/><path class="cls-10" d="M108.37,123.84v5.38h-.8V128a2.05,2.05,0,0,1-2,1.25,1.9,1.9,0,0,1-2-2.1v-3.31h.8V127a1.39,1.39,0,0,0,1.49,1.53,1.79,1.79,0,0,0,1.77-2v-2.64Z"/><path class="cls-10" d="M115.24,125.91v3.31h-.8v-3.11a1.41,1.41,0,0,0-1.52-1.53,1.76,1.76,0,0,0-1.81,1.76v2.88h-.8v-5.38h.8V125a2.13,2.13,0,0,1,2.09-1.22A1.9,1.9,0,0,1,115.24,125.91Z"/><path class="cls-10" d="M119.79,128.85a2.16,2.16,0,0,1-1.22.4c-.79,0-1.37-.46-1.37-1.52v-3.1h-.78V124h.78V122.6H118V124h1.71v.62H118v3c0,.65.25.92.71.92a1.84,1.84,0,0,0,.86-.28Z"/><path class="cls-10" d="M124.34,129.22v-.84a2.32,2.32,0,0,1-2,.87,1.66,1.66,0,0,1-1.83-1.63c0-.94.75-1.53,2-1.54h1.77v-.34c0-.79-.49-1.27-1.44-1.27a2.93,2.93,0,0,0-1.71.62l-.34-.56a3.61,3.61,0,0,1,2.2-.73c1.33,0,2.07.71,2.08,1.85v3.56Zm0-1.85v-.65h-1.68c-.9,0-1.37.28-1.37.88s.48,1,1.24,1A1.73,1.73,0,0,0,124.33,127.37Z"/><path class="cls-10" d="M129.62,123.81v.78a1.79,1.79,0,0,0-1.93,1.77v2.86h-.8v-5.38h.8V125A2,2,0,0,1,129.62,123.81Z"/><path class="cls-10" d="M130.8,131.23a1.7,1.7,0,0,1-1.13-.39l.34-.63a1.27,1.27,0,0,0,.76.26,1.08,1.08,0,0,0,1-.78l.23-.51-2.23-5.34h.84l1.79,4.48,1.71-4.48h.82L132.41,130A1.74,1.74,0,0,1,130.8,131.23Z"/><path class="cls-10" d="M38.21,138.78c-.6,0-1.06.21-1.06.73,0,1.22,3,.59,3,2.52,0,1.05-.94,1.52-2,1.52a3,3,0,0,1-2.06-.76l.31-.58a2.73,2.73,0,0,0,1.79.69c.63,0,1.14-.25,1.16-.79,0-1.31-3-.64-3-2.55,0-1,.89-1.46,1.87-1.46a3.2,3.2,0,0,1,1.72.49l-.31.61A2.84,2.84,0,0,0,38.21,138.78Z"/><path class="cls-10" d="M46.09,141.13H41.7a1.9,1.9,0,0,0,2,1.76,2.26,2.26,0,0,0,1.67-.69l.44.46a2.86,2.86,0,0,1-2.17.89,2.72,2.72,0,0,1,0-5.44C45.32,138.12,46.18,139.31,46.09,141.13Zm-.71-.63a1.7,1.7,0,0,0-1.8-1.72,1.82,1.82,0,0,0-1.88,1.72Z"/><path class="cls-10" d="M49.62,138.83a2,2,0,0,0,0,4,2.1,2.1,0,0,0,1.67-.7l.46.47a2.7,2.7,0,0,1-2.16.93,2.72,2.72,0,0,1,0-5.44,2.83,2.83,0,0,1,2.08.8l-.44.55A2.24,2.24,0,0,0,49.62,138.83Z"/><path class="cls-10" d="M56,143.16a2.16,2.16,0,0,1-1.22.4c-.79,0-1.37-.46-1.37-1.52v-3.1h-.78v-.62h.78V136.9h.79v1.41h1.71v.62H54.18v3c0,.65.25.92.71.92a1.84,1.84,0,0,0,.86-.28Z"/><path class="cls-10" d="M62.1,140.83a2.73,2.73,0,1,1-2.73-2.71A2.62,2.62,0,0,1,62.1,140.83Zm-4.66,0a1.93,1.93,0,1,0,1.93-2A1.89,1.89,0,0,0,57.43,140.84Z"/><path class="cls-10" d="M66.22,138.12v.78a1.79,1.79,0,0,0-1.93,1.77v2.86h-.8v-5.38h.8v1.2A2,2,0,0,1,66.22,138.12Z"/><path class="cls-10" d="M75.87,140.85a2.52,2.52,0,0,1-2.57,2.71,2.26,2.26,0,0,1-2.1-1.19v3.14h-.8v-7.36h.8v1.16a2.25,2.25,0,0,1,2.08-1.19A2.55,2.55,0,0,1,75.87,140.85Zm-.81,0a1.93,1.93,0,1,0-1.92,2A1.91,1.91,0,0,0,75.06,140.83Z"/><path class="cls-10" d="M80.61,143.52v-.84a2.32,2.32,0,0,1-2,.87,1.66,1.66,0,0,1-1.83-1.63c0-.94.75-1.53,2-1.54h1.77V140c0-.79-.49-1.27-1.44-1.27a2.93,2.93,0,0,0-1.71.62l-.34-.56a3.61,3.61,0,0,1,2.2-.73c1.33,0,2.06.71,2.08,1.85v3.56Zm0-1.85V141H78.92c-.9,0-1.37.28-1.37.88s.48,1,1.24,1A1.73,1.73,0,0,0,80.6,141.67Z"/><path class="cls-10" d="M85.89,138.12v.78A1.79,1.79,0,0,0,84,140.66v2.86h-.8v-5.38H84v1.2A2,2,0,0,1,85.89,138.12Z"/><path class="cls-10" d="M89.74,143.16a2.16,2.16,0,0,1-1.22.4c-.79,0-1.37-.46-1.37-1.52v-3.1h-.78v-.62h.78V136.9h.79v1.41h1.71v.62H87.95v3c0,.65.25.92.71.92a1.84,1.84,0,0,0,.86-.28Z"/><path class="cls-10" d="M95.88,140.21v3.31h-.8v-3.11a1.41,1.41,0,0,0-1.52-1.53,1.76,1.76,0,0,0-1.81,1.76v2.88h-.8v-5.38h.8v1.19a2.13,2.13,0,0,1,2.09-1.22A1.9,1.9,0,0,1,95.88,140.21Z"/><path class="cls-10" d="M102.29,141.13H97.9a1.9,1.9,0,0,0,2,1.76,2.26,2.26,0,0,0,1.67-.69l.44.46a2.86,2.86,0,0,1-2.17.89,2.72,2.72,0,0,1,0-5.44C101.52,138.12,102.38,139.31,102.29,141.13Zm-.71-.63a1.7,1.7,0,0,0-1.8-1.72,1.82,1.82,0,0,0-1.88,1.72Z"/><path class="cls-10" d="M106.39,138.12v.78a1.79,1.79,0,0,0-1.93,1.77v2.86h-.8v-5.38h.8v1.2A2,2,0,0,1,106.39,138.12Z"/><path class="cls-10" d="M108.84,138.78c-.6,0-1.06.21-1.06.73,0,1.22,3,.59,3,2.52,0,1.05-.94,1.52-2,1.52a3,3,0,0,1-2.06-.76l.31-.58a2.73,2.73,0,0,0,1.79.69c.63,0,1.14-.25,1.16-.79,0-1.31-3-.64-3-2.55,0-1,.89-1.46,1.87-1.46a3.2,3.2,0,0,1,1.72.49l-.31.61A2.84,2.84,0,0,0,108.84,138.78Z"/></g><g id="Layer_3" data-name="Layer 3"><path class="cls-9" d="M333,120h0a73.48,73.48,0,1,1,73.48,73.48A73.48,73.48,0,0,1,333,120Z"/><path class="cls-6" d="M387.79,86.6c-.64,0-1.07.23-1.07.68,0,1.55,4.47.68,4.46,3.71,0,1.64-1.43,2.53-3.29,2.53a5.89,5.89,0,0,1-3.71-1.33l.75-1.55a5,5,0,0,0,3,1.26c.78,0,1.25-.29,1.25-.8,0-1.58-4.47-.66-4.47-3.63,0-1.52,1.31-2.48,3.25-2.48a6,6,0,0,1,3.19.91l-.73,1.57A5.85,5.85,0,0,0,387.79,86.6Z"/><path class="cls-6" d="M400.94,89.26A4.52,4.52,0,1,1,396.43,85,4.32,4.32,0,0,1,400.94,89.26Zm-7.08,0a2.61,2.61,0,0,0,2.59,2.63,2.61,2.61,0,1,0-2.59-2.63Z"/><path class="cls-6" d="M406.09,86.65a2.58,2.58,0,0,0,0,5.17,3.24,3.24,0,0,0,2.18-1L409.38,92a4.91,4.91,0,0,1-3.39,1.5,4.27,4.27,0,1,1,.07-8.54,4.78,4.78,0,0,1,3.31,1.39l-1.1,1.34A3,3,0,0,0,406.09,86.65Z"/><path class="cls-6" d="M412.41,85.06v8.4h-1.89v-8.4Z"/><path class="cls-6" d="M419.81,91.83h-3.89l-.66,1.63h-2l3.65-8.4h2l3.59,8.4h-2Zm-.61-1.52L417.88,87l-1.33,3.26Z"/><path class="cls-6" d="M425.27,85.06V91.8h3.6v1.66h-5.49v-8.4Z"/><path class="cls-6" d="M348.91,101.92c-.64,0-1.07.23-1.07.68,0,1.55,4.47.68,4.46,3.71,0,1.64-1.43,2.53-3.29,2.53a5.89,5.89,0,0,1-3.71-1.33l.75-1.55a5,5,0,0,0,3,1.26c.78,0,1.25-.29,1.25-.8,0-1.58-4.47-.66-4.47-3.63,0-1.52,1.31-2.48,3.25-2.48a6,6,0,0,1,3.19.91l-.73,1.57A5.85,5.85,0,0,0,348.91,101.92Z"/><path class="cls-6" d="M357.29,107.21a1.78,1.78,0,0,0,1.87-1.94v-4.88h1.9v4.88a3.42,3.42,0,0,1-3.77,3.6c-2.33,0-3.81-1.38-3.81-3.6v-4.88h1.89v4.88A1.81,1.81,0,0,0,357.29,107.21Z"/><path class="cls-6" d="M369.68,103.3c0,2-1.22,3.08-3.36,3.08h-1.67v2.4h-1.89v-8.4h3.56C368.45,100.39,369.68,101.44,369.68,103.3Zm-1.8.06c0-.94-.6-1.4-1.66-1.4h-1.57v2.84h1.57C367.28,104.8,367.88,104.32,367.88,103.36Z"/><path class="cls-6" d="M377.81,103.3c0,2-1.22,3.08-3.36,3.08h-1.67v2.4h-1.89v-8.4h3.56C376.59,100.39,377.81,101.44,377.81,103.3Zm-1.8.06c0-.94-.6-1.4-1.66-1.4h-1.57v2.84h1.57C375.41,104.8,376,104.32,376,103.36Z"/><path class="cls-6" d="M387.45,104.59a4.52,4.52,0,1,1-4.51-4.26A4.32,4.32,0,0,1,387.45,104.59Zm-7.08,0a2.61,2.61,0,0,0,2.59,2.63,2.61,2.61,0,1,0-2.59-2.63Z"/><path class="cls-6" d="M393.86,108.78l-1.33-2.4h-1.93v2.4H388.7v-8.4h3.65c2.2,0,3.44,1.06,3.44,2.91a2.77,2.77,0,0,1-1.57,2.71l1.79,2.77Zm-3.26-4h1.75c1,0,1.64-.48,1.64-1.44s-.6-1.4-1.64-1.4h-1.75Z"/><path class="cls-6" d="M403.58,100.39V102H401v6.79h-1.9V102h-2.55v-1.61Z"/><path class="cls-6" d="M411.11,101.92c-.64,0-1.07.23-1.07.68,0,1.55,4.47.68,4.46,3.71,0,1.64-1.43,2.53-3.29,2.53a5.89,5.89,0,0,1-3.71-1.33l.75-1.55a5,5,0,0,0,3,1.26c.78,0,1.25-.29,1.25-.8,0-1.58-4.47-.66-4.47-3.63,0-1.52,1.31-2.48,3.25-2.48a6,6,0,0,1,3.19.91l-.73,1.57A5.85,5.85,0,0,0,411.11,101.92Z"/><path class="cls-6" d="M422.24,100.39V102h-4.5v1.82h4v1.57h-4v1.86h4.63v1.57h-6.52v-8.4Z"/><path class="cls-6" d="M429,108.78l-1.33-2.4h-1.93v2.4h-1.89v-8.4h3.65c2.2,0,3.44,1.06,3.44,2.91a2.77,2.77,0,0,1-1.57,2.71l1.79,2.77Zm-3.26-4h1.75c1,0,1.64-.48,1.64-1.44s-.6-1.4-1.64-1.4h-1.75Z"/><path class="cls-6" d="M433.66,100.39l2.29,6.33,2.3-6.33h2l-3.33,8.4h-2l-3.3-8.4Z"/><path class="cls-6" d="M443,100.39v8.4h-1.89v-8.4Z"/><path class="cls-6" d="M448.79,102a2.58,2.58,0,0,0,0,5.17,3.24,3.24,0,0,0,2.18-1l1.12,1.21a4.91,4.91,0,0,1-3.39,1.5,4.27,4.27,0,1,1,.07-8.54,4.78,4.78,0,0,1,3.31,1.39l-1.1,1.34A3,3,0,0,0,448.79,102Z"/><path class="cls-6" d="M459.61,100.39V102h-4.5v1.82h4v1.57h-4v1.86h4.63v1.57h-6.52v-8.4Z"/><path class="cls-6" d="M464.15,101.92c-.64,0-1.07.23-1.07.68,0,1.55,4.47.68,4.46,3.71,0,1.64-1.43,2.53-3.29,2.53a5.89,5.89,0,0,1-3.71-1.33l.75-1.55a5,5,0,0,0,3,1.26c.78,0,1.25-.29,1.25-.8,0-1.58-4.47-.66-4.47-3.63,0-1.52,1.31-2.48,3.25-2.48a6,6,0,0,1,3.19.91l-.73,1.57A5.85,5.85,0,0,0,464.15,101.92Z"/><path class="cls-10" d="M350,122.06l4.29,5.82v-5.82h.81v7.16h-.84L350,123.41v5.81h-.82v-7.16Z"/><path class="cls-10" d="M358.12,122.06v3.24h4.31v-3.24h.82v7.16h-.82v-3.17h-4.31v3.17h-.82v-7.16Z"/><path class="cls-10" d="M367.49,122.83c-.92,0-1.52.37-1.52,1,0,1.86,4,.89,4,3.49,0,1.19-1.05,2-2.59,2a4.08,4.08,0,0,1-2.74-1.09l.37-.71a3.59,3.59,0,0,0,2.38,1c1,0,1.68-.42,1.68-1.11,0-1.91-4-.9-4-3.47,0-1.12,1-1.84,2.47-1.84a4.23,4.23,0,0,1,2.27.66l-.35.73A3.77,3.77,0,0,0,367.49,122.83Z"/><path class="cls-10" d="M379.77,129.34l-1.2-1.19a3,3,0,0,1-2.22,1.09,2,2,0,0,1-2.13-2c0-1,.79-1.57,1.63-2a2.9,2.9,0,0,1-.74-1.71,1.58,1.58,0,0,1,1.75-1.53,1.48,1.48,0,0,1,1.66,1.43c0,1-.88,1.47-1.78,2,.44.51,1,1.1,1.76,1.82a7.33,7.33,0,0,0,.73-1.39l.54.41a7.67,7.67,0,0,1-.81,1.44l1.24,1.22Zm-1.65-1.63c-.8-.8-1.44-1.45-1.92-2-.71.39-1.3.83-1.3,1.54a1.4,1.4,0,0,0,1.48,1.38A2.39,2.39,0,0,0,378.12,127.72ZM376.4,125c.79-.41,1.47-.8,1.47-1.52a.9.9,0,0,0-1-.9,1,1,0,0,0-1.09,1A2.52,2.52,0,0,0,376.4,125Z"/><path class="cls-10" d="M384.27,122.06l2.46,6.24,2.47-6.24h.86l-2.92,7.16h-.85l-2.9-7.16Z"/><path class="cls-10" d="M396,126.52a2.73,2.73,0,1,1-2.73-2.71A2.62,2.62,0,0,1,396,126.52Zm-4.66,0a1.93,1.93,0,1,0,1.93-2A1.89,1.89,0,0,0,391.35,126.53Z"/><path class="cls-10" d="M398.26,121.63v7.59h-.8v-7.59Z"/><path class="cls-10" d="M404.93,123.84v5.38h-.8V128a2.05,2.05,0,0,1-2,1.25,1.9,1.9,0,0,1-2-2.1v-3.31h.8V127a1.39,1.39,0,0,0,1.49,1.53,1.79,1.79,0,0,0,1.77-2v-2.64Z"/><path class="cls-10" d="M411.79,125.91v3.31H411v-3.11a1.41,1.41,0,0,0-1.52-1.53,1.76,1.76,0,0,0-1.81,1.76v2.88h-.8v-5.38h.8V125a2.13,2.13,0,0,1,2.09-1.22A1.9,1.9,0,0,1,411.79,125.91Z"/><path class="cls-10" d="M416.35,128.85a2.16,2.16,0,0,1-1.22.4c-.79,0-1.37-.46-1.37-1.52v-3.1H413V124h.78v-1.41h.79V124h1.71v.62h-1.71v3c0,.65.25.92.71.92a1.84,1.84,0,0,0,.86-.28Z"/><path class="cls-10" d="M420.9,129.22v-.84a2.32,2.32,0,0,1-2,.87,1.66,1.66,0,0,1-1.83-1.63c0-.94.75-1.53,2-1.54h1.77v-.34c0-.79-.49-1.27-1.44-1.27a2.93,2.93,0,0,0-1.71.62l-.34-.56a3.61,3.61,0,0,1,2.2-.73c1.33,0,2.06.71,2.08,1.85v3.56Zm0-1.85v-.65h-1.68c-.9,0-1.37.28-1.37.88s.48,1,1.24,1A1.73,1.73,0,0,0,420.88,127.37Z"/><path class="cls-10" d="M426.18,123.81v.78a1.79,1.79,0,0,0-1.93,1.77v2.86h-.8v-5.38h.8V125A2,2,0,0,1,426.18,123.81Z"/><path class="cls-10" d="M427.35,131.23a1.7,1.7,0,0,1-1.13-.39l.34-.63a1.27,1.27,0,0,0,.76.26,1.08,1.08,0,0,0,1-.78l.23-.51-2.23-5.34h.84l1.79,4.48,1.71-4.48h.82L429,130A1.74,1.74,0,0,1,427.35,131.23Z"/><path class="cls-10" d="M436.82,124.48c-.6,0-1.06.21-1.06.73,0,1.22,3,.59,3,2.52,0,1.05-.94,1.52-2,1.52a3,3,0,0,1-2.06-.76l.31-.58a2.73,2.73,0,0,0,1.79.69c.63,0,1.14-.25,1.16-.79,0-1.31-3-.64-3-2.55,0-1,.89-1.46,1.87-1.46a3.2,3.2,0,0,1,1.72.49l-.31.61A2.84,2.84,0,0,0,436.82,124.48Z"/><path class="cls-10" d="M444.71,126.83h-4.4a1.9,1.9,0,0,0,2,1.76,2.26,2.26,0,0,0,1.67-.69l.44.46a2.86,2.86,0,0,1-2.17.89,2.72,2.72,0,0,1,0-5.44C443.94,123.81,444.79,125,444.71,126.83Zm-.71-.63a1.7,1.7,0,0,0-1.8-1.72,1.82,1.82,0,0,0-1.88,1.72Z"/><path class="cls-10" d="M448.24,124.53a2,2,0,0,0,0,4,2.1,2.1,0,0,0,1.67-.7l.46.47a2.71,2.71,0,0,1-2.16.93,2.72,2.72,0,0,1,0-5.44,2.83,2.83,0,0,1,2.08.8l-.44.55A2.24,2.24,0,0,0,448.24,124.53Z"/><path class="cls-10" d="M454.59,128.85a2.16,2.16,0,0,1-1.22.4c-.79,0-1.37-.46-1.37-1.52v-3.1h-.78V124H452v-1.41h.79V124h1.71v.62h-1.71v3c0,.65.25.92.71.92a1.84,1.84,0,0,0,.86-.28Z"/><path class="cls-10" d="M460.71,126.52a2.73,2.73,0,1,1-2.73-2.71A2.62,2.62,0,0,1,460.71,126.52Zm-4.66,0a1.93,1.93,0,1,0,1.93-2A1.89,1.89,0,0,0,456.05,126.53Z"/><path class="cls-10" d="M464.84,123.81v.78a1.79,1.79,0,0,0-1.93,1.77v2.86h-.8v-5.38h.8V125A2,2,0,0,1,464.84,123.81Z"/><path class="cls-10" d="M392.13,140.85a2.52,2.52,0,0,1-2.57,2.71,2.26,2.26,0,0,1-2.1-1.19v3.14h-.8v-7.36h.8v1.16a2.25,2.25,0,0,1,2.08-1.19A2.55,2.55,0,0,1,392.13,140.85Zm-.81,0a1.93,1.93,0,1,0-1.92,2A1.91,1.91,0,0,0,391.33,140.83Z"/><path class="cls-10" d="M396.87,143.52v-.84a2.32,2.32,0,0,1-2,.87,1.66,1.66,0,0,1-1.83-1.63c0-.94.75-1.53,2-1.54h1.77V140c0-.79-.49-1.27-1.44-1.27a2.93,2.93,0,0,0-1.71.62l-.34-.56a3.61,3.61,0,0,1,2.2-.73c1.33,0,2.07.71,2.08,1.85v3.56Zm0-1.85V141h-1.68c-.9,0-1.37.28-1.37.88s.48,1,1.24,1A1.73,1.73,0,0,0,396.86,141.67Z"/><path class="cls-10" d="M402.16,138.12v.78a1.79,1.79,0,0,0-1.93,1.77v2.86h-.8v-5.38h.8v1.2A2,2,0,0,1,402.16,138.12Z"/><path class="cls-10" d="M406,143.16a2.16,2.16,0,0,1-1.22.4c-.79,0-1.37-.46-1.37-1.52v-3.1h-.78v-.62h.78V136.9h.79v1.41h1.71v.62h-1.71v3c0,.65.25.92.71.92a1.84,1.84,0,0,0,.86-.28Z"/><path class="cls-10" d="M412.14,140.21v3.31h-.8v-3.11a1.41,1.41,0,0,0-1.52-1.53,1.76,1.76,0,0,0-1.81,1.76v2.88h-.8v-5.38h.8v1.19a2.13,2.13,0,0,1,2.09-1.22A1.9,1.9,0,0,1,412.14,140.21Z"/><path class="cls-10" d="M418.56,141.13h-4.4a1.9,1.9,0,0,0,2,1.76,2.26,2.26,0,0,0,1.67-.69l.44.46a2.86,2.86,0,0,1-2.17.89,2.72,2.72,0,0,1,0-5.44C417.78,138.12,418.64,139.31,418.56,141.13Zm-.71-.63a1.7,1.7,0,0,0-1.8-1.72,1.82,1.82,0,0,0-1.88,1.72Z"/><path class="cls-10" d="M422.65,138.12v.78a1.79,1.79,0,0,0-1.93,1.77v2.86h-.8v-5.38h.8v1.2A2,2,0,0,1,422.65,138.12Z"/><path class="cls-10" d="M425.1,138.78c-.6,0-1.06.21-1.06.73,0,1.22,3,.59,3,2.52,0,1.05-.94,1.52-2,1.52a3,3,0,0,1-2.06-.76l.31-.58a2.73,2.73,0,0,0,1.79.69c.63,0,1.14-.25,1.16-.79,0-1.31-3-.64-3-2.55,0-1,.89-1.46,1.87-1.46a3.2,3.2,0,0,1,1.72.49l-.31.61A2.84,2.84,0,0,0,425.1,138.78Z"/></g><g id="Layer_4" data-name="Layer 4"><path class="cls-9" d="M0,297.91H0A73.48,73.48,0,1,1,73.48,371.4,73.48,73.48,0,0,1,0,297.91Z"/><path class="cls-6" d="M24.11,262.83,26.56,268,29,262.83H31.1v8.4H29.4v-5.66l-2.23,4.81H25.93l-2.23-4.81v5.66H22v-8.4Z"/><path class="cls-6" d="M39.36,262.83v1.57h-4.5v1.82h4v1.57h-4v1.86h4.63v1.57H33v-8.4Z"/><path class="cls-6" d="M42.71,262.83l4.08,5.4v-5.4h1.8v8.4H46.86l-4.07-5.39v5.39H41v-8.4Z"/><path class="cls-6" d="M56.63,262.83v1.61H54.06v6.79h-1.9v-6.79H49.61v-1.61Z"/><path class="cls-6" d="M63.19,269.59H59.3l-.66,1.63h-2l3.65-8.4h2l3.59,8.4h-2Zm-.61-1.52-1.32-3.26-1.33,3.26Z"/><path class="cls-6" d="M68.65,262.83v6.74h3.6v1.66H66.76v-8.4Z"/><path class="cls-6" d="M78.88,262.83v3.5h3.8v-3.5h1.9v8.4h-1.9v-3.31h-3.8v3.31H77v-8.4Z"/><path class="cls-6" d="M92.82,262.83v1.57h-4.5v1.82h4v1.57h-4v1.86h4.63v1.57H86.42v-8.4Z"/><path class="cls-6" d="M100,269.59H96.09l-.66,1.63h-2l3.65-8.4h2l3.59,8.4h-2Zm-.61-1.52L98,264.81l-1.33,3.26Z"/><path class="cls-6" d="M105.44,262.83v6.74H109v1.66h-5.49v-8.4Z"/><path class="cls-6" d="M116.36,262.83v1.61h-2.57v6.79h-1.9v-6.79h-2.55v-1.61Z"/><path class="cls-6" d="M119.28,262.83v3.5h3.8v-3.5H125v8.4h-1.9v-3.31h-3.8v3.31h-1.89v-8.4Z"/><path class="cls-6" d="M15.88,279.69c-.64,0-1.07.23-1.07.68,0,1.55,4.47.68,4.46,3.71,0,1.64-1.43,2.53-3.29,2.53a5.89,5.89,0,0,1-3.71-1.33l.75-1.55A5,5,0,0,0,16,285c.78,0,1.25-.29,1.25-.8,0-1.58-4.47-.66-4.47-3.63,0-1.52,1.31-2.48,3.25-2.48a6,6,0,0,1,3.19.91l-.73,1.57A5.85,5.85,0,0,0,15.88,279.69Z"/><path class="cls-6" d="M24.26,285A1.78,1.78,0,0,0,26.13,283v-4.88H28V283a3.42,3.42,0,0,1-3.77,3.6c-2.33,0-3.81-1.38-3.81-3.6v-4.88h1.89V283A1.81,1.81,0,0,0,24.26,285Z"/><path class="cls-6" d="M36.65,281.07c0,2-1.22,3.08-3.36,3.08H31.62v2.4H29.73v-8.4h3.56C35.42,278.16,36.65,279.21,36.65,281.07Zm-1.8.06c0-.94-.6-1.4-1.66-1.4H31.62v2.84h1.57C34.25,282.57,34.85,282.09,34.85,281.13Z"/><path class="cls-6" d="M44.78,281.07c0,2-1.22,3.08-3.36,3.08H39.76v2.4H37.86v-8.4h3.56C43.56,278.16,44.78,279.21,44.78,281.07Zm-1.8.06c0-.94-.6-1.4-1.66-1.4H39.76v2.84h1.57C42.38,282.57,43,282.09,43,281.13Z"/><path class="cls-6" d="M54.42,282.35a4.52,4.52,0,1,1-4.51-4.26A4.32,4.32,0,0,1,54.42,282.35Zm-7.08,0A2.61,2.61,0,0,0,49.93,285a2.61,2.61,0,1,0-2.59-2.63Z"/><path class="cls-6" d="M60.83,286.55l-1.33-2.4H57.56v2.4H55.67v-8.4h3.65c2.2,0,3.44,1.06,3.44,2.91a2.77,2.77,0,0,1-1.57,2.71L63,286.55Zm-3.26-4h1.75c1,0,1.64-.48,1.64-1.44s-.6-1.4-1.64-1.4H57.56Z"/><path class="cls-6" d="M70.55,278.16v1.61H68v6.79h-1.9v-6.79H63.53v-1.61Z"/><path class="cls-6" d="M78.08,279.69c-.64,0-1.07.23-1.07.68,0,1.55,4.47.68,4.46,3.71,0,1.64-1.43,2.53-3.29,2.53a5.89,5.89,0,0,1-3.71-1.33l.75-1.55a5,5,0,0,0,3,1.26c.78,0,1.25-.29,1.25-.8,0-1.58-4.47-.66-4.47-3.63,0-1.52,1.31-2.48,3.25-2.48a6,6,0,0,1,3.19.91l-.73,1.57A5.85,5.85,0,0,0,78.08,279.69Z"/><path class="cls-6" d="M89.21,278.16v1.57h-4.5v1.82h4v1.57h-4V285h4.63v1.57H82.81v-8.4Z"/><path class="cls-6" d="M96,286.55l-1.33-2.4H92.72v2.4H90.83v-8.4h3.65c2.2,0,3.44,1.06,3.44,2.91a2.77,2.77,0,0,1-1.57,2.71l1.79,2.77Zm-3.26-4h1.75c1,0,1.64-.48,1.64-1.44s-.6-1.4-1.64-1.4H92.72Z"/><path class="cls-6" d="M100.63,278.16l2.29,6.33,2.3-6.33h2l-3.33,8.4h-2l-3.3-8.4Z"/><path class="cls-6" d="M110,278.16v8.4h-1.89v-8.4Z"/><path class="cls-6" d="M115.76,279.74a2.58,2.58,0,0,0,0,5.17,3.24,3.24,0,0,0,2.18-1l1.12,1.21a4.91,4.91,0,0,1-3.39,1.5,4.27,4.27,0,1,1,.07-8.54,4.78,4.78,0,0,1,3.31,1.39l-1.1,1.34A3,3,0,0,0,115.76,279.74Z"/><path class="cls-6" d="M126.58,278.16v1.57h-4.5v1.82h4v1.57h-4V285h4.63v1.57h-6.52v-8.4Z"/><path class="cls-6" d="M131.12,279.69c-.64,0-1.07.23-1.07.68,0,1.55,4.47.68,4.46,3.71,0,1.64-1.43,2.53-3.29,2.53a5.89,5.89,0,0,1-3.71-1.33l.75-1.55a5,5,0,0,0,3,1.26c.78,0,1.25-.29,1.25-.8,0-1.58-4.47-.66-4.47-3.63,0-1.52,1.31-2.48,3.25-2.48a6,6,0,0,1,3.19.91l-.73,1.57A5.85,5.85,0,0,0,131.12,279.69Z"/><path class="cls-10" d="M23.68,299.83,28,305.65v-5.82h.81V307h-.84l-4.29-5.81V307h-.82v-7.16Z"/><path class="cls-10" d="M31.77,299.83v3.24h4.31v-3.24h.82V307h-.82v-3.17H31.77V307H31v-7.16Z"/><path class="cls-10" d="M41.14,300.6c-.92,0-1.52.37-1.52,1,0,1.86,4,.89,4,3.49,0,1.19-1.05,2-2.59,2a4.09,4.09,0,0,1-2.74-1.09l.37-.71a3.59,3.59,0,0,0,2.38,1c1,0,1.68-.42,1.68-1.11,0-1.91-4-.9-4-3.47,0-1.12,1-1.84,2.47-1.84a4.23,4.23,0,0,1,2.27.66l-.35.73A3.77,3.77,0,0,0,41.14,300.6Z"/><path class="cls-10" d="M51.07,298.6l-3.2,9.63h-.7l3.19-9.63Z"/><path class="cls-10" d="M56.76,300.6c-.92,0-1.52.37-1.52,1,0,1.86,4,.89,4,3.49,0,1.19-1.05,2-2.59,2a4.09,4.09,0,0,1-2.74-1.09l.37-.71a3.59,3.59,0,0,0,2.38,1c1,0,1.68-.42,1.68-1.11,0-1.91-4-.9-4-3.47,0-1.12,1-1.84,2.47-1.84a4.23,4.23,0,0,1,2.27.66l-.35.73A3.77,3.77,0,0,0,56.76,300.6Z"/><path class="cls-10" d="M61.74,299.83v6.4h3.14V307h-4v-7.16Z"/><path class="cls-10" d="M69.44,307v-.84a2.32,2.32,0,0,1-2,.87,1.66,1.66,0,0,1-1.83-1.63c0-.94.75-1.53,2-1.54h1.77v-.34c0-.79-.49-1.27-1.44-1.27a2.93,2.93,0,0,0-1.71.62l-.34-.56a3.61,3.61,0,0,1,2.2-.73c1.33,0,2.06.71,2.08,1.85V307Zm0-1.85v-.65H67.75c-.9,0-1.37.28-1.37.88s.48,1,1.24,1A1.73,1.73,0,0,0,69.43,305.14Z"/><path class="cls-10" d="M73.11,299.83,75.73,305l2.61-5.19h1V307h-.76v-6L76,306.23h-.49L72.88,301v6H72.1v-7.16Z"/><path class="cls-10" d="M90,304.31A2.52,2.52,0,0,1,87.41,307a2.26,2.26,0,0,1-2.1-1.19V309h-.8v-7.36h.8v1.16a2.25,2.25,0,0,1,2.08-1.19A2.55,2.55,0,0,1,90,304.31Zm-.81,0a1.93,1.93,0,1,0-1.92,2A1.91,1.91,0,0,0,89.17,304.29Z"/><path class="cls-10" d="M94.71,307v-.84a2.32,2.32,0,0,1-2,.87,1.66,1.66,0,0,1-1.83-1.63c0-.94.75-1.53,2-1.54h1.77v-.34c0-.79-.49-1.27-1.44-1.27a2.93,2.93,0,0,0-1.71.62l-.34-.56a3.61,3.61,0,0,1,2.2-.73c1.33,0,2.07.71,2.08,1.85V307Zm0-1.85v-.65H93c-.9,0-1.37.28-1.37.88s.48,1,1.24,1A1.73,1.73,0,0,0,94.7,305.14Z"/><path class="cls-10" d="M100,301.58v.78a1.79,1.79,0,0,0-1.93,1.77V307h-.8v-5.38h.8v1.2A2,2,0,0,1,100,301.58Z"/><path class="cls-10" d="M103.85,306.62a2.16,2.16,0,0,1-1.22.4c-.79,0-1.37-.46-1.37-1.52v-3.1h-.78v-.62h.78v-1.41H102v1.41h1.71v.62H102v3c0,.65.25.92.71.92a1.84,1.84,0,0,0,.86-.28Z"/><path class="cls-10" d="M110,303.68V307h-.8v-3.11a1.41,1.41,0,0,0-1.52-1.53,1.76,1.76,0,0,0-1.81,1.76V307h-.8v-5.38h.8v1.19a2.13,2.13,0,0,1,2.09-1.22A1.9,1.9,0,0,1,110,303.68Z"/><path class="cls-10" d="M116.4,304.6H112a1.9,1.9,0,0,0,2,1.76,2.26,2.26,0,0,0,1.67-.69l.44.46a2.86,2.86,0,0,1-2.17.89,2.72,2.72,0,0,1,0-5.44C115.62,301.58,116.48,302.78,116.4,304.6Zm-.71-.63a1.7,1.7,0,0,0-1.8-1.72A1.82,1.82,0,0,0,112,304Z"/><path class="cls-10" d="M120.49,301.58v.78a1.79,1.79,0,0,0-1.93,1.77V307h-.8v-5.38h.8v1.2A2,2,0,0,1,120.49,301.58Z"/><path class="cls-10" d="M122.95,302.24c-.6,0-1.06.21-1.06.73,0,1.22,3,.59,3,2.52,0,1.05-.94,1.52-2,1.52a3,3,0,0,1-2.06-.76l.31-.58a2.73,2.73,0,0,0,1.79.69c.63,0,1.14-.25,1.16-.79,0-1.31-3-.64-3-2.55,0-1,.89-1.46,1.87-1.46a3.2,3.2,0,0,1,1.72.49l-.31.61A2.84,2.84,0,0,0,122.95,302.24Z"/><path class="cls-10" d="M11.22,314.14l2.46,6.24,2.47-6.24H17l-2.92,7.16h-.85l-2.9-7.16Z"/><path class="cls-10" d="M23,318.59a2.62,2.62,0,0,1-2.73,2.73,2.72,2.72,0,1,1,0-5.44A2.61,2.61,0,0,1,23,318.59Zm-4.66,0a1.93,1.93,0,1,0,1.93-2A1.89,1.89,0,0,0,18.31,318.6Z"/><path class="cls-10" d="M25.21,313.71v7.59h-.8v-7.59Z"/><path class="cls-10" d="M31.88,315.92v5.38h-.8v-1.22a2.05,2.05,0,0,1-2,1.25,1.9,1.9,0,0,1-2-2.1v-3.31h.8V319a1.39,1.39,0,0,0,1.49,1.53,1.79,1.79,0,0,0,1.77-2v-2.64Z"/><path class="cls-10" d="M38.74,318v3.31h-.8v-3.11a1.41,1.41,0,0,0-1.52-1.53,1.76,1.76,0,0,0-1.81,1.76v2.88h-.8v-5.38h.8v1.19a2.13,2.13,0,0,1,2.09-1.22A1.9,1.9,0,0,1,38.74,318Z"/><path class="cls-10" d="M43.3,320.92a2.16,2.16,0,0,1-1.22.4c-.79,0-1.37-.46-1.37-1.52v-3.1h-.78v-.62h.78v-1.41h.79v1.41h1.71v.62H41.5v3c0,.65.25.92.71.92a1.85,1.85,0,0,0,.86-.28Z"/><path class="cls-10" d="M47.85,321.29v-.84a2.32,2.32,0,0,1-2,.87A1.66,1.66,0,0,1,44,319.7c0-.94.75-1.53,2-1.54h1.77v-.34c0-.79-.49-1.27-1.44-1.27a2.93,2.93,0,0,0-1.71.62l-.34-.56a3.61,3.61,0,0,1,2.2-.73c1.33,0,2.07.71,2.08,1.85v3.56Zm0-1.85v-.65H46.16c-.9,0-1.37.28-1.37.88s.48,1,1.24,1A1.73,1.73,0,0,0,47.84,319.44Z"/><path class="cls-10" d="M53.13,315.88v.78a1.79,1.79,0,0,0-1.93,1.77v2.86h-.8v-5.38h.8v1.2A2,2,0,0,1,53.13,315.88Z"/><path class="cls-10" d="M54.3,323.31a1.7,1.7,0,0,1-1.13-.39l.34-.63a1.27,1.27,0,0,0,.76.26,1.08,1.08,0,0,0,1-.78l.23-.51-2.23-5.34h.84l1.79,4.48,1.71-4.48h.82l-2.47,6.14A1.74,1.74,0,0,1,54.3,323.31Z"/><path class="cls-10" d="M63.78,316.55c-.6,0-1.06.21-1.06.73,0,1.22,3,.59,3,2.53,0,1.05-.94,1.52-2,1.52a3,3,0,0,1-2.06-.76L62,320a2.73,2.73,0,0,0,1.79.68c.63,0,1.14-.25,1.16-.79,0-1.31-3-.64-3-2.55,0-1,.89-1.46,1.87-1.46a3.2,3.2,0,0,1,1.72.49l-.31.61A2.84,2.84,0,0,0,63.78,316.55Z"/><path class="cls-10" d="M71.67,318.9h-4.4a1.9,1.9,0,0,0,2,1.76,2.26,2.26,0,0,0,1.67-.68l.44.46a2.86,2.86,0,0,1-2.17.89,2.72,2.72,0,0,1,0-5.44C70.89,315.88,71.75,317.08,71.67,318.9Zm-.71-.63a1.7,1.7,0,0,0-1.8-1.72,1.82,1.82,0,0,0-1.88,1.72Z"/><path class="cls-10" d="M75.19,316.6a2,2,0,0,0,0,4,2.1,2.1,0,0,0,1.67-.7l.46.47a2.71,2.71,0,0,1-2.16.93,2.72,2.72,0,0,1,0-5.44,2.83,2.83,0,0,1,2.08.8l-.44.55A2.24,2.24,0,0,0,75.19,316.6Z"/><path class="cls-10" d="M81.54,320.92a2.16,2.16,0,0,1-1.22.4c-.79,0-1.37-.46-1.37-1.52v-3.1h-.78v-.62H79v-1.41h.79v1.41h1.71v.62H79.75v3c0,.65.25.92.71.92a1.85,1.85,0,0,0,.86-.28Z"/><path class="cls-10" d="M87.67,318.59a2.73,2.73,0,1,1-2.73-2.71A2.62,2.62,0,0,1,87.67,318.59Zm-4.66,0a1.93,1.93,0,1,0,1.93-2A1.89,1.89,0,0,0,83,318.6Z"/><path class="cls-10" d="M91.79,315.88v.78a1.79,1.79,0,0,0-1.93,1.77v2.86h-.8v-5.38h.8v1.2A2,2,0,0,1,91.79,315.88Z"/><path class="cls-10" d="M101.44,318.61a2.52,2.52,0,0,1-2.57,2.71,2.26,2.26,0,0,1-2.1-1.19v3.14H96v-7.36h.8v1.16a2.25,2.25,0,0,1,2.08-1.19A2.55,2.55,0,0,1,101.44,318.61Zm-.81,0a1.93,1.93,0,1,0-1.92,2A1.91,1.91,0,0,0,100.63,318.59Z"/><path class="cls-10" d="M106.18,321.29v-.84a2.32,2.32,0,0,1-2,.87,1.66,1.66,0,0,1-1.83-1.62c0-.94.75-1.53,2-1.54h1.77v-.34c0-.79-.49-1.27-1.44-1.27a2.93,2.93,0,0,0-1.71.62l-.34-.56a3.61,3.61,0,0,1,2.2-.73c1.33,0,2.06.71,2.08,1.85v3.56Zm0-1.85v-.65h-1.68c-.9,0-1.37.28-1.37.88s.48,1,1.24,1A1.73,1.73,0,0,0,106.17,319.44Z"/><path class="cls-10" d="M111.46,315.88v.78a1.79,1.79,0,0,0-1.93,1.77v2.86h-.8v-5.38h.8v1.2A2,2,0,0,1,111.46,315.88Z"/><path class="cls-10" d="M115.31,320.92a2.16,2.16,0,0,1-1.22.4c-.79,0-1.37-.46-1.37-1.52v-3.1H112v-.62h.78v-1.41h.79v1.41h1.71v.62h-1.71v3c0,.65.25.92.71.92a1.85,1.85,0,0,0,.86-.28Z"/><path class="cls-10" d="M121.45,318v3.31h-.8v-3.11a1.41,1.41,0,0,0-1.52-1.53,1.76,1.76,0,0,0-1.81,1.76v2.88h-.8v-5.38h.8v1.19a2.13,2.13,0,0,1,2.09-1.22A1.9,1.9,0,0,1,121.45,318Z"/><path class="cls-10" d="M127.86,318.9h-4.4a1.9,1.9,0,0,0,2,1.76,2.26,2.26,0,0,0,1.67-.68l.44.46a2.86,2.86,0,0,1-2.17.89,2.72,2.72,0,0,1,0-5.44C127.09,315.88,127.95,317.08,127.86,318.9Zm-.71-.63a1.7,1.7,0,0,0-1.8-1.72,1.82,1.82,0,0,0-1.88,1.72Z"/><path class="cls-10" d="M132,315.88v.78a1.79,1.79,0,0,0-1.93,1.77v2.86h-.8v-5.38h.8v1.2A2,2,0,0,1,132,315.88Z"/><path class="cls-10" d="M134.41,316.55c-.6,0-1.06.21-1.06.73,0,1.22,3,.59,3,2.53,0,1.05-.94,1.52-2,1.52a3,3,0,0,1-2.06-.76l.31-.58a2.73,2.73,0,0,0,1.79.68c.63,0,1.14-.25,1.16-.79,0-1.31-3-.64-3-2.55,0-1,.89-1.46,1.87-1.46a3.2,3.2,0,0,1,1.72.49l-.31.61A2.84,2.84,0,0,0,134.41,316.55Z"/></g><g id="Layer_5" data-name="Layer 5"><path class="cls-9" d="M166.52,367.59h0A73.48,73.48,0,1,1,240,441.08,73.48,73.48,0,0,1,166.52,367.59Z"/><path class="cls-6" d="M212.85,348.07v6.74h3.6v1.66H211v-8.4Z"/><path class="cls-6" d="M223.13,354.84h-3.89l-.66,1.63h-2l3.65-8.4h2l3.59,8.4h-2Zm-.61-1.52-1.32-3.26-1.33,3.26Z"/><path class="cls-6" d="M228.81,348.07l2.45,5.13,2.43-5.13h2.11v8.4h-1.7v-5.66l-2.23,4.81h-1.24l-2.23-4.81v5.66h-1.71v-8.4Z"/><path class="cls-6" d="M244.53,350.17a1.86,1.86,0,0,1-1.45,1.85,2,2,0,0,1,1.75,2.12c0,1.44-1.22,2.33-3.17,2.33h-4v-8.4h3.86C243.38,348.07,244.53,348.88,244.53,350.17Zm-1.94.35c0-.58-.43-.91-1.15-.9h-1.87v1.84h1.87C242.16,351.46,242.59,351.11,242.59,350.52Zm.29,3.38c0-.61-.55-1-1.44-1h-1.87v2h1.87C242.32,354.92,242.88,354.55,242.88,353.9Z"/><path class="cls-6" d="M252.61,348.07v1.57h-4.5v1.82h4V353h-4v1.86h4.63v1.57h-6.52v-8.4Z"/><path class="cls-6" d="M260.42,348.07v1.61h-2.57v6.79H256v-6.79H253.4v-1.61Z"/><path class="cls-6" d="M263.34,348.07v3.5h3.8v-3.5H269v8.4h-1.9v-3.31h-3.8v3.31h-1.89v-8.4Z"/><path class="cls-6" d="M192.8,365a2.58,2.58,0,0,0,0,5.17,3.24,3.24,0,0,0,2.18-1l1.12,1.21a4.91,4.91,0,0,1-3.39,1.5,4.27,4.27,0,1,1,.07-8.54,4.78,4.78,0,0,1,3.31,1.39l-1.1,1.34A3,3,0,0,0,192.8,365Z"/><path class="cls-6" d="M205.65,367.6a4.52,4.52,0,1,1-4.51-4.26A4.32,4.32,0,0,1,205.65,367.6Zm-7.08,0a2.61,2.61,0,0,0,2.59,2.63,2.61,2.61,0,1,0-2.59-2.63Z"/><path class="cls-6" d="M209,363.4l2.45,5.13,2.43-5.13H216v8.4h-1.7v-5.66l-2.23,4.81h-1.24l-2.23-4.81v5.66H206.9v-8.4Z"/><path class="cls-6" d="M220,363.4l2.45,5.13,2.43-5.13H227v8.4h-1.7v-5.66l-2.23,4.81h-1.24l-2.23-4.81v5.66h-1.71v-8.4Z"/><path class="cls-6" d="M230.76,363.4v8.4h-1.89v-8.4Z"/><path class="cls-6" d="M235.53,364.94c-.64,0-1.07.23-1.07.68,0,1.55,4.47.68,4.46,3.71,0,1.64-1.43,2.53-3.29,2.53a5.89,5.89,0,0,1-3.71-1.33l.75-1.55a5,5,0,0,0,3,1.26c.78,0,1.25-.29,1.25-.8,0-1.58-4.47-.66-4.47-3.63,0-1.52,1.31-2.48,3.25-2.48a6,6,0,0,1,3.19.91l-.73,1.57A5.86,5.86,0,0,0,235.53,364.94Z"/><path class="cls-6" d="M243.18,364.94c-.64,0-1.07.23-1.07.68,0,1.55,4.47.68,4.46,3.71,0,1.64-1.43,2.53-3.29,2.53a5.89,5.89,0,0,1-3.71-1.33l.75-1.55a5,5,0,0,0,3,1.26c.78,0,1.25-.29,1.25-.8,0-1.58-4.47-.66-4.47-3.63,0-1.52,1.31-2.48,3.25-2.48a6,6,0,0,1,3.19.91l-.73,1.57A5.85,5.85,0,0,0,243.18,364.94Z"/><path class="cls-6" d="M249.8,363.4v8.4h-1.89v-8.4Z"/><path class="cls-6" d="M260.08,367.6a4.52,4.52,0,1,1-4.51-4.26A4.32,4.32,0,0,1,260.08,367.6Zm-7.08,0a2.61,2.61,0,0,0,2.59,2.63A2.61,2.61,0,1,0,253,367.6Z"/><path class="cls-6" d="M263.06,363.4l4.08,5.4v-5.4h1.8v8.4h-1.73l-4.07-5.38v5.38h-1.81v-8.4Z"/><path class="cls-6" d="M272.68,363.4v8.4h-1.89v-8.4Z"/><path class="cls-6" d="M276.27,363.4l4.08,5.4v-5.4h1.8v8.4h-1.73l-4.07-5.38v5.38h-1.81v-8.4Z"/><path class="cls-6" d="M289.64,367.56h1.64v3.23a6.2,6.2,0,0,1-3.41,1.09,4.28,4.28,0,1,1,.11-8.54,5.29,5.29,0,0,1,3.37,1.22l-1.07,1.36A3.52,3.52,0,0,0,288,365a2.62,2.62,0,1,0,0,5.24,3.82,3.82,0,0,0,1.64-.46Z"/><path class="cls-6" d="M213.5,380.26c-.64,0-1.07.23-1.07.68,0,1.55,4.47.68,4.46,3.71,0,1.64-1.43,2.53-3.29,2.53a5.89,5.89,0,0,1-3.71-1.33l.75-1.55a5,5,0,0,0,3,1.26c.78,0,1.25-.29,1.25-.8,0-1.58-4.47-.66-4.47-3.63,0-1.52,1.31-2.48,3.25-2.48a6,6,0,0,1,3.19.91l-.73,1.57A5.86,5.86,0,0,0,213.5,380.26Z"/><path class="cls-6" d="M224.62,378.73v1.57h-4.5v1.82h4v1.57h-4v1.86h4.63v1.57h-6.52v-8.4Z"/><path class="cls-6" d="M231.4,387.12l-1.33-2.4h-1.93v2.4h-1.89v-8.4h3.65c2.2,0,3.44,1.06,3.44,2.91a2.77,2.77,0,0,1-1.57,2.71l1.79,2.77Zm-3.26-4h1.75c1,0,1.64-.48,1.64-1.44s-.6-1.4-1.64-1.4h-1.75Z"/><path class="cls-6" d="M236,378.73l2.29,6.33,2.3-6.33h2l-3.33,8.4h-2l-3.3-8.4Z"/><path class="cls-6" d="M245.42,378.73v8.4h-1.89v-8.4Z"/><path class="cls-6" d="M251.17,380.31a2.58,2.58,0,0,0,0,5.17,3.24,3.24,0,0,0,2.18-1l1.12,1.21a4.91,4.91,0,0,1-3.39,1.5,4.27,4.27,0,1,1,.07-8.54,4.78,4.78,0,0,1,3.31,1.39l-1.1,1.34A3,3,0,0,0,251.17,380.31Z"/><path class="cls-6" d="M262,378.73v1.57h-4.5v1.82h4v1.57h-4v1.86h4.63v1.57h-6.52v-8.4Z"/><path class="cls-6" d="M266.54,380.26c-.64,0-1.07.23-1.07.68,0,1.55,4.47.68,4.46,3.71,0,1.64-1.43,2.53-3.29,2.53a5.89,5.89,0,0,1-3.71-1.33l.75-1.55a5,5,0,0,0,3,1.26c.78,0,1.25-.29,1.25-.8,0-1.58-4.47-.66-4.47-3.63,0-1.52,1.31-2.48,3.25-2.48a6,6,0,0,1,3.19.91l-.73,1.57A5.86,5.86,0,0,0,266.54,380.26Z"/></g><g id="Layer_6" data-name="Layer 6"><path class="cls-9" d="M333,298.17h0a73.48,73.48,0,1,1,73.48,73.48A73.48,73.48,0,0,1,333,298.17Z"/><path class="cls-6" d="M372.76,263.05l-1.33-2.4H369.5v2.4h-1.89v-8.4h3.65c2.2,0,3.44,1.06,3.44,2.91a2.77,2.77,0,0,1-1.57,2.71l1.79,2.77Zm-3.26-4h1.75c1,0,1.64-.48,1.64-1.44s-.6-1.4-1.64-1.4H369.5Z"/><path class="cls-6" d="M382.69,254.66v1.57h-4.5V258h4v1.57h-4v1.86h4.63v1.57h-6.52v-8.4Z"/><path class="cls-6" d="M387.22,256.19c-.64,0-1.07.23-1.07.68,0,1.55,4.47.68,4.46,3.71,0,1.64-1.43,2.53-3.29,2.53a5.89,5.89,0,0,1-3.71-1.33l.75-1.55a5,5,0,0,0,3,1.26c.78,0,1.25-.29,1.25-.8,0-1.58-4.47-.66-4.47-3.63,0-1.52,1.31-2.48,3.25-2.48a6,6,0,0,1,3.19.91l-.73,1.57A5.85,5.85,0,0,0,387.22,256.19Z"/><path class="cls-6" d="M398.35,254.66v1.57h-4.5V258h4v1.57h-4v1.86h4.63v1.57H392v-8.4Z"/><path class="cls-6" d="M405.51,261.42h-3.89l-.66,1.63h-2l3.65-8.4h2l3.59,8.4h-2Zm-.61-1.52-1.32-3.26-1.33,3.26Z"/><path class="cls-6" d="M414.23,263.05l-1.33-2.4H411v2.4h-1.89v-8.4h3.65c2.2,0,3.44,1.06,3.44,2.91a2.77,2.77,0,0,1-1.57,2.71l1.79,2.77Zm-3.26-4h1.75c1,0,1.64-.48,1.64-1.44s-.6-1.4-1.64-1.4H411Z"/><path class="cls-6" d="M421.66,256.24a2.58,2.58,0,0,0,0,5.17,3.24,3.24,0,0,0,2.18-1l1.12,1.21a4.91,4.91,0,0,1-3.39,1.5,4.27,4.27,0,1,1,.07-8.54,4.78,4.78,0,0,1,3.31,1.39l-1.1,1.34A3,3,0,0,0,421.66,256.24Z"/><path class="cls-6" d="M428,254.66v3.5h3.8v-3.5h1.9v8.4h-1.9v-3.31H428v3.31h-1.89v-8.4Z"/><path class="cls-6" d="M445.32,263.38l-1.22-1.2a3.68,3.68,0,0,1-2.43,1,2.55,2.55,0,0,1-2.79-2.42,2.64,2.64,0,0,1,1.72-2.28,3.13,3.13,0,0,1-.73-1.88c0-1.19.91-2,2.33-2s2.31.77,2.31,1.85-1,1.77-2,2.29c.38.43.86.94,1.45,1.51a6.29,6.29,0,0,0,.64-1.4l1.17.88a7.47,7.47,0,0,1-.79,1.51c.38.38.82.79,1.28,1.24Zm-2.2-2.15c-.74-.74-1.33-1.36-1.81-1.88-.54.34-.92.71-.92,1.24a1.24,1.24,0,0,0,1.34,1.21A2.17,2.17,0,0,0,443.13,261.23Zm-1.33-3.41c.7-.37,1.25-.77,1.25-1.39a.76.76,0,0,0-.84-.77.85.85,0,0,0-.9.89A2.31,2.31,0,0,0,441.8,257.82Z"/><path class="cls-6" d="M369.27,270v8.4h-1.89V270Z"/><path class="cls-6" d="M372.85,270l4.08,5.4V270h1.8v8.4H377L372.94,273v5.39h-1.81V270Z"/><path class="cls-6" d="M382.31,270l4.08,5.4V270h1.8v8.4h-1.73L382.39,273v5.39h-1.81V270Z"/><path class="cls-6" d="M398.46,274.18a4.52,4.52,0,1,1-4.51-4.26A4.32,4.32,0,0,1,398.46,274.18Zm-7.08,0a2.61,2.61,0,0,0,2.59,2.63,2.61,2.61,0,1,0-2.59-2.63Z"/><path class="cls-6" d="M400.83,270l2.29,6.33,2.3-6.33h2l-3.33,8.4h-2l-3.3-8.4Z"/><path class="cls-6" d="M413.84,276.75H410l-.66,1.63h-2L411,270h2l3.59,8.4h-2Zm-.61-1.52L411.91,272l-1.33,3.26Z"/><path class="cls-6" d="M423.6,270v1.61H421v6.79h-1.9v-6.79h-2.55V270Z"/><path class="cls-6" d="M426.52,270v8.4h-1.89V270Z"/><path class="cls-6" d="M436.8,274.18a4.52,4.52,0,1,1-4.51-4.26A4.32,4.32,0,0,1,436.8,274.18Zm-7.08,0a2.61,2.61,0,0,0,2.59,2.63,2.61,2.61,0,1,0-2.59-2.63Z"/><path class="cls-6" d="M439.78,270l4.08,5.4V270h1.8v8.4h-1.73L439.86,273v5.39H438V270Z"/><path class="cls-10" d="M356.74,294.06c0,1.57-1,2.48-2.79,2.48h-1.87v2.27h-.82v-7.16H354C355.72,291.66,356.74,292.54,356.74,294.06Zm-.79,0c0-1.09-.75-1.67-2-1.67h-1.84v3.37h1.84C355.21,295.79,356,295.2,356,294.08Z"/><path class="cls-10" d="M360.72,293.4v.78a1.79,1.79,0,0,0-1.93,1.77v2.86H358v-5.38h.8v1.2A2,2,0,0,1,360.72,293.4Z"/><path class="cls-10" d="M362.7,291.89a.52.52,0,1,1-1,0,.52.52,0,1,1,1,0Zm-.12,1.54v5.38h-.79v-5.38Z"/><path class="cls-10" d="M364.44,293.44l1.72,4.57,1.71-4.57h.81l-2.12,5.38h-.83l-2.14-5.38Z"/><path class="cls-10" d="M372.95,298.81V298a2.32,2.32,0,0,1-2,.87,1.66,1.66,0,0,1-1.83-1.63c0-.94.75-1.53,2-1.54h1.77v-.34c0-.79-.49-1.27-1.44-1.27a2.93,2.93,0,0,0-1.71.62l-.34-.56a3.61,3.61,0,0,1,2.2-.73c1.33,0,2.06.71,2.08,1.85v3.56Zm0-1.85v-.65h-1.68c-.9,0-1.37.28-1.37.88s.48,1,1.24,1A1.73,1.73,0,0,0,372.94,297Z"/><path class="cls-10" d="M378.28,298.44a2.16,2.16,0,0,1-1.22.4c-.79,0-1.37-.46-1.37-1.52v-3.1h-.78v-.62h.78v-1.41h.79v1.41h1.71v.62h-1.71v3c0,.65.25.92.71.92a1.84,1.84,0,0,0,.86-.28Z"/><path class="cls-10" d="M384.13,296.42h-4.4a1.9,1.9,0,0,0,2,1.76,2.26,2.26,0,0,0,1.67-.69l.44.46a2.86,2.86,0,0,1-2.17.89,2.72,2.72,0,0,1,0-5.44C383.35,293.4,384.21,294.6,384.13,296.42Zm-.71-.63a1.7,1.7,0,0,0-1.8-1.72,1.82,1.82,0,0,0-1.88,1.72Z"/><path class="cls-10" d="M389.94,294.07c-.6,0-1.06.21-1.06.73,0,1.22,3,.59,3,2.52,0,1.05-.94,1.52-2,1.52a3,3,0,0,1-2.06-.76l.31-.58a2.73,2.73,0,0,0,1.79.69c.63,0,1.14-.25,1.16-.79,0-1.31-3-.64-3-2.55,0-1,.89-1.46,1.87-1.46a3.2,3.2,0,0,1,1.72.49l-.31.61A2.84,2.84,0,0,0,389.94,294.07Z"/><path class="cls-10" d="M397.83,296.42h-4.4a1.9,1.9,0,0,0,2,1.76,2.26,2.26,0,0,0,1.67-.69l.44.46a2.86,2.86,0,0,1-2.17.89,2.72,2.72,0,0,1,0-5.44C397.05,293.4,397.91,294.6,397.83,296.42Zm-.71-.63a1.7,1.7,0,0,0-1.8-1.72,1.82,1.82,0,0,0-1.88,1.72Z"/><path class="cls-10" d="M401.35,294.12a2,2,0,0,0,0,4,2.1,2.1,0,0,0,1.67-.7l.46.47a2.7,2.7,0,0,1-2.16.93,2.72,2.72,0,0,1,0-5.44,2.83,2.83,0,0,1,2.08.8l-.44.55A2.24,2.24,0,0,0,401.35,294.12Z"/><path class="cls-10" d="M407.71,298.44a2.16,2.16,0,0,1-1.22.4c-.79,0-1.37-.46-1.37-1.52v-3.1h-.78v-.62h.78v-1.41h.79v1.41h1.71v.62h-1.71v3c0,.65.25.92.71.92a1.84,1.84,0,0,0,.86-.28Z"/><path class="cls-10" d="M413.83,296.11a2.73,2.73,0,1,1-2.73-2.71A2.62,2.62,0,0,1,413.83,296.11Zm-4.66,0a1.93,1.93,0,1,0,1.93-2A1.89,1.89,0,0,0,409.17,296.12Z"/><path class="cls-10" d="M418,293.4v.78A1.79,1.79,0,0,0,416,296v2.86h-.8v-5.38h.8v1.2A2,2,0,0,1,418,293.4Z"/><path class="cls-10" d="M427.6,296.13a2.52,2.52,0,0,1-2.57,2.71,2.26,2.26,0,0,1-2.1-1.19v3.14h-.8v-7.36h.8v1.16A2.25,2.25,0,0,1,425,293.4,2.55,2.55,0,0,1,427.6,296.13Zm-.81,0a1.93,1.93,0,1,0-1.92,2A1.91,1.91,0,0,0,426.8,296.11Z"/><path class="cls-10" d="M432.34,298.81V298a2.32,2.32,0,0,1-2,.87,1.66,1.66,0,0,1-1.83-1.63c0-.94.75-1.53,2-1.54h1.77v-.34c0-.79-.49-1.27-1.44-1.27a2.93,2.93,0,0,0-1.71.62l-.34-.56a3.61,3.61,0,0,1,2.2-.73c1.33,0,2.06.71,2.08,1.85v3.56Zm0-1.85v-.65h-1.68c-.9,0-1.37.28-1.37.88s.48,1,1.24,1A1.73,1.73,0,0,0,432.33,297Z"/><path class="cls-10" d="M437.63,293.4v.78a1.79,1.79,0,0,0-1.93,1.77v2.86h-.8v-5.38h.8v1.2A2,2,0,0,1,437.63,293.4Z"/><path class="cls-10" d="M441.48,298.44a2.16,2.16,0,0,1-1.22.4c-.79,0-1.37-.46-1.37-1.52v-3.1h-.78v-.62h.78v-1.41h.79v1.41h1.71v.62h-1.71v3c0,.65.25.92.71.92a1.84,1.84,0,0,0,.86-.28Z"/><path class="cls-10" d="M447.61,295.5v3.31h-.8v-3.11a1.41,1.41,0,0,0-1.52-1.53,1.76,1.76,0,0,0-1.81,1.76v2.88h-.8v-5.38h.8v1.19a2.13,2.13,0,0,1,2.09-1.22A1.9,1.9,0,0,1,447.61,295.5Z"/><path class="cls-10" d="M454,296.42h-4.4a1.9,1.9,0,0,0,2,1.76,2.26,2.26,0,0,0,1.67-.69l.44.46a2.86,2.86,0,0,1-2.17.89,2.72,2.72,0,0,1,0-5.44C453.25,293.4,454.11,294.6,454,296.42Zm-.71-.63a1.7,1.7,0,0,0-1.8-1.72,1.82,1.82,0,0,0-1.88,1.72Z"/><path class="cls-10" d="M458.12,293.4v.78a1.79,1.79,0,0,0-1.93,1.77v2.86h-.8v-5.38h.8v1.2A2,2,0,0,1,458.12,293.4Z"/><path class="cls-10" d="M460.58,294.07c-.6,0-1.06.21-1.06.73,0,1.22,3,.59,3,2.52,0,1.05-.94,1.52-2,1.52a3,3,0,0,1-2.06-.76l.31-.58a2.73,2.73,0,0,0,1.79.69c.63,0,1.14-.25,1.16-.79,0-1.31-3-.64-3-2.55,0-1,.89-1.46,1.87-1.46a3.2,3.2,0,0,1,1.72.49l-.31.61A2.84,2.84,0,0,0,460.58,294.07Z"/><path class="cls-10" d="M350,306v6.4h3.14v.76h-4V306Z"/><path class="cls-10" d="M359.3,310.42a2.73,2.73,0,1,1-2.73-2.71A2.62,2.62,0,0,1,359.3,310.42Zm-4.66,0a1.93,1.93,0,1,0,1.93-2A1.89,1.89,0,0,0,354.64,310.43Z"/><path class="cls-10" d="M362.86,308.43a2,2,0,0,0,0,4,2.1,2.1,0,0,0,1.67-.7l.46.47a2.7,2.7,0,0,1-2.16.93,2.72,2.72,0,0,1,0-5.44,2.83,2.83,0,0,1,2.08.8l-.44.55A2.24,2.24,0,0,0,362.86,308.43Z"/><path class="cls-10" d="M369.78,313.12v-.84a2.32,2.32,0,0,1-2,.87,1.66,1.66,0,0,1-1.83-1.63c0-.94.75-1.53,2-1.54h1.77v-.34c0-.79-.49-1.27-1.44-1.27a2.93,2.93,0,0,0-1.71.62l-.34-.56a3.61,3.61,0,0,1,2.2-.73c1.33,0,2.07.71,2.08,1.85v3.56Zm0-1.85v-.65h-1.68c-.9,0-1.37.28-1.37.88s.48,1,1.24,1A1.73,1.73,0,0,0,369.76,311.27Z"/><path class="cls-10" d="M373.18,305.53v7.59h-.8v-7.59Z"/><path class="cls-10" d="M383.74,310.44a2.52,2.52,0,0,1-2.57,2.71,2.26,2.26,0,0,1-2.1-1.19v1.16h-.8v-7.59h.8v3.36a2.25,2.25,0,0,1,2.08-1.19A2.55,2.55,0,0,1,383.74,310.44Zm-.81,0a1.93,1.93,0,1,0-1.92,2A1.91,1.91,0,0,0,382.94,310.42Z"/><path class="cls-10" d="M389.81,307.74v5.38H389V311.9a2.05,2.05,0,0,1-2,1.25,1.9,1.9,0,0,1-2-2.1v-3.31h.8v3.11a1.39,1.39,0,0,0,1.49,1.53,1.79,1.79,0,0,0,1.77-2v-2.64Z"/><path class="cls-10" d="M393.13,308.37c-.6,0-1.06.21-1.06.73,0,1.22,3,.59,3,2.52,0,1.05-.94,1.52-2,1.52a3,3,0,0,1-2.06-.76l.31-.58a2.73,2.73,0,0,0,1.79.69c.63,0,1.14-.25,1.16-.79,0-1.31-3-.64-3-2.55,0-1,.89-1.46,1.87-1.46a3.2,3.2,0,0,1,1.72.49l-.31.61A2.84,2.84,0,0,0,393.13,308.37Z"/><path class="cls-10" d="M397.29,306.2a.52.52,0,1,1-1,0,.52.52,0,1,1,1,0Zm-.12,1.54v5.38h-.79v-5.38Z"/><path class="cls-10" d="M404,309.81v3.31h-.8V310a1.41,1.41,0,0,0-1.52-1.53,1.76,1.76,0,0,0-1.81,1.76v2.88h-.8v-5.38h.8v1.19a2.13,2.13,0,0,1,2.09-1.22A1.9,1.9,0,0,1,404,309.81Z"/><path class="cls-10" d="M410.45,310.73h-4.4a1.9,1.9,0,0,0,2,1.76,2.26,2.26,0,0,0,1.67-.69l.44.46a2.86,2.86,0,0,1-2.17.89,2.72,2.72,0,0,1,0-5.44C409.68,307.71,410.54,308.91,410.45,310.73Zm-.71-.63a1.7,1.7,0,0,0-1.8-1.72,1.82,1.82,0,0,0-1.88,1.72Z"/><path class="cls-10" d="M413.2,308.37c-.6,0-1.06.21-1.06.73,0,1.22,3,.59,3,2.52,0,1.05-.94,1.52-2,1.52a3,3,0,0,1-2.06-.76l.31-.58a2.73,2.73,0,0,0,1.79.69c.63,0,1.14-.25,1.16-.79,0-1.31-3-.64-3-2.55,0-1,.89-1.46,1.87-1.46a3.2,3.2,0,0,1,1.72.49l-.31.61A2.84,2.84,0,0,0,413.2,308.37Z"/><path class="cls-10" d="M417.83,308.37c-.6,0-1.06.21-1.06.73,0,1.22,3,.59,3,2.52,0,1.05-.94,1.52-2,1.52a3,3,0,0,1-2.06-.76l.31-.58a2.73,2.73,0,0,0,1.79.69c.63,0,1.14-.25,1.16-.79,0-1.31-3-.64-3-2.55,0-1,.89-1.46,1.87-1.46a3.2,3.2,0,0,1,1.72.49l-.31.61A2.84,2.84,0,0,0,417.83,308.37Z"/><path class="cls-10" d="M429.65,310.44a2.52,2.52,0,0,1-2.57,2.71A2.26,2.26,0,0,1,425,312v3.14h-.8v-7.36h.8v1.16a2.25,2.25,0,0,1,2.08-1.19A2.55,2.55,0,0,1,429.65,310.44Zm-.81,0a1.93,1.93,0,1,0-1.92,2A1.91,1.91,0,0,0,428.85,310.42Z"/><path class="cls-10" d="M434.39,313.12v-.84a2.32,2.32,0,0,1-2,.87,1.66,1.66,0,0,1-1.83-1.63c0-.94.75-1.53,2-1.54h1.77v-.34c0-.79-.49-1.27-1.44-1.27a2.93,2.93,0,0,0-1.71.62l-.34-.56a3.61,3.61,0,0,1,2.2-.73c1.33,0,2.06.71,2.08,1.85v3.56Zm0-1.85v-.65h-1.68c-.9,0-1.37.28-1.37.88s.48,1,1.24,1A1.73,1.73,0,0,0,434.38,311.27Z"/><path class="cls-10" d="M439.68,307.71v.78a1.79,1.79,0,0,0-1.93,1.77v2.86h-.8v-5.38h.8v1.2A2,2,0,0,1,439.68,307.71Z"/><path class="cls-10" d="M443.53,312.75a2.16,2.16,0,0,1-1.22.4c-.79,0-1.37-.46-1.37-1.52v-3.1h-.78v-.62h.78v-1.41h.79v1.41h1.71v.62h-1.71v3c0,.65.25.92.71.92a1.84,1.84,0,0,0,.86-.28Z"/><path class="cls-10" d="M449.66,309.81v3.31h-.8V310a1.41,1.41,0,0,0-1.52-1.53,1.76,1.76,0,0,0-1.81,1.76v2.88h-.8v-5.38h.8v1.19a2.13,2.13,0,0,1,2.09-1.22A1.9,1.9,0,0,1,449.66,309.81Z"/><path class="cls-10" d="M456.08,310.73h-4.4a1.9,1.9,0,0,0,2,1.76,2.26,2.26,0,0,0,1.67-.69l.44.46a2.86,2.86,0,0,1-2.17.89,2.72,2.72,0,0,1,0-5.44C455.3,307.71,456.16,308.91,456.08,310.73Zm-.71-.63a1.7,1.7,0,0,0-1.8-1.72,1.82,1.82,0,0,0-1.88,1.72Z"/><path class="cls-10" d="M460.17,307.71v.78a1.79,1.79,0,0,0-1.93,1.77v2.86h-.8v-5.38h.8v1.2A2,2,0,0,1,460.17,307.71Z"/><path class="cls-10" d="M462.62,308.37c-.6,0-1.06.21-1.06.73,0,1.22,3,.59,3,2.52,0,1.05-.94,1.52-2,1.52a3,3,0,0,1-2.06-.76l.31-.58a2.73,2.73,0,0,0,1.79.69c.63,0,1.14-.25,1.16-.79,0-1.31-3-.64-3-2.55,0-1,.89-1.46,1.87-1.46a3.2,3.2,0,0,1,1.72.49l-.31.61A2.84,2.84,0,0,0,462.62,308.37Z"/><path class="cls-10" d="M350.56,327.42l-1.5-2.29-.46,0h-1.9v2.27h-.82v-7.16h2.72c1.79,0,2.82.88,2.82,2.4A2.24,2.24,0,0,1,349.8,325l1.69,2.44Zm-2-3c1.3,0,2-.58,2-1.71s-.74-1.67-2-1.67h-1.9v3.37Z"/><path class="cls-10" d="M357.79,325h-4.4a1.9,1.9,0,0,0,2,1.76,2.26,2.26,0,0,0,1.67-.68l.44.46a2.86,2.86,0,0,1-2.17.89,2.72,2.72,0,0,1,0-5.44C357,322,357.87,323.21,357.79,325Zm-.71-.63a1.7,1.7,0,0,0-1.8-1.72,1.82,1.82,0,0,0-1.88,1.72Z"/><path class="cls-10" d="M360.54,322.68c-.6,0-1.06.21-1.06.73,0,1.22,3,.59,3,2.53,0,1.05-.94,1.52-2,1.52a3,3,0,0,1-2.06-.76l.31-.58a2.73,2.73,0,0,0,1.79.68c.63,0,1.14-.25,1.16-.79,0-1.31-3-.64-3-2.54,0-1,.89-1.46,1.87-1.46a3.2,3.2,0,0,1,1.72.49l-.31.61A2.84,2.84,0,0,0,360.54,322.68Z"/><path class="cls-10" d="M368.43,325H364a1.9,1.9,0,0,0,2,1.76,2.26,2.26,0,0,0,1.67-.68l.44.46a2.86,2.86,0,0,1-2.17.89,2.72,2.72,0,0,1,0-5.44C367.65,322,368.51,323.21,368.43,325Zm-.71-.63a1.7,1.7,0,0,0-1.8-1.72A1.82,1.82,0,0,0,364,324.4Z"/><path class="cls-10" d="M373.14,327.42v-.84a2.32,2.32,0,0,1-2,.87,1.66,1.66,0,0,1-1.83-1.62c0-.94.75-1.53,2-1.54h1.77v-.34c0-.79-.49-1.27-1.44-1.27a2.93,2.93,0,0,0-1.71.62l-.34-.56a3.62,3.62,0,0,1,2.2-.73c1.33,0,2.06.71,2.08,1.85v3.56Zm0-1.85v-.65h-1.68c-.9,0-1.37.28-1.37.88s.48,1,1.24,1A1.73,1.73,0,0,0,373.13,325.57Z"/><path class="cls-10" d="M378.42,322v.78a1.79,1.79,0,0,0-1.93,1.77v2.86h-.8V322h.8v1.2A2,2,0,0,1,378.42,322Z"/><path class="cls-10" d="M381.65,322.73a2,2,0,0,0,0,4,2.1,2.1,0,0,0,1.67-.7l.46.47a2.71,2.71,0,0,1-2.16.93,2.72,2.72,0,0,1,0-5.44,2.83,2.83,0,0,1,2.08.8l-.44.55A2.24,2.24,0,0,0,381.65,322.73Z"/><path class="cls-10" d="M390.21,324.11v3.31h-.8v-3.11a1.41,1.41,0,0,0-1.52-1.53,1.8,1.8,0,0,0-1.82,2v2.64h-.8v-7.59h.8v3.42a2.11,2.11,0,0,1,2.1-1.24A1.9,1.9,0,0,1,390.21,324.11Z"/><path class="cls-10" d="M398.4,327.42v-.84a2.32,2.32,0,0,1-2,.87,1.66,1.66,0,0,1-1.83-1.62c0-.94.75-1.53,2-1.54h1.77v-.34c0-.79-.49-1.27-1.44-1.27a2.93,2.93,0,0,0-1.71.62l-.34-.56a3.62,3.62,0,0,1,2.2-.73c1.33,0,2.06.71,2.08,1.85v3.56Zm0-1.85v-.65h-1.68c-.9,0-1.37.28-1.37.88s.48,1,1.24,1A1.73,1.73,0,0,0,398.38,325.57Z"/><path class="cls-10" d="M405.88,324.11v3.31h-.8v-3.11a1.41,1.41,0,0,0-1.52-1.53,1.76,1.76,0,0,0-1.81,1.76v2.88h-.8V322h.8v1.19a2.13,2.13,0,0,1,2.09-1.22A1.9,1.9,0,0,1,405.88,324.11Z"/><path class="cls-10" d="M412.6,319.84v7.59h-.8v-1.16a2.25,2.25,0,0,1-2.1,1.2,2.73,2.73,0,0,1,0-5.46,2.25,2.25,0,0,1,2.11,1.21v-3.37Zm-.8,4.91a1.95,1.95,0,1,0-1.94,2A1.92,1.92,0,0,0,411.8,324.74Z"/><path class="cls-10" d="M422.62,320.27V321h-4v2.4h3.61v.75h-3.61v2.49h4.17v.76h-5v-7.16Z"/><path class="cls-10" d="M429.25,319.84v7.59h-.8v-1.16a2.25,2.25,0,0,1-2.1,1.2,2.73,2.73,0,0,1,0-5.46,2.25,2.25,0,0,1,2.11,1.21v-3.37Zm-.8,4.91a1.95,1.95,0,1,0-1.94,2A1.92,1.92,0,0,0,428.46,324.74Z"/><path class="cls-10" d="M435.92,322v5.38h-.8v-1.22a2.05,2.05,0,0,1-2,1.25,1.9,1.9,0,0,1-2-2.1V322h.8v3.11a1.39,1.39,0,0,0,1.49,1.53,1.79,1.79,0,0,0,1.77-2V322Z"/><path class="cls-10" d="M440,322.73a2,2,0,0,0,0,4,2.1,2.1,0,0,0,1.67-.7l.46.47a2.71,2.71,0,0,1-2.16.93,2.72,2.72,0,0,1,0-5.44,2.83,2.83,0,0,1,2.08.8l-.44.55A2.24,2.24,0,0,0,440,322.73Z"/><path class="cls-10" d="M446.93,327.42v-.84a2.32,2.32,0,0,1-2,.87,1.66,1.66,0,0,1-1.83-1.62c0-.94.75-1.53,2-1.54h1.77v-.34c0-.79-.49-1.27-1.44-1.27a2.93,2.93,0,0,0-1.71.62l-.34-.56a3.62,3.62,0,0,1,2.2-.73c1.33,0,2.06.71,2.08,1.85v3.56Zm0-1.85v-.65h-1.68c-.9,0-1.37.28-1.37.88s.48,1,1.24,1A1.73,1.73,0,0,0,446.92,325.57Z"/><path class="cls-10" d="M452.26,327.05a2.16,2.16,0,0,1-1.22.4c-.79,0-1.37-.46-1.37-1.52v-3.1h-.78v-.62h.78V320.8h.79v1.41h1.71v.62h-1.71v3c0,.65.25.92.71.92a1.85,1.85,0,0,0,.86-.28Z"/><path class="cls-10" d="M454.38,320.5a.52.52,0,1,1-.52-.54A.52.52,0,0,1,454.38,320.5Zm-.12,1.54v5.38h-.79V322Z"/><path class="cls-10" d="M461.11,324.72a2.73,2.73,0,1,1-2.73-2.71A2.62,2.62,0,0,1,461.11,324.72Zm-4.66,0a1.93,1.93,0,1,0,1.93-2A1.89,1.89,0,0,0,456.45,324.73Z"/><path class="cls-10" d="M467.44,324.11v3.31h-.8v-3.11a1.41,1.41,0,0,0-1.52-1.53,1.76,1.76,0,0,0-1.81,1.76v2.88h-.8V322h.8v1.19a2.13,2.13,0,0,1,2.09-1.22A1.9,1.9,0,0,1,467.44,324.11Z"/><path class="cls-10" d="M392.13,339a2.52,2.52,0,0,1-2.57,2.71,2.26,2.26,0,0,1-2.1-1.19v3.14h-.8v-7.36h.8v1.16a2.25,2.25,0,0,1,2.08-1.19A2.55,2.55,0,0,1,392.13,339Zm-.81,0a1.93,1.93,0,1,0-1.92,2A1.91,1.91,0,0,0,391.33,339Z"/><path class="cls-10" d="M396.87,341.73v-.84a2.32,2.32,0,0,1-2,.87,1.66,1.66,0,0,1-1.83-1.62c0-.94.75-1.53,2-1.54h1.77v-.34c0-.79-.49-1.27-1.44-1.27a2.93,2.93,0,0,0-1.71.62l-.34-.56a3.62,3.62,0,0,1,2.2-.73c1.33,0,2.07.71,2.08,1.85v3.56Zm0-1.85v-.65h-1.68c-.9,0-1.37.28-1.37.88s.48,1,1.24,1A1.73,1.73,0,0,0,396.86,339.88Z"/><path class="cls-10" d="M402.16,336.32v.78a1.79,1.79,0,0,0-1.93,1.77v2.86h-.8v-5.38h.8v1.2A2,2,0,0,1,402.16,336.32Z"/><path class="cls-10" d="M406,341.36a2.16,2.16,0,0,1-1.22.4c-.79,0-1.37-.46-1.37-1.52v-3.1h-.78v-.62h.78V335.1h.79v1.41h1.71v.62h-1.71v3c0,.65.25.92.71.92a1.85,1.85,0,0,0,.86-.28Z"/><path class="cls-10" d="M412.14,338.42v3.31h-.8v-3.11a1.41,1.41,0,0,0-1.52-1.53,1.76,1.76,0,0,0-1.81,1.76v2.88h-.8v-5.38h.8v1.19a2.13,2.13,0,0,1,2.09-1.22A1.9,1.9,0,0,1,412.14,338.42Z"/><path class="cls-10" d="M418.56,339.33h-4.4a1.9,1.9,0,0,0,2,1.76,2.26,2.26,0,0,0,1.67-.68l.44.46a2.86,2.86,0,0,1-2.17.89,2.72,2.72,0,0,1,0-5.44C417.78,336.32,418.64,337.52,418.56,339.33Zm-.71-.63A1.7,1.7,0,0,0,416,337a1.82,1.82,0,0,0-1.88,1.72Z"/><path class="cls-10" d="M422.65,336.32v.78a1.79,1.79,0,0,0-1.93,1.77v2.86h-.8v-5.38h.8v1.2A2,2,0,0,1,422.65,336.32Z"/><path class="cls-10" d="M425.1,337c-.6,0-1.06.21-1.06.73,0,1.22,3,.59,3,2.53,0,1.05-.94,1.52-2,1.52A3,3,0,0,1,423,341l.31-.58a2.73,2.73,0,0,0,1.79.68c.63,0,1.14-.25,1.16-.79,0-1.31-3-.64-3-2.54,0-1,.89-1.46,1.87-1.46a3.2,3.2,0,0,1,1.72.49l-.31.61A2.84,2.84,0,0,0,425.1,337Z"/></g><g id="Layer_8" data-name="Layer 8"><path class="cls-8" d="M240,218.61c-17.62,30.94-66.85,25.91-106.51-43.45"/><polygon class="cls-6" points="143.19 176.65 142.65 178.43 133.88 175.76 131.85 184.71 130.04 184.29 132.5 173.4 143.19 176.65"/><path class="cls-8" d="M240,216.07c0,25.86-40.82,47.21-89.55,47.79"/><polygon class="cls-6" points="156.4 256.04 157.71 257.37 151.16 263.79 158.04 269.85 156.81 271.25 148.43 263.87 156.4 256.04"/><path class="cls-8" d="M240,216.07c0,35.47,0,62,0,69.34"/><polygon class="cls-6" points="232.43 279.25 233.79 277.98 240.04 284.69 246.28 277.97 247.64 279.24 240.04 287.42 232.43 279.25"/><path class="cls-8" d="M240,218.61c17.62,30.94,66.85,25.91,106.51-43.45"/><polygon class="cls-6" points="349.96 184.3 348.15 184.71 346.13 175.76 337.35 178.43 336.81 176.65 347.5 173.4 349.96 184.3"/><path class="cls-8" d="M240,216.07c0,25.94,27.71,47.34,89.55,47.79"/><polygon class="cls-6" points="323.23 271.3 321.99 269.91 328.84 263.81 322.26 257.42 323.56 256.09 331.57 263.87 323.23 271.3"/></g></svg>